SplineFontDB: 3.2
FontName: Machaut
FullName: Machaut
FamilyName: Machaut
Weight: Regular
Copyright: (c) Robert Piechaud 2020. Machaut font is dedicated to medieval music and designed for the package MEDIEVAL for FINALE. It cannot be sold separately.
Version: 1.00
ItalicAngle: 0
UnderlinePosition: -82
UnderlineWidth: 9
Ascent: 800
Descent: 200
InvalidEm: 0
LayerCount: 2
Layer: 0 0 "Back" 1
Layer: 1 0 "Fore" 0
UniqueID: 4909797
FSType: 0
OS2Version: 0
OS2_WeightWidthSlopeOnly: 0
OS2_UseTypoMetrics: 0
CreationTime: 1241828086
ModificationTime: 1614289600
PfmFamily: 17
TTFWeight: 400
TTFWidth: 5
LineGap: 90
VLineGap: 0
OS2TypoAscent: 0
OS2TypoAOffset: 1
OS2TypoDescent: 0
OS2TypoDOffset: 1
OS2TypoLinegap: 90
OS2WinAscent: 0
OS2WinAOffset: 1
OS2WinDescent: 0
OS2WinDOffset: 1
HheadAscent: 0
HheadAOffset: 1
HheadDescent: 0
HheadDOffset: 1
OS2Vendor: 'PfEd'
OS2CodePages: 80000000.00000000
MarkAttachClasses: 1
DEI: 91125
LangName: 1033
Encoding: Custom
UnicodeInterp: none
NameList: Adobe Glyph List
DisplaySize: -72
AntiAlias: 1
FitToEm: 1
WinInfo: 247 13 6
BeginPrivate: 9
BlueValues 17 [ -12 7 107 130 ]
BlueScale 7 0.04438
BlueShift 1 7
BlueFuzz 1 1
StdHW 6 [ 19 ]
StdVW 6 [ 26 ]
ForceBold 5 false
StemSnapH 9 [ 19 30 ]
StemSnapV 9 [ 26 58 ]
EndPrivate
Grid
-1000 535 m 4
 2000 535 l 1028
  Named: "brevis lower +-5"
-1000 715 m 0
 2000 715 l 1024
  Named: "bevis upper +-5"
-1000 410 m 0
 2000 410 l 1024
  Named: "brevis lower +-4"
-1000 590 m 0
 2000 590 l 1024
  Named: "brevius upper +-4"
-1000 -285 m 0
 2000 -285 l 1024
  Named: "brevis upper -3"
-1000 -160 m 0
 2000 -160 l 1024
  Named: "brevis upper -2"
-1000 -590 m 0
 2000 -590 l 1024
  Named: "brevis lower -4"
-1000 -465 m 0
 2000 -465 l 1024
  Named: "brevius lower -3"
-1000 285 m 0
 2000 285 l 1024
  Named: "brevis lower +-3"
-1000 465 m 0
 2000 465 l 1024
  Named: "brevis upper +-3"
-1000 -340 m 0
 2000 -340 l 1024
  Named: "brevis lower -2"
-999 160 m 0
 2001 160 l 1024
  Named: "brevis lower +-2"

StartChar: plicaSemibrevisAscBlack
Encoding: 34 34 2
AltUni2: 00e998.ffffffff.0 00f022.ffffffff.0
Width: 160
VWidth: 1592
Flags: HMW
HStem: -267 32G
LayerCount: 2
Fore
SplineSet
359 355 m 1
 329 304 294 244 257 173 c 0
 209 80 152 -30 89 -156 c 1
 68 -124 37 -73 1 0 c 1
 22 33 47 82 78 150 c 1
 92 119 113 82 144 27 c 0
 147 22 148 18 151 18 c 0
 153 18 155 20 158 24 c 0
 189 78 221 139 256 204 c 0
 278 246 303 288 329 335 c 0
 332 339 332 346 335 350 c 0
 338 356 341 360 345 367 c 1
 347 368 348 369 350 369 c 0
 355 367 l 0
 358 365 359 361 359 355 c 1
EndSplineSet
Comment: "plicaSemibrevisAsc"
EndChar

StartChar: plicaSemibrevisDescBlack
Encoding: 35 35 3
AltUni2: 00f023.ffffffff.0
Width: 167
VWidth: 1528
Flags: HMW
HStem: 11 31G
LayerCount: 2
Fore
SplineSet
372 -343 m 1
 304 -229 212 -62 93 150 c 1
 73 119 38 70 0 0 c 1
 22 -32 49 -79 81 -144 c 1
 95 -114 118 -79 150 -26 c 0
 154 -21 155 -17 158 -17 c 0
 160 -17 162 -19 165 -23 c 0
 199 -76 233 -132 270 -195 c 0
 293 -235 316 -279 340 -324 c 0
 343 -328 343 -334 346 -338 c 0
 350 -344 353 -347 357 -354 c 1
 359 -355 361 -356 363 -356 c 0
 368 -354 l 0
 371 -352 372 -349 372 -343 c 1
EndSplineSet
Comment: "plicaSemibrevisDesc"
EndChar

StartChar: percent
Encoding: 37 37 5
AltUni2: 00f025.ffffffff.0
Width: 192
Flags: MW
HStem: 0 39 655 39
VStem: 13 76 451 76
LayerCount: 2
Fore
SplineSet
14 -101 m 5
 7 -99 2 -94 0 -87 c 5
 0 -87 72 -15 72 -15 c 6
 75.6348151111 -11.3651848889 77.3822186663 -8 77.3822186663 -4.76443733252 c 0
 77.3822186663 -1.76888838089 75.8844441904 1.11555580955 73 4 c 6
 73 4 -2 78 -2 78 c 5
 2 86 7 91 12 93 c 5
 12 93 84 21 84 21 c 6
 88 17 92 15 96 15 c 0
 108 21 l 6
 108 21 180 93 180 93 c 5
 186 90 191 86 195 79 c 5
 195 79 119 4 119 4 c 6
 115.86335345 0.86335345031 114.366465497 -2.27329309938 114.366465497 -5.2670690062 c 0
 114.366465497 -8 115.613872125 -10.6138721247 118 -13 c 6
 118 -13 193 -88 193 -88 c 5
 190 -94 185 -99 179 -102 c 5
 179 -102 103 -26 103 -26 c 6
 100.838821814 -23.8388218142 98.6776436283 -22.7986095045 96.4357118758 -22.7986095045 c 0
 93.4908159823 -22.7986095045 90.406586177 -24.593413823 87 -28 c 6
 87 -28 14 -101 14 -101 c 5
EndSplineSet
Validated: 1
EndChar

StartChar: mensuralProlation1
Encoding: 38 38 6
AltUni2: 00e910.ffffffff.0 00f026.ffffffff.0
Width: 302
VWidth: 600
Flags: HW
LayerCount: 2
Fore
SplineSet
176 -23 m 4
 170 -30 162 -33 152 -33 c 4
 144 -33 137 -30 131 -26 c 4
 123 -20 119 -13 119 -1 c 4
 119 9 122 16 128 23 c 4
 134 29 141 33 151 33 c 4
 159 33 167 30 173 25 c 4
 180 19 184 10 184 -1 c 4
 184 -10 181 -18 176 -23 c 4
246 -86 m 4
 264 -66 276 -37 276 -4 c 4
 276 39 258 72 234 95 c 4
 210 115 182 127 150 127 c 4
 111 127 84 113 61 89 c 4
 37 64 26 36 26 -2 c 4
 26 -47 43 -77 73 -100 c 4
 96 -117 124 -127 153 -127 c 4
 192 -127 223 -110 246 -86 c 4
255 -112 m 4
 228 -137 192 -152 153 -152 c 4
 113 -152 75 -136 47 -110 c 4
 19 -84 0 -50 0 -12 c 4
 0 46 16 84 52 116 c 4
 78 139 112 152 147 152 c 4
 193 152 231 136 260 105 c 4
 285 79 302 42 302 -2 c 4
 302 -46 281 -88 255 -112 c 4
EndSplineSet
EndChar

StartChar: mensuralProlation2
Encoding: 39 39 7
AltUni2: 00e911.ffffffff.0 00f027.ffffffff.0
Width: 302
VWidth: 600
Flags: HMW
LayerCount: 2
Fore
SplineSet
246 -86 m 0
 264 -66 276 -37 276 -4 c 0
 276 39 258 72 234 95 c 0
 210 115 182 127 150 127 c 0
 111 127 84 113 61 89 c 0
 37 64 26 36 26 -2 c 0
 26 -47 43 -77 73 -100 c 0
 96 -117 124 -127 153 -127 c 0
 192 -127 223 -110 246 -86 c 0
255 -112 m 0
 228 -137 192 -152 153 -152 c 0
 113 -152 75 -136 47 -110 c 0
 19 -84 0 -50 0 -12 c 0
 0 46 16 84 52 116 c 0
 78 139 112 152 147 152 c 0
 193 152 231 136 260 105 c 0
 285 79 302 42 302 -2 c 0
 302 -46 281 -88 255 -112 c 0
EndSplineSet
EndChar

StartChar: mensuralProlation6
Encoding: 41 41 9
AltUni2: 00e915.ffffffff.0 00f029.ffffffff.0
Width: 283
VWidth: 600
Flags: HMW
LayerCount: 2
Fore
SplineSet
283 96 m 1
 283 87 278 84 271 84 c 0
 269 84 266 84 264 86 c 0
 245 119 197 127 149 127 c 0
 80 127 26 75 26 4 c 0
 26 -71 81 -127 152 -127 c 0
 190 -127 214 -121 237 -104 c 0
 246 -97 256 -94 261 -82 c 1
 264 -80 267 -79 269 -79 c 0
 277 -79 283 -86 283 -93 c 0
 283 -94 283 -94 283 -94 c 0
 275 -109 261 -122 246 -132 c 0
 220 -150 190 -152 155 -152 c 0
 68 -152 0 -88 0 2 c 0
 0 87 67 152 149 152 c 0
 189 152 224 147 255 125 c 0
 267 116 279 108 283 96 c 1
EndSplineSet
EndChar

StartChar: mensuralProlation7
Encoding: 42 42 10
AltUni2: 00e916.ffffffff.0 00f02a.ffffffff.0
Width: 284
VWidth: 600
Flags: HW
LayerCount: 2
Fore
SplineSet
22 -64 m 5
 30 -78 40 -90 54 -100 c 4
 77 -117 106 -127 135 -127 c 4
 174 -127 205 -110 228 -86 c 4
 247 -66 258 -37 258 -4 c 4
 258 40 240 72 216 95 c 4
 192 116 164 127 132 127 c 4
 94 127 66 113 43 89 c 4
 35 81 28 73 23 64 c 5
 20 62 17 61 15 61 c 4
 9 61 0 70 0 74 c 0
 0 75 0 75 1 76 c 1
 9 91 20 104 34 116 c 0
 60 139 94 152 129 152 c 0
 175 152 213 136 242 105 c 0
 267 79 284 42 284 -2 c 0
 284 -46 263 -88 237 -112 c 0
 210 -137 174 -152 135 -152 c 0
 95 -152 57 -136 29 -110 c 0
 18 -100 11 -87 3 -74 c 5
 5 -67 11 -64 16 -64 c 4
 18 -64 20 -63 22 -64 c 5
EndSplineSet
EndChar

StartChar: chantCustosStemUpPosMiddle
Encoding: 43 43 11
AltUni2: 00ea06.ffffffff.0 00f02b.ffffffff.0
Width: 53
Flags: MW
HStem: -9 19
VStem: 139 19
LayerCount: 2
Fore
SplineSet
41 187 m 5
 42.6027526411 187.961651585 44.1027526411 188.409539964 45.5 188.409539964 c 0
 48.4616515847 188.409539964 50.9616515847 186.397247359 53 183 c 5
 53 -82 l 5
 36.5220551318 -75.591910329 20.0441102635 -64.9936560426 4.33333541217 -50.9724071576 c 4
 0.219386483435 -47.3008694788 0 -44.8936688837 0 -36.6666666667 c 6
 0 50.25 l 6
 0 52.1176011022 -0.0641435275673 53.8603628072 -0.0641435275673 55.384262105 c 0
 -0.0641435275673 58.9237320675 0.281888872104 61.2825141749 2.58137128294 61.2825141749 c 0
 3.35463695362 61.2825141749 4.34880458887 61.0157760457 5.625 60.4375 c 6
 33.625 47.75 l 6
 35.5274666392 46.8901892276 37.0421896471 46.4147708989 38.2272369914 46.4147708989 c 0
 40.8801469122 46.4147708989 41.8808649128 48.797362058 41.8808649128 54.5837785001 c 0
 41.8808649128 54.8407748599 41.8788909167 55.1044855366 41.875 55.375 c 4
 41.001953125 116.073242188 41 158.322959131 41 187 c 5
EndSplineSet
Validated: 1
Comment: "chantCustosStemUpPosMiddle"
EndChar

StartChar: chantCustosStemUpPosLow
Encoding: 44 44 12
AltUni2: 00ea05.ffffffff.0 00f02c.ffffffff.0
Width: 53
Flags: MW
HStem: -71 125
VStem: 156 53
LayerCount: 2
Fore
SplineSet
41 296 m 5
 41.8856217223 296.177124344 42.7398704113 296.260129589 43.5627460668 296.260129589 c 0
 47.3856217223 296.260129589 50.5313730334 294.468626967 53 292 c 5
 53 -82 l 5
 37.3026361746 -77.3831282866 21.6052723492 -67.6505355131 4.33333333333 -51.2276464888 c 4
 0.708641786574 -47.7811366925 0 -46.2468162472 0 -38.6666666667 c 6
 0 54.6666666667 l 6
 0 59.7358372211 0.232360340276 61.8796087571 1.59577328902 61.8796087571 c 0
 2.48236769141 61.8796087571 3.8472373875 60.9730965813 5.9375 59.375 c 4
 15.9228515625 51.7421875 24.8739926492 47.5893720617 36 45.0763205494 c 4
 37.0466871452 44.8399034206 37.9113114426 44.7231562598 38.6251994112 44.7231562598 c 0
 41.6292016161 44.7231562598 41.9641440306 46.7903762522 41.9641440306 50.7070398812 c 0
 41.9641440306 51.706339581 41.9423403852 52.8260319558 41.9375 54.0625 c 6
 41 296 l 5
EndSplineSet
Validated: 1
Comment: "chantCustosStemUpPosLow"
EndChar

StartChar: hyphen
Encoding: 45 45 13
AltUni2: 00f02d.ffffffff.0
Width: 154
Flags: MW
HStem: 15 19
LayerCount: 2
Fore
SplineSet
49 -22 m 1
 30 -19 21 -9 21 10 c 0
 21 14 22 17 24 20 c 0
 51 55 91 99 145 150 c 1
 145 150 145 146 145 137 c 1
 108 102 84 76 74 61 c 0
 73 60 73 58 73 56 c 0
 73 43 79 37 90 38 c 1
 183 136 302 260 447 409 c 1
 448 400 449 395 448 394 c 0
 277 221 144 83 49 -22 c 1
EndSplineSet
Validated: 1
EndChar

StartChar: mensuralCustosUp
Encoding: 46 46 14
AltUni2: 00ea02.ffffffff.0 00f02e.ffffffff.0
Width: 154
Flags: MW
HStem: -17 76
VStem: 32 79
LayerCount: 2
Fore
SplineSet
0 -6 m 5
 0.25 2.5458984375 l 6
 0.25 4.15625 1.4208984375 5.44140625 2.1875 6.1875 c 6
 38 41 l 6
 40.2408898617 43.1783170209 42.2372377116 44.6521234981 43.5454543895 45.7983776336 c 4
 44.2511959847 46.4167455506 44.9009946077 46.6951413221 45.5353384026 46.6951413221 c 0
 46.3536389576 46.6951413221 47.1462213178 46.2318662481 48 45.4375 c 4
 50.2470703125 43.3466796875 54.4720661624 38.3032005501 63 29 c 4
 68.3492871639 23.164414003 72.5934185527 18.8227465982 75.5005631659 15.75 c 4
 77.1636638613 13.9921627803 78.7668919539 13.1575557028 80.3749741333 13.1575557028 c 0
 81.8941260185 13.1575557028 83.4176099536 13.9024042563 84.9999969833 15.3173832946 c 4
 90.5200564637 20.2534503299 100.996986922 30.0234003074 116.636363636 43.9055201546 c 4
 117.795637443 44.934536733 118.642085362 45.4887137426 119.446363801 45.4887137426 c 0
 120.294804921 45.4887137426 121.09631839 44.8720064714 122.168638551 43.5454545455 c 4
 123.106856508 42.3847985357 124.437611115 40.9529861065 126 39 c 4
 135.888389774 27.3666002653 143.408399735 19.1166002653 148.166425465 14.25 c 4
 151.495088064 10.8453798469 152.851262421 8.86497106098 154.458802444 8.86497106098 c 0
 155.589880373 8.86497106098 156.845400429 9.84540042858 159 12 c 4
 196 51 267 123 373 230 c 4
 474.575810919 331.575810919 541.005480761 397.104297656 574.000007743 428.29645843 c 4
 575.714558725 429.917349977 577.085364079 431.323617908 578.008102444 431.323617908 c 4
 578.617554579 431.323617908 579.348319021 430.669429427 579.348319021 429.123382746 c 0
 579.348319021 428.882063039 579.330515013 428.619014509 579.291666667 428.333333333 c 6
 579.416876087 428.04163636 579.470872785 427.740798759 579.470872785 427.423323291 c 0
 579.470872785 425.431849949 577.34618143 422.785700774 577.34618143 417.634353333 c 0
 577.34618143 416.868628177 577.393127581 416.047549373 577.500976562 415.165039062 c 5
 373.500976562 220.165039062 232.047860156 74.0478601564 138 -20 c 4
 136.413650221 -21.5863497795 134.892448663 -22.9236192496 133.636363736 -23.9439021893 c 4
 132.594149058 -24.7904642588 131.590455552 -25.4564079598 130.693787144 -25.4564079598 c 0
 130.214856349 -25.4564079598 129.76645841 -25.2664229644 129.359031828 -24.8125 c 4
 126.749023073 -21.9046315341 118.744866855 -13.0813808773 101.908203125 3.0908203125 c 4
 99.7447103818 5.16934720994 97.9563546655 6.29914753896 96.1760757547 6.29914753896 c 0
 94.9075473748 6.29914753896 93.6431197507 5.72552530288 92.2500003223 4.51277319232 c 4
 89.0772087965 1.75076331672 84.4836929392 -2.51630706077 79 -8 c 4
 70.5958191697 -15.7038324278 65.0442016373 -20.8536683373 62.272727031 -23.4106666029 c 4
 61.5626386564 -24.0658033081 60.977678126 -24.3931385962 60.3843832533 -24.3931385962 c 0
 59.6327975905 -24.3931385962 58.8678371334 -23.8678371334 57.8181818182 -22.8181818182 c 6
 54 -19 l 6
 31 6 l 6
 28.0145378559 9.24506754792 26.0504954872 11.5178121761 23.2075936909 11.5178121761 c 0
 21.8901658255 11.5178121761 20.3840042878 11.0297438613 18.5 9.92419385404 c 4
 13.2612364614 6.85004210949 8.83090780197 2.94912400129 0 -6 c 5
EndSplineSet
Validated: 1
Comment: "mensuralCustosUp"
EndChar

StartChar: mensuralFusaBlack
Encoding: 56 56 24
AltUni2: 00f702.ffffffff.0 00f038.ffffffff.0
Width: 198
VWidth: 1676
Flags: MW
HStem: -139.148 30.1766 108.971 30.1766
VStem: 0 23.8 207.2 25.2
LayerCount: 2
Fore
SplineSet
163.849609375 601.856445312 m 0
 161.186523438 617.801757812 144.05859375 636.330078125 109.671875 666 c 0
 108.385742188 667.109375 107.391601562 667.551757812 106.626953125 667.551757812 c 0
 104.693359375 667.551757812 104.228515625 664.725585938 104.228515625 662.728515625 c 0
 104.228515625 662.46875 104.236328125 662.223632812 104.25 662 c 0
 104.731812147 654.004347661 105.045181829 647.583991188 105.24696124 641.833333333 c 0
 105.383104766 637.953280158 105.945754852 637.560658082 107.976351933 635.833333333 c 0
 130.527729447 616.650033578 144.005661705 601.18833447 159.253068135 578.5 c 0
 160.000429955 577.387916118 160.617303148 576.621905294 161.239908605 576.621905294 c 0
 161.785188174 576.621905294 162.334864564 577.209458922 162.980446523 578.666666667 c 0
 164.508302098 582.115342615 164.570208199 586.156268166 164.570208199 590.449628197 c 1
 164.570208199 593.97056376 164.277653451 597.756893471 163.849609375 601.856445312 c 0
196 0 m 5
 172.1875 -55.6171875 143.939453125 -97.205078125 91 -164.295898438 c 1
 91.6416015625 -162.592773438 91.4482421875 -157.35546875 91.4482421875 -155.11328125 c 0
 91.4482421875 -125.732421875 39.3759765625 -55.7861328125 0 -5.029296875 c 1
 19.0283203125 18.099609375 56.005859375 70.7978515625 80.6875 124.416992188 c 4
 83.1240234375 129.7109375 85.2548828125 140.313476562 85.400390625 147.333007812 c 0
 87.0703125 227.946289062 88.1474609375 296.69140625 88.1474609375 365.990234375 c 0
 88.1474609375 406.270745479 87.783203125 445.266601562 86.9609375 488.333007812 c 0
 86.8916015625 491.922851562 86.75 492.13671875 84.1669921875 493.161132812 c 0
 67.84375 499.633789062 51.8115234375 507.823811242 51.849609375 508.200195312 c 0
 51.9716796875 508.200195312 52.392578125 508.081054688 53.150390625 507.827148438 c 0
 56.4902062815 506.705724032 71.0210579402 502.331765625 83.8333329643 498.906898533 c 0
 84.8551010427 498.633768284 85.5340605871 498.378441535 85.977144218 498.378441535 c 0
 86.5779875927 498.378441535 86.7450857126 498.847954356 86.7450857126 500.379267866 c 0
 86.7450857126 500.569426763 86.7425089367 500.775959407 86.7378660013 501 c 0
 86.3710684585 518.699478954 85.9274658737 536.867357437 85.400390625 555.666992188 c 0
 85.3880160822 556.104860624 85.3836187909 556.548296923 85.3836187909 556.993636754 c 0
 85.3836187909 558.087665138 85.41015625 559.193181257 85.41015625 560.255859375 c 0
 85.41015625 564.611328125 84.9580078125 568.4765625 80.3330078125 570.379882812 c 0
 69.77734375 574.724609375 54.515625 581.069335938 46.0498046875 585.416015625 c 1
 49.900390625 583.877929688 63.6337890625 579.431640625 79.25 575.827148438 c 0
 80.65234375 575.50390625 81.7470703125 575.275390625 82.5986328125 575.275390625 c 0
 84.5712890625 575.275390625 85.240234375 576.497070312 85.400390625 580.583007812 c 0
 85.603515625 585.772460938 85.6943359375 591.848632812 85.6943359375 598.46875 c 0
 85.6943359375 634.8828125 84.3037109375 686.19921875 82.5 698.75 c 0
 82.0341796875 701.98828125 80.265625 708.002929688 80.265625 712.250976562 c 0
 80.265625 719.166992188 81.376953125 725.595703125 85.20703125 725.595703125 c 0
 86.021484375 725.595703125 86.958984375 725.3046875 88.0341796875 724.666992188 c 0
 110.256835938 711.483398438 133.857421875 683.958984375 161.049804688 642.092773438 c 0
 172.25 625.327148438 180.599609375 608.5625 180.599609375 591.797851562 c 0
 180.599609375 578.477559071 177.530980957 568.832316445 171.39372412 562.374999597 c 0
 170.679396817 561.623419885 170.341431013 561.282572218 170.341431013 560.839897748 c 0
 170.341431013 560.474914192 170.571178306 560.040709336 171.009152559 559.25 c 0
 180.054283782 542.920113827 184.5 529.442533478 184.5 515.5 c 0
 184.5 495.380859375 178.75 484.396484375 164.75 479.3671875 c 0
 161.647460938 478.305664062 156.603515625 476.998046875 152.013671875 476.998046875 c 0
 143.39288269 476.998046875 128.843503604 479.529675968 114.327148438 483.671875 c 0
 113.234780434 483.983568613 111.946965399 484.38601763 110.500000306 484.863981333 c 0
 109.405931653 485.225375749 108.6251111 485.673094322 108.107909934 485.673094322 c 0
 107.542339701 485.673094322 107.292002302 485.137717938 107.292002302 483.368640868 c 0
 107.292002302 483.303025205 107.292346689 483.235712349 107.293032153 483.166666667 c 0
 107.527815976 459.517255555 107.630859375 436.118618163 107.630859375 412.8203125 c 0
 107.630859375 328.903320312 106.297851562 246.291992188 105 158 c 0
 104.987304688 157.133789062 104.98046875 156.279296875 104.98046875 155.4375 c 0
 104.98046875 145.424804688 106.0078125 137.125 111.0625 130 c 0
 131.474609375 101.231445312 163.454101562 58.6416015625 196 0 c 5
148.112917479 553.296105308 m 1
 139.516916658 553.296105308 128.128401686 555.25107028 113.254882812 559.510742188 c 0
 112.150381719 559.827122076 111.216339547 559.970021414 110.426893232 559.970021414 c 0
 106.689235439 559.970021414 106.192806685 556.766821188 106.192806685 553.605949766 c 0
 106.192806685 552.709188407 106.232764069 551.815834079 106.25 551 c 0
 106.637610405 532.57379315 106.933101069 514.373415893 107.149298223 496.333333333 c 0
 107.184455103 493.399746944 107.39947181 493.471470774 109.833332888 493.002872381 c 0
 122.163096392 490.628986944 135.469110223 488.533706964 141.883789062 488.443359375 c 0
 142.228515625 488.438476562 142.569335938 488.436523438 142.90625 488.436523438 c 0
 152.109375 488.436523438 158.482421875 490.23828125 162.100585938 493.705078125 c 0
 165.750976562 498.076171875 167.98828125 503.060546875 167.98828125 508.541992188 c 0
 167.98828125 510.358398438 167.7421875 512.229492188 167.220703125 514.151367188 c 0
 164.408606998 524.509165485 159.059975715 537.688859143 150.406317592 552.124998708 c 0
 149.803506922 553.130614928 149.765425576 553.296105308 148.112917479 553.296105308 c 1
105.556639357 600.925049166 m 1
 105.556639357 594.989992464 105.595140553 589.102870028 105.75 583 c 0
 105.756994104 582.724964814 105.760031147 582.448419251 105.760031147 582.170845462 c 0
 105.760031147 580.338265224 105.627651868 578.460866468 105.627651868 576.677400781 c 0
 105.627651868 572.092640332 106.502482121 568.12863784 112.75 567.142578125 c 0
 122.698256395 565.572077247 131.099382676 564.741463247 137.983824389 564.741463247 c 0
 138.428777601 564.741463247 138.828562613 564.73943552 139.185093101 564.73943552 c 0
 140.820386493 564.73943552 141.545704716 564.782094219 141.545704716 565.258735733 c 0
 141.545704716 565.596182807 141.182161378 566.151150352 140.520599703 567.062498641 c 0
 131.887600981 578.955068776 121.045418525 591.300051165 107.618942718 603.333331957 c 0
 106.738924888 604.122034949 106.230073989 604.546186367 105.937320558 604.546186367 c 0
 105.597448035 604.546186367 105.548833471 603.97451157 105.548833471 602.73790372 c 0
 105.548833471 602.242385158 105.556639357 601.640100398 105.556639357 600.925049166 c 1
EndSplineSet
Comment: "mensuralFusa"
EndChar

StartChar: connectingStem2ndUp
Encoding: 63 63 30
AltUni2: 00f03f.ffffffff.0
Width: 0
Flags: HMW
VStem: -3407 28
LayerCount: 2
Fore
SplineSet
-7.25 213.333007812 m 5
 -4.9130859375 214.75390625 -2.7890625 215.376953125 -0.8154296875 215.376953125 c 4
 2.333984375 215.376953125 5.1025390625 213.791015625 7.75 211.333007812 c 5
 7.75 207.166992188 l 4
 7.75 196.106445312 7.71875 182.841796875 7.71875 173.38671875 c 0
 7.71875 168.66015625 7.7265625 164.010742188 7.75 159.31640625 c 0
 7.8857421875 132.02734375 7.9775390625 103.174804688 7.9775390625 76.4052734375 c 0
 7.9775390625 53.720703125 7.9111328125 34.3466796875 7.75 11.56640625 c 0
 7.697265625 4.1005859375 7.677734375 -3.330078125 7.677734375 -10.7626953125 c 0
 7.677734375 -31.0703125 7.822265625 -44.3984375 7.822265625 -65.525390625 c 0
 7.822265625 -73.2578125 7.802734375 -78.5986328125 7.75 -86.5830078125 c 0
 7.75 -90.75 l 1
 5.8935546875 -93.654296875 2.84765625 -95.1552734375 -0.0966796875 -95.1552734375 c 0
 -2.9794921875 -95.1552734375 -5.7666015625 -93.7177734375 -7.25 -90.75 c 1
 -7.25 -83.9169921875 l 0
 -7.0078125 -74.32421875 -6.916015625 -67.080078125 -6.916015625 -57.2451171875 c 0
 -6.916015625 -44.4189453125 -7.0712890625 -38.4375 -7.25 -25.43359375 c 0
 -7.4619140625 -10.005859375 -7.5322265625 6.7763671875 -7.5322265625 26.6279296875 c 0
 -7.5322265625 66.33203125 -7.25 105.31640625 -7.25 105.31640625 c 1
 -7.25 126.416992188 -7.45703125 149.798828125 -7.45703125 171.609375 c 0
 -7.45703125 182.515625 -7.4052734375 197.028320312 -7.25 208.166992188 c 4
 -7.25 213.333007812 l 5
EndSplineSet
EndChar

StartChar: connectingStem3rdUp
Encoding: 64 64 31
AltUni2: 00f040.ffffffff.0
Width: 0
Flags: HMW
HStem: -50 27 203 18 224 29 385 24
VStem: -736 68 -587 65 -455 266 -100 28
LayerCount: 2
Fore
SplineSet
-7.654296875 165.296875 m 0
 -7.654296875 200.768554688 -7.4130859375 236.751953125 -7.4130859375 271.854492188 c 0
 -7.4130859375 289.845703125 -7.8095703125 304.061523438 -7.8095703125 322.26171875 c 0
 -7.8095703125 328.135742188 -7.6015625 333.259765625 -7.5 339.137695312 c 1
 -5.75390625 339.887695312 -3.4990234375 340.663085938 -0.44140625 340.663085938 c 0
 1.755859375 340.663085938 4.8662109375 340.262695312 7.5 338.137695312 c 1
 7.744140625 329.50390625 7.826171875 321.749023438 7.826171875 313.299804688 c 0
 7.826171875 282.543945312 7.55078125 255.39453125 7.55078125 224.5078125 c 0
 7.55078125 209.713867188 7.6845703125 194.885742188 7.6845703125 180.158203125 c 0
 7.6845703125 154.774414062 7.2333984375 129.094726562 7.2333984375 103.205078125 c 0
 7.2333984375 78.53125 7.685546875 53.318359375 7.685546875 28.91015625 c 0
 7.685546875 19.1123046875 7.6923828125 9.390625 7.6923828125 -0.267578125 c 0
 7.6923828125 -20.6484375 7.4814453125 -32.380859375 7.4814453125 -52.3564453125 c 0
 7.4814453125 -61.67578125 7.72265625 -70.732421875 7.72265625 -79.6962890625 c 0
 7.72265625 -84.85546875 7.6669921875 -86.4833984375 7.5 -91.6123046875 c 5
 5.3466796875 -92.6884765625 3.580078125 -93.25 1.921875 -93.25 c 4
 0.64453125 -93.25 -0.568359375 -93.521484375 -1.8427734375 -93.521484375 c 4
 -3.5234375 -93.521484375 -5.3125 -93.0498046875 -7.5 -90.8623046875 c 5
 -7.4638671875 -83.3232421875 -7.4521484375 -78.9404296875 -7.4521484375 -71.0234375 c 0
 -7.4521484375 -41.9853515625 -7.78125 -22.966796875 -7.78125 4.970703125 c 0
 -7.78125 24.9326171875 -7.4287109375 45.6865234375 -7.4287109375 65.884765625 c 0
 -7.4287109375 76.341796875 -7.47265625 86.8154296875 -7.47265625 97.275390625 c 0
 -7.47265625 106.444335938 -7.4296875 115.75 -7.4296875 125.146484375 c 0
 -7.4296875 138.455078125 -7.654296875 151.948242188 -7.654296875 165.296875 c 0
EndSplineSet
EndChar

StartChar: connectingStem4thUp
Encoding: 65 65 32
AltUni2: 00f041.ffffffff.0
Width: 0
Flags: HMW
HStem: -50 27 203 18 224 29 385 24
VStem: -736 68 -587 65 -455 266 -100 28
LayerCount: 2
Fore
SplineSet
-8.9111328125 331.70703125 m 4
 -8.9111328125 369.73828125 -8.939453125 400.836914062 -9.189453125 438.701171875 c 4
 -9.2001953125 440.248046875 -9.2041015625 441.794921875 -9.2041015625 443.342773438 c 4
 -9.2041015625 450.022460938 -9.1162109375 456.703125 -9 463.387695312 c 5
 -7.25390625 463.387695312 -4.9990234375 464.163085938 -1.94140625 464.163085938 c 4
 0.255859375 464.163085938 2.8662109375 463.762695312 6 462.387695312 c 5
 6.244140625 453.75390625 6.326171875 445.249023438 6.326171875 436.799804688 c 4
 6.326171875 397.486328125 6.126953125 363.028320312 6.126953125 323.798828125 c 4
 6.126953125 296.518554688 5.796875 270.53515625 5.796875 243.038085938 c 4
 5.796875 218.661132812 6.2431640625 105.54296875 6.2431640625 52.11328125 c 4
 6.2431640625 41.65625 6.2265625 33.486328125 6.185546875 28.71484375 c 4
 6.01953125 9.357421875 5.8818359375 -9.70703125 5.8818359375 -28.5595703125 c 4
 5.8818359375 -38.0439453125 5.916015625 -33.9755859375 6 -43.3623046875 c 4
 6.0966796875 -54.185546875 6.22265625 -64.6279296875 6.22265625 -74.9462890625 c 4
 6.22265625 -80.10546875 6.1669921875 -85.2333984375 6 -90.3623046875 c 5
 3.8466796875 -91.4384765625 2.080078125 -92 0.421875 -92 c 4
 -0.85546875 -92 -2.068359375 -92.271484375 -3.3427734375 -92.271484375 c 4
 -5.0234375 -92.271484375 -6.8125 -91.7998046875 -9 -89.6123046875 c 5
 -8.9638671875 -82.0732421875 -8.9521484375 -74.1904296875 -8.9521484375 -66.2734375 c 4
 -8.9521484375 -25.4345703125 -9.07421875 -1.6005859375 -9.07421875 39.0234375 c 4
 -9.07421875 58.19140625 -8.97265625 77.5078125 -8.97265625 96.775390625 c 4
 -8.97265625 113.07421875 -9.048828125 255.30078125 -9.048828125 272.20703125 c 4
 -9.048828125 292.010742188 -8.9111328125 311.8984375 -8.9111328125 331.70703125 c 4
EndSplineSet
EndChar

StartChar: connectingStem5thUp
Encoding: 66 66 33
AltUni2: 00f042.ffffffff.0
Width: 0
Flags: HMW
HStem: -50 27 203 18 224 29 385 24
VStem: -736 68 -587 65 -455 266 -100 28
LayerCount: 2
Fore
SplineSet
-7.9111328125 456.70703125 m 0
 -7.9111328125 494.73828125 -7.939453125 531.336914062 -8.189453125 569.201171875 c 0
 -8.2001953125 570.748046875 -8.2041015625 572.294921875 -8.2041015625 573.842773438 c 0
 -8.2041015625 580.522460938 -8.1162109375 587.203125 -8 593.887695312 c 1
 -6.25390625 593.887695312 -3.9990234375 594.663085938 -0.94140625 594.663085938 c 0
 1.255859375 594.663085938 3.8662109375 594.262695312 7 592.887695312 c 1
 7.244140625 584.25390625 7.326171875 575.749023438 7.326171875 567.299804688 c 0
 7.326171875 527.986328125 7.126953125 488.028320312 7.126953125 448.798828125 c 0
 7.126953125 421.518554688 6.796875 395.53515625 6.796875 368.038085938 c 0
 6.796875 343.661132812 7.2431640625 277.75390625 7.2431640625 239.780273438 c 0
 7.2431640625 232.348632812 7.2265625 225.986328125 7.185546875 221.21484375 c 0
 7.01953125 201.857421875 6.8818359375 165.088867188 6.8818359375 134.385742188 c 0
 6.8818359375 118.9375 6.916015625 105.024414062 7 95.6376953125 c 0
 7.0966796875 84.814453125 7.22265625 -66.6279296875 7.22265625 -76.9462890625 c 4
 7.22265625 -82.10546875 7.1669921875 -87.2333984375 7 -92.3623046875 c 5
 4.8466796875 -93.4384765625 3.080078125 -94 1.421875 -94 c 4
 0.14453125 -94 -1.068359375 -94.271484375 -2.3427734375 -94.271484375 c 4
 -4.0234375 -94.271484375 -5.8125 -93.7998046875 -8 -91.6123046875 c 5
 -7.9638671875 -84.0732421875 -7.9521484375 -76.1904296875 -7.9521484375 -68.2734375 c 4
 -7.9521484375 -27.4345703125 -8.07421875 83.3994140625 -8.07421875 124.0234375 c 0
 -8.07421875 143.19140625 -7.97265625 270.0078125 -7.97265625 289.275390625 c 0
 -7.97265625 305.57421875 -8.048828125 380.30078125 -8.048828125 397.20703125 c 0
 -8.048828125 417.010742188 -7.9111328125 436.8984375 -7.9111328125 456.70703125 c 0
EndSplineSet
EndChar

StartChar: stemInitialUp
Encoding: 81 81 36
AltUni2: 00f051.ffffffff.0
Width: 0
Flags: HW
VStem: -460 19
LayerCount: 2
Fore
SplineSet
-13.25 551 m 4
 -13.25 556 -9.25 559 -3.25 559 c 4
 5.75 559 12.75 556 12.75 548 c 4
 12.75 518 10.75 497 9.75 461 c 4
 5.75 364 3.75 119 3.75 -58 c 4
 3.75 -68 3.75 -78 3.75 -88 c 6
 3.75 -91.75 l 5
 1.75 -92.75 -0.25 -93 -2.25 -93 c 4
 -5.25 -93 -8.919921875 -91.162109375 -10.25 -86 c 5
 -9.25 4 -9.25 94 -9.25 200 c 4
 -9.25 315 -9.25 434 -11.25 536 c 4
 -11.25 538 -12.25 541 -12.25 543 c 4
 -12.25 545 -13.25 549 -13.25 551 c 4
EndSplineSet
EndChar

StartChar: connectingStem2ndc
Encoding: 82 82 37
AltUni2: 00f052.ffffffff.0
Width: 6
Flags: HMW
VStem: -2891.42 23.8
LayerCount: 2
Fore
SplineSet
-5.4541015625 90.3330078125 m 1
 -0.296875 94.0224609375 3.634765625 92.3310546875 7.2958984375 88.3330078125 c 1
 7.2958984375 39.81640625 l 0
 7.2958984375 -78.18359375 l 0
 7.2958984375 -214.5 l 5
 4.1728515625 -220.24609375 -2.904296875 -220.5 -5.4541015625 -214.5 c 5
 -5.4541015625 -115.18359375 l 0
 -5.4541015625 18.81640625 l 0
 -5.4541015625 90.3330078125 l 1
EndSplineSet
EndChar

StartChar: connectingStem3rdDown
Encoding: 83 83 38
AltUni2: 00f053.ffffffff.0
Width: 5
Flags: HMW
HStem: -50 27 203 18 224 29 385 24
VStem: -621.633 57.8 -494.983 55.25 -382.783 226.1 -81.0333 23.8
LayerCount: 2
Fore
SplineSet
-5.8095703125 -39 m 0
 -5.8095703125 -1 -5.8095703125 28 -5.8095703125 66 c 0
 -5.8095703125 74 -5.8095703125 82 -5.8095703125 90 c 1
 -4.109375 91 -2.41015625 91 0.140625 91 c 0
 1.83984375 91 4.390625 90 6.9404296875 89 c 1
 6.9404296875 80 6.9404296875 72 6.9404296875 64 c 0
 6.9404296875 25 6.9404296875 -8 6.9404296875 -47 c 0
 6.9404296875 -74 6.9404296875 -101 6.9404296875 -128 c 0
 6.9404296875 -157 6.9404296875 -188 6.9404296875 -217 c 0
 6.9404296875 -246 6.9404296875 -263.75 6.9404296875 -291.75 c 4
 6.9404296875 -302.75 6.9404296875 -313.75 6.9404296875 -323.75 c 4
 6.9404296875 -328.75 6.9404296875 -334.75 6.9404296875 -339.75 c 5
 5.240234375 -340.75 3.5400390625 -341.75 1.83984375 -341.75 c 4
 0.990234375 -341.75 0.140625 -341.75 -0.7099609375 -341.75 c 4
 -2.41015625 -341.75 -4.109375 -341.75 -5.8095703125 -339.75 c 5
 -5.8095703125 -331.75 -5.8095703125 -322.75 -5.8095703125 -314.75 c 4
 -5.8095703125 -273.75 -5.8095703125 -247 -5.8095703125 -206 c 0
 -5.8095703125 -187 -5.8095703125 -168 -5.8095703125 -149 c 0
 -5.8095703125 -133 -5.8095703125 -116 -5.8095703125 -99 c 0
 -5.8095703125 -79 -5.8095703125 -59 -5.8095703125 -39 c 0
EndSplineSet
EndChar

StartChar: connectingStem4thDown
Encoding: 84 84 39
AltUni2: 00f054.ffffffff.0
Width: 7
Flags: HMW
HStem: -166 79 42 89
VStem: -3 28 663 28
LayerCount: 2
Fore
SplineSet
-7 91 m 1
 -4.833984375 91.373046875 -2.4619140625 92.0283203125 0.32421875 92.0283203125 c 0
 2.5751953125 92.0283203125 5.09765625 91.6005859375 8 90.25 c 1
 8 14 l 0
 8 -111 l 0
 8 -227 l 0
 8 -376.25 l 0
 8 -454.75 l 4
 8 -463.25 l 5
 6.6201171875 -465.55078125 4.109375 -467.125 1.4443359375 -467.125 c 4
 -1.6826171875 -467.125 -5.0224609375 -464.95703125 -7 -459.25 c 5
 -7 -451.75 l 4
 -7 -353.25 l 0
 -7 -201 l 0
 -7 -79 l 0
 -7 25 l 0
 -7 91 l 1
EndSplineSet
EndChar

StartChar: connectingStem5thDown
Encoding: 85 85 40
AltUni2: 00f055.ffffffff.0
Width: 6
Flags: HMW
HStem: -2 82 293 85
VStem: 287 82
LayerCount: 2
Fore
SplineSet
-7 91.25 m 1
 -6.0751953125 91.7734375 -2.6064453125 92.5341796875 0.1875 92.5341796875 c 0
 2.453125 92.5341796875 3.7626953125 92.283203125 7 91.25 c 1
 7 -590.25 l 1
 4.986328125 -591.038085938 2.2001953125 -591.44140625 0.1083984375 -591.44140625 c 4
 -2.7998046875 -591.44140625 -4.0810546875 -591.272460938 -7 -589.25 c 1
 -7 91.25 l 1
EndSplineSet
EndChar

StartChar: connectingStem6thDown
Encoding: 86 86 41
AltUni2: 00f056.ffffffff.0
Width: 7
Flags: HW
HStem: -979 20 -695 30 1015 154
VStem: 0 67 247 20 394 44 547 40 601 80
LayerCount: 2
Fore
SplineSet
-6 89.25 m 5
 -4.6298828125 89.7802734375 -2.6279296875 90.4287109375 0.3447265625 90.4287109375 c 4
 2.396484375 90.4287109375 4.9111328125 90.1201171875 8 89.25 c 5
 8 -714.5 l 1
 5.6298828125 -716.220703125 2.474609375 -716.700195312 1.8583984375 -716.69140625 c 0
 -1.119140625 -716.646484375 -4.10546875 -716.611328125 -6 -713.25 c 1
 -6 89.25 l 5
EndSplineSet
EndChar

StartChar: connectingStem7thDown
Encoding: 87 87 42
AltUni2: 00f057.ffffffff.0
Width: 6
Flags: HMW
HStem: -127 15 111 16
VStem: -5 28 79 28 511 28 597 28
LayerCount: 2
Fore
SplineSet
-6.5 91.75 m 1
 -5.14453125 92.3505859375 -2.8134765625 93.1015625 0.1240234375 93.1015625 c 0
 2.2998046875 93.1015625 4.8076171875 92.6904296875 7.5 91.5009765625 c 1
 7.5 -830 l 1
 6.8544921875 -830.12890625 6.224609375 -830.19140625 5.6083984375 -830.19140625 c 0
 1.4501953125 -830.19140625 -2.1455078125 -827.354492188 -6.5 -823 c 1
 -6.5 91.75 l 1
EndSplineSet
EndChar

StartChar: d
Encoding: 100 100 54
AltUni2: 00f064.ffffffff.0
Width: 385
VWidth: 1500
Flags: HMW
HStem: -120 31.5G<192.75 212.25> -115.5 198
LayerCount: 2
Fore
SplineSet
364.5 645 m 1x40
 372 646.5 378 646.5 385.5 645 c 1
 385.5 -109.5 l 1
 366 -109.5 334.5 -112.5 291 -115.5 c 0x40
 253.5 -118.5 223.5 -120 201 -120 c 0x80
 184.5 -120 151.5 -118.5 103.5 -115.5 c 0
 54.5888671875 -113.114257812 22.755859375 -111.676757812 8 -111.188476562 c 0
 -2.138671875 -110.852539062 0 -109.579101562 0 -100.5 c 2
 0 71.5 l 6
 0 81.5947265625 0.33203125 88.5927734375 10.5 88.37109375 c 0
 54.7158203125 87.41015625 140.762695312 81.375 201 81.375 c 0
 244.686523438 81.375 286.287109375 86.3740234375 349.5 94.1220703125 c 0
 363.126953125 95.79296875 364.5 102.60546875 364.5 118.5 c 2
 364.5 645 l 1x40
EndSplineSet
Validated: 1
EndChar

StartChar: f
Encoding: 102 102 56
AltUni2: 00f066.ffffffff.0
Width: 648
VWidth: 1500
Flags: HMW
HStem: 348 27 621 36
VStem: -652.5 139.5 -402 363 82.5 37.5
LayerCount: 2
Fore
SplineSet
648 -112.5 m 1
 553.5 -163.5 376.5 -205.5 267 -237 c 4
 189 -259.5 100.5 -277.5 0 -300 c 1
 0 -88.5 l 1
 54 -81 139.5 -67.5 253.5 -40.5 c 0
 348 -18 478.5 24 648 99 c 1
 648 -112.5 l 1
EndSplineSet
Validated: 1
EndChar

StartChar: g
Encoding: 103 103 57
AltUni2: 00f067.ffffffff.0
Width: 792
VWidth: 1500
Flags: HW
HStem: -36 31.5G 858 30G
VStem: 13.5 109.5 99 111
LayerCount: 2
Fore
SplineSet
792 -112.5 m 1xe0
 693 -178.5 559.5 -259.049804688 343.5 -359.549804688 c 4
 238.5 -409.049804688 106.5 -445.5 0 -489 c 1
 0 -277.5 l 1
 66 -255 171 -217.5 310.5 -156 c 0
 423 -106.5 582 -27 792 99 c 1xd0
 792 -112.5 l 1xe0
EndSplineSet
Validated: 1
EndChar

StartChar: mensuralDragmaBlack
Encoding: 107 107 61
AltUni2: 00e95a.ffffffff.0 00f06b.ffffffff.0
Width: 186
VWidth: 1676
Flags: HMW
HStem: 216.266 127.412
VStem: 28.84 105.07
LayerCount: 2
Fore
SplineSet
104.969726562 720.88671875 m 1
 104.969726562 154.236328125 l 1
 186.099609375 5.029296875 l 1
 174.130859375 -11.734375 146.200195312 -58.6767578125 104.969726562 -134.118164062 c 1
 104.969726562 -714.180664062 l 1
 99.650390625 -720.88671875 93 -722.5625 86.349609375 -719.209960938 c 1
 86.349609375 -139.1484375 l 1
 73.0498046875 -108.971679688 43.7900390625 -62.029296875 -0.099609375 0 c 1
 19.849609375 33.5302734375 47.7802734375 82.1474609375 86.349609375 145.852539062 c 1
 86.349609375 715.856445312 l 1
 91.669921875 725.916015625 98.3193359375 727.592773438 104.969726562 720.88671875 c 1
EndSplineSet
EndChar

StartChar: mensuralSemibrevisObliqueBlack
Encoding: 109 109 63
AltUni2: 00e95b.ffffffff.0 00f06d.ffffffff.0
Width: 178
VWidth: 1676
Flags: HMW
HStem: 12 34G
LayerCount: 2
Fore
SplineSet
-207 -381 m 1
 -137 -255 -41 -74 82 159 c 1
 103 126 139 71 178 -5 c 1
 155 -40 127 -92 94 -163 c 1
 79 -131 56 -91 22 -33 c 0
 19 -27 17 -24 14 -24 c 0
 12 -24 10 -26 7 -31 c 0
 -27 -88 -62 -151 -100 -220 c 0
 -124 -264 -149 -311 -175 -360 c 0
 -177 -365 -180 -371 -182 -376 c 0
 -186 -383 -188 -387 -193 -394 c 1
 -195 -395 -196 -395 -198 -395 c 0
 -203 -394 l 0
 -205 -392 -207 -388 -207 -381 c 1
EndSplineSet
EndChar

StartChar: ascii6e
Encoding: 110 110 64
AltUni2: 00f06e.ffffffff.0
Width: 186
VWidth: 1676
Flags: HMW
VStem: -738.57 37.24 -551.04 37.24
LayerCount: 2
Fore
SplineSet
186.099609375 -5.029296875 m 1
 154.5859375 -74.484375 125.451171875 -118.470703125 91.099609375 -170 c 1
 103.083007812 -129.306640625 57.6279296875 -75.2236328125 -0.099609375 0 c 1
 22.888671875 28.291015625 51.587890625 71.4111328125 86.349609375 139.1484375 c 1
 88.8876953125 270.69921875 93.158203125 383.802734375 87.654296875 561.827148438 c 1
 62.52734375 552.982421875 45.2685546875 550.989257812 35.904296875 554.170898438 c 0
 22.5224609375 558.955078125 15.6787109375 570.565429688 15.345703125 590.681640625 c 0
 15.0673828125 607.443359375 20.1083984375 624.303710938 30.46875 641.26171875 c 0
 54.884765625 681.575195312 75.8515625 708.287109375 93.544921875 720.5 c 0
 101.793945312 726.194335938 104.639648438 720.551757812 104.91796875 715.5 c 0
 107.922851562 661.024414062 108.689453125 575.153320312 108.689453125 575.153320312 c 1
 120.602539062 578.2265625 138.212890625 585.140625 147.466796875 588.665039062 c 1
 142.553710938 585.6640625 125.921875 576.82421875 108.7734375 568.875 c 1
 113.216796875 365.330078125 107.137695312 259.387695312 104.969726562 137.118164062 c 1
 133.703125 100.336914062 164.98828125 50.1396484375 186.099609375 -5.029296875 c 1
87.78125 569.782226562 m 1
 86.92578125 601.866210938 86.0419921875 645.319335938 84.291015625 663.499023438 c 0
 83.529296875 671.41015625 81.0185546875 673.533203125 77.3251953125 670.166992188 c 0
 68.9208984375 662.508789062 64.8779296875 658.010742188 58.283203125 650.228515625 c 0
 40.9501953125 629.771484375 29.611328125 612.740234375 28.4765625 600.982421875 c 0
 27.369140625 587.547851562 30.1953125 577.5390625 36.9560546875 570.956054688 c 0
 43.744140625 562.698242188 61.2685546875 564.265625 87.78125 569.782226562 c 1
EndSplineSet
EndChar

StartChar: p
Encoding: 112 112 66
AltUni2: 00f070.ffffffff.0
Width: 186
VWidth: 1676
Flags: HMW
HStem: -281.649 35.2061 -35.2061 85.5005 410.738 50.2944
VStem: -165.34 214.13 282.87 78.47
LayerCount: 2
Fore
SplineSet
186.099609375 5.029296875 m 1
 174.130859375 -11.734375 146.200195312 -58.6767578125 104.969726562 -134.118164062 c 1
 104.969726562 -568.326171875 l 1
 116.940429688 -573.35546875 127.580078125 -578.384765625 136.890625 -583.416015625 c 0
 132.900390625 -581.73828125 122.259765625 -578.384765625 104.969726562 -573.35546875 c 1
 104.969726562 -725.916015625 l 1
 85.01953125 -719.209960938 61.080078125 -690.708984375 30.490234375 -642.092773438 c 0
 19.849609375 -625.327148438 14.5302734375 -608.5625 14.5302734375 -591.797851562 c 0
 14.5302734375 -571.678710938 21.1806640625 -559.944335938 34.48046875 -554.915039062 c 0
 43.7900390625 -551.5625 61.080078125 -553.23828125 86.349609375 -561.620117188 c 1
 86.349609375 -139.1484375 l 1
 73.0498046875 -108.971679688 43.7900390625 -62.029296875 -0.099609375 0 c 1
 21.1806640625 38.5595703125 54.4306640625 92.20703125 98.3193359375 164.295898438 c 1
 186.099609375 5.029296875 l 1
86.349609375 -675.622070312 m 1
 86.349609375 -568.326171875 l 1
 59.75 -563.296875 42.4599609375 -563.296875 35.8095703125 -570.002929688 c 0
 29.16015625 -578.384765625 26.5 -588.444335938 27.830078125 -601.856445312 c 0
 30.490234375 -618.62109375 50.4404296875 -643.768554688 86.349609375 -675.622070312 c 1
EndSplineSet
EndChar

StartChar: q
Encoding: 113 113 67
AltUni2: 00f071.ffffffff.0
Width: 186
VWidth: 1676
Flags: HMW
HStem: -1.67648 33.5296G
VStem: 399.91 25.27
LayerCount: 2
Fore
SplineSet
86.349609375 -570.002929688 m 1
 59.75 -564.97265625 42.4599609375 -564.97265625 35.8095703125 -571.678710938 c 0
 29.16015625 -580.0625 26.5 -590.12109375 27.830078125 -603.533203125 c 0
 30.490234375 -620.297851562 50.4404296875 -645.4453125 86.349609375 -677.297851562 c 1
 86.349609375 -570.002929688 l 1
30.490234375 -643.768554688 m 0
 19.849609375 -627.00390625 14.5302734375 -610.239257812 14.5302734375 -593.474609375 c 0
 14.5302734375 -573.35546875 21.1806640625 -561.620117188 34.48046875 -556.590820312 c 0
 43.7900390625 -553.23828125 61.080078125 -554.915039062 86.349609375 -563.296875 c 1
 86.349609375 -139.1484375 l 1
 73.0498046875 -108.971679688 43.7900390625 -62.029296875 -0.099609375 0 c 1
 19.849609375 33.5302734375 47.7802734375 82.1474609375 86.349609375 145.852539062 c 1
 86.349609375 715.856445312 l 1
 91.669921875 725.916015625 98.3193359375 727.592773438 104.969726562 720.88671875 c 1
 104.969726562 154.236328125 l 1
 186.099609375 5.029296875 l 1
 174.130859375 -11.734375 146.200195312 -58.6767578125 104.969726562 -134.118164062 c 1
 104.969726562 -570.002929688 l 1
 116.940429688 -575.032226562 127.580078125 -580.0625 136.890625 -585.091796875 c 0
 132.900390625 -583.416015625 122.259765625 -580.0625 104.969726562 -575.032226562 c 1
 104.969726562 -729.268554688 l 1
 89.009765625 -727.592773438 63.740234375 -699.090820312 30.490234375 -643.768554688 c 0
EndSplineSet
EndChar

StartChar: r
Encoding: 114 114 68
AltUni2: 00f072.ffffffff.0
Width: 186
VWidth: 1676
Flags: HMW
VStem: -229.18 33.25
LayerCount: 2
Fore
SplineSet
99.650390625 -570.002929688 m 1
 99.650390625 -677.297851562 l 1
 135.559570312 -645.4453125 155.509765625 -620.297851562 158.169921875 -603.533203125 c 0
 159.5 -590.12109375 156.83984375 -580.0625 150.190429688 -571.678710938 c 0
 143.540039062 -564.97265625 126.25 -564.97265625 99.650390625 -570.002929688 c 1
155.509765625 -643.768554688 m 0
 122.259765625 -699.090820312 96.990234375 -727.592773438 81.0302734375 -729.268554688 c 1
 81.0302734375 -575.032226562 l 1
 63.740234375 -580.0625 53.099609375 -583.416015625 49.109375 -585.091796875 c 0
 58.419921875 -580.0625 69.0595703125 -575.032226562 81.0302734375 -570.002929688 c 1
 81.0302734375 -134.118164062 l 1
 39.7998046875 -58.6767578125 11.8701171875 -11.734375 -0.099609375 5.029296875 c 1
 81.0302734375 154.236328125 l 1
 81.0302734375 720.88671875 l 1
 87.6806640625 727.592773438 94.330078125 725.916015625 99.650390625 715.856445312 c 1
 99.650390625 145.852539062 l 1
 138.219726562 82.1474609375 166.150390625 33.5302734375 186.099609375 0 c 1
 142.209960938 -62.029296875 112.950195312 -108.971679688 99.650390625 -139.1484375 c 1
 99.650390625 -563.296875 l 1
 124.919921875 -554.915039062 142.209960938 -553.23828125 151.51953125 -556.590820312 c 0
 164.819335938 -561.620117188 171.469726562 -573.35546875 171.469726562 -593.474609375 c 0
 171.469726562 -610.239257812 166.150390625 -627.00390625 155.509765625 -643.768554688 c 0
EndSplineSet
EndChar

StartChar: s
Encoding: 115 115 69
AltUni2: 00f073.ffffffff.0
Width: 186
VWidth: 1676
Flags: HMW
HStem: -51.9709 174.354 290.031 165.972
VStem: 63.42 75.81 199.08 78.47
LayerCount: 2
Fore
SplineSet
186.099609375 0 m 1
 163.490234375 -30.177734375 135.559570312 -77.1171875 99.650390625 -139.1484375 c 1
 99.650390625 -563.296875 l 1
 124.919921875 -554.915039062 142.209960938 -553.23828125 151.51953125 -556.590820312 c 0
 164.819335938 -561.620117188 171.469726562 -573.35546875 171.469726562 -593.474609375 c 0
 171.469726562 -610.239257812 166.150390625 -627.00390625 155.509765625 -643.768554688 c 0
 122.259765625 -699.090820312 96.990234375 -727.592773438 81.0302734375 -729.268554688 c 1
 81.0302734375 -575.032226562 l 1
 69.0595703125 -578.384765625 58.419921875 -581.73828125 49.109375 -585.091796875 c 0
 53.099609375 -583.416015625 63.740234375 -578.384765625 81.0302734375 -570.002929688 c 1
 81.0302734375 -134.118164062 l 1
 65.0693359375 -102.265625 38.4697265625 -57.0009765625 -0.099609375 5.029296875 c 1
 13.2001953125 28.4990234375 39.7998046875 75.44140625 81.0302734375 144.176757812 c 1
 81.0302734375 570.002929688 l 1
 69.0595703125 575.032226562 58.419921875 580.0625 49.109375 585.091796875 c 0
 53.099609375 583.416015625 63.740234375 580.0625 81.0302734375 575.032226562 c 1
 81.0302734375 729.268554688 l 1
 96.990234375 727.592773438 122.259765625 699.090820312 155.509765625 643.768554688 c 0
 166.150390625 627.00390625 171.469726562 610.239257812 171.469726562 593.474609375 c 0
 171.469726562 573.35546875 164.819335938 561.620117188 151.51953125 556.590820312 c 0
 142.209960938 553.23828125 124.919921875 554.915039062 99.650390625 563.296875 c 1
 99.650390625 139.1484375 l 1
 118.26953125 107.294921875 147.530273438 62.029296875 186.099609375 0 c 1
158.169921875 613.591796875 m 0
 155.509765625 630.35546875 135.559570312 655.50390625 99.650390625 687.356445312 c 1
 99.650390625 580.0625 l 1
 126.25 575.032226562 143.540039062 575.032226562 150.190429688 581.73828125 c 0
 156.83984375 590.12109375 159.5 600.180664062 158.169921875 613.591796875 c 0
158.169921875 -603.533203125 m 0
 159.5 -590.12109375 156.83984375 -580.0625 150.190429688 -573.35546875 c 0
 143.540039062 -564.97265625 126.25 -564.97265625 99.650390625 -570.002929688 c 1
 99.650390625 -677.297851562 l 1
 110.290039062 -668.916015625 119.599609375 -658.857421875 127.580078125 -650.474609375 c 0
 146.200195312 -630.35546875 156.83984375 -615.267578125 158.169921875 -603.533203125 c 0
EndSplineSet
EndChar

StartChar: u
Encoding: 117 117 71
AltUni2: 00f075.ffffffff.0
Width: 208
VWidth: 1567
Flags: MW
HStem: -390 42 38 216 351 36
VStem: -6 177 537 99
LayerCount: 2
Fore
SplineSet
208 -21 m 0
 208 -44 210 -65 210 -92 c 0
 210 -102 201 -104 188 -104 c 0
 167 -104 134 -101 108 -101 c 0
 96 -101 86 -100 74 -100 c 0
 71 -100 68 -100 64 -100 c 0
 42 -100 19 -100 9 -103 c 0
 6 -104 4 -105 4 -105 c 0
 3 -105 l 0
 -2 -105 -2 -101 -2 -93 c 0
 -2 -93 -2 -92 -2 -91 c 0
 -2 -60 0 -31 0 1 c 0
 0 28 -1 63 -2 92 c 0
 -2 93 l 0
 -2 99 0 101 5 101 c 0
 6 101 10 101 13 100 c 0
 28 97 58 98 103 97 c 0
 120 97 139 96 156 96 c 0
 168 96 179 96 190 97 c 0
 191 97 197 99 198 99 c 0
 209 99 209 91 209 83 c 0
 209 76 209 70 209 63 c 0
 209 36 208 8 208 -21 c 0
EndSplineSet
EndChar

StartChar: pesInitialSmallBlack
Encoding: 118 118 72
AltUni2: 00f076.ffffffff.0
Width: 208
Flags: HMW
HStem: -390 42 38 216 351 36
VStem: -6 177 537 99
LayerCount: 2
Fore
SplineSet
208 -45 m 0
 208 -60 209 -79 209 -97 c 0
 209 -103 203 -105 192 -105 c 0
 168.849609375 -105 150.63671875 -104.224609375 123 -104 c 0
 102.908203125 -103.836914062 85.2275390625 -103.485351562 60.1064453125 -103.485351562 c 0
 37 -103.485351562 19.2646484375 -105 6 -105 c 0
 5 -105 4 -105 3 -105 c 0
 -2 -105 -2 -102 -2 -97 c 0
 -2 -97 -2 -97 -2 -96 c 0
 -2 -76 0 -58.75 0 -37.75 c 0
 0 -19.75 -1 1 -2 20 c 0
 -2 25 0 28 5 30 c 0
 15 33 41 37 73 38 c 0
 79 38 84 38 89 38 c 0
 93 38 98 38 101 38 c 0
 118 38 139 38 151 37 c 0
 167 36 186 35 198 33 c 0
 209 31 209 27 209 22 c 0
 209 17 209 14 209 9 c 0
 209 -9 208 -26 208 -45 c 0
EndSplineSet
EndChar

StartChar: w
Encoding: 119 119 73
AltUni2: 00f077.ffffffff.0
Width: 194
Flags: MW
HStem: -125 15 113 16
VStem: 53 99 306 95
LayerCount: 2
Fore
SplineSet
0 427 m 6
 0 431 2 433 7 433 c 4
 12 432 14 430 14 427 c 6
 14 47.6666666667 l 6
 14 36.1083321892 15.2186693829 36.7220077174 25.3333333333 35.5538262335 c 4
 45.629238409 33.2097740114 67.4789212993 31.9765011044 90.8823820042 31.9765011044 c 4
 122.43134833 31.9765011044 156.803887662 34.2176426994 194 39 c 5
 194 -65.5 l 6
 194 -66.2236356537 194.00505292 -66.9025955393 194.00505292 -67.5384646381 c 4
 194.00505292 -72.5507385565 193.691091276 -74.8855796928 188.113527363 -75.319280605 c 4
 158.705002706 -77.6060323428 130.967854908 -78.5007301785 104.182589243 -78.5007301785 c 4
 70.3462594595 -78.5007301785 38.0289296178 -77.0729841243 5.78019405459 -75.2200956913 c 4
 0.600829322753 -74.922509295 -0.0928569544232 -72.622203842 -0.0928569544232 -68.6951772452 c 4
 -0.0928569544232 -67.2583997769 -4.99600361081e-16 -65.6038691598 0 -63.75 c 6
 0 427 l 6
EndSplineSet
Validated: 1
EndChar

StartChar: obliqueDescLowered2ndBlack
Encoding: 144 234 89
AltUni2: 00f090.ffffffff.0
Width: 407
Flags: HMW
HStem: -911 34 1340 209
VStem: 0 51 155 46
LayerCount: 2
Fore
SplineSet
405.248046875 -124.836914062 m 0
 388.248046875 -114.045898438 368.943359375 -100.439453125 350.66796875 -88.33203125 c 0
 328.324912164 -73.5297861098 297.2734375 -52.44921875 271.25 -37.8232421875 c 4
 238.788471646 -19.578859489 206.75 -5.3408203125 167.25 5.662109375 c 0
 137.126953125 14.052734375 103.25 22.33203125 72.25 27.4501953125 c 0
 50.203125 31.08984375 27.26953125 32.3349609375 2.25 32.5849609375 c 0
 -1.75 32.625 -1.75 33.5625 -1.75 39.4306640625 c 2
 -1.75 213.46484375 l 2
 -1.75 214.443359375 -0.75 214.443359375 0.25 214.443359375 c 0
 26.25 213.46484375 52.1337890625 212.251953125 75.25 209.552734375 c 0
 114.358398438 204.986328125 149.184191891 196.127042542 174.25 189.526367188 c 0
 200.25 182.6796875 238.090820312 167.734375 265.33203125 154.334960938 c 0
 305.525390625 134.564453125 356.483843526 102.355461615 393.248046875 71.2548828125 c 0
 399.067382812 66.33203125 407.248046875 61.005859375 407.248046875 53.8134765625 c 0
 407.248046875 52.8349609375 407.248046875 47.7001953125 407.248046875 46.72265625 c 0
 407.248046875 42.810546875 407.248046875 31.748046875 407.248046875 4.36328125 c 0
 407.248046875 -34.755859375 407.248046875 -93.541015625 407.248046875 -115.056640625 c 0
 407.248046875 -119.947265625 407.248046875 -121.90234375 407.248046875 -123.858398438 c 0
 407.248046875 -124.587890625 406.721679688 -125.091796875 406.065429688 -125.091796875 c 0
 405.805664062 -125.091796875 405.524573831 -125.012443869 405.248046875 -124.836914062 c 0
EndSplineSet
EndChar

StartChar: obliqueDescLowered3rdBlack
Encoding: 145 235 90
AltUni2: 00f091.ffffffff.0
Width: 405
Flags: HMW
HStem: -911 34 1340 209
VStem: 0 51 155 46
LayerCount: 2
Fore
SplineSet
405 -124.834960938 m 1
 383 -103.4453125 368.038085938 -86.263671875 350.75 -68.7919921875 c 0
 312.779034376 -30.4177874788 261.138671875 17.1005859375 219.25 51.9384765625 c 0
 193.337890625 73.4892578125 167.850286168 90.3518934987 127.25 111.465820312 c 0
 88.7352917689 131.495155265 45.0625 146.907226562 0 158.612304688 c 1
 0 339.748046875 l 1
 49.6748046875 326.5859375 96.7912639553 314.174308524 140 289.813476562 c 0
 232.445890934 237.693025451 306.309570312 175.227539062 390 83.3583984375 c 0
 396.708007812 75.9951171875 405 65.5263671875 405 48.98828125 c 2
 405 -124.834960938 l 1
EndSplineSet
EndChar

StartChar: obliqueDescLowered4thBlack
Encoding: 146 237 91
AltUni2: 00f092.ffffffff.0
Width: 538
Flags: HMW
HStem: -45.4289 40.3193
LayerCount: 2
Fore
SplineSet
0 468.620117188 m 1
 91.9248046875 440.704101562 206.186482464 380.908493734 319.5 290.055664062 c 0
 425.542152515 205.032889816 487.115922928 128.905292228 538 55.5400390625 c 1
 538 -125.120117188 l 5
 483.801620722 -50.5415692329 399.608072195 38.4085843775 295.5 118.75 c 0
 214.458624645 181.29057618 146.572265625 226.0703125 0 287.959960938 c 1
 0 468.620117188 l 1
EndSplineSet
EndChar

StartChar: obliqueDescLowered5thBlack
Encoding: 147 236 92
AltUni2: 00f093.ffffffff.0
Width: 676
Flags: HMW
HStem: -72.445 22.86 -7.675 100.33 177.745 100.33 319.985 22.86
VStem: 1 31 217 68
LayerCount: 2
Fore
SplineSet
0 587.77734375 m 1
 63.9638671875 576.873046875 108.47377352 562.395702491 207.870117188 510.75 c 0
 302.811153412 461.419246674 411.43828391 372.234928182 472.209960938 315.5 c 0
 567.679997444 226.37154527 627.516969586 152.845698518 676 54.2353515625 c 1
 676 -124.834960938 l 1
 594.989550979 -9.51972805073 493.893554688 91.1875 377.5 185.25 c 4
 257.319335938 282.373046875 136.216119125 355.416253626 0 408.70703125 c 1
 0 587.77734375 l 1
EndSplineSet
EndChar

StartChar: inprogress1
Encoding: 148 238 93
AltUni2: 00f094.ffffffff.0
Width: 668
Flags: MW
HStem: -75 21G<668 668> 679 20G<0 0>
LayerCount: 2
Fore
SplineSet
668 -75 m 1
 562 -10 373 126 266 241 c 4
 163 351 99 455 0 558 c 1
 0 699 l 1
 115 580 187 507 266 418 c 0
 366 305 439 213 668 65 c 1
 668 -75 l 1
EndSplineSet
Validated: 1
EndChar

StartChar: inprogress2
Encoding: 149 239 94
AltUni2: 00f095.ffffffff.0
Width: 764
Flags: MW
HStem: -75 21G<764 764> 804 20G<0 0>
LayerCount: 2
Fore
SplineSet
764 -75 m 1
 643 4 434 181 308 316 c 4
 190 443 114 562 0 683 c 1
 0 824 l 1
 132 684 209 590 304 487 c 0
 423 359 509 267 764 65 c 1
 764 -75 l 1
EndSplineSet
Validated: 1
EndChar

StartChar: inprogress3
Encoding: 150 241 95
AltUni2: 00f096.ffffffff.0
Width: 868
Flags: MW
HStem: 0 21G
LayerCount: 2
Fore
SplineSet
868 -75 m 1
 730 18 474 225 344 377 c 0
 214 529 126 650 0 808 c 1
 0 949 l 1
 150 778 236 676 339 552 c 4
 470 394 613 259 868 66 c 1
 868 -75 l 1
EndSplineSet
Validated: 1
EndChar

StartChar: inprogress4
Encoding: 151 243 96
AltUni2: 00f097.ffffffff.0
Width: 968
Flags: MW
HStem: -75 21G<968 968> 1054 20G<0 0>
LayerCount: 2
Fore
SplineSet
968 -75 m 1
 814 35 595.53125 225.686523438 393 447 c 0
 231.489381205 623.488697656 144 761 0 933 c 1
 0 1074 l 1
 170 876 265 763 385 623 c 0
 538 446 662 326 968 66 c 1
 968 -75 l 1
EndSplineSet
Validated: 1
EndChar

StartChar: porrectusOblique2ndCrushedBlack
Encoding: 152 242 97
AltUni2: 00f098.ffffffff.0
Width: 475
Flags: HMW
HStem: -75 21G<475 475> 179 20G<0 0>
LayerCount: 2
Fore
SplineSet
475 -179 m 1
 383 -179 285 -120 219 -80 c 0
 149 -38 88 14 0 31 c 1
 0 214 l 1
 86 208 209 107 262 76 c 0
 339 31 369 0 475 0 c 1
 475 -179 l 1
EndSplineSet
EndChar

StartChar: porrectusOblique3rdCrushedBlack
Encoding: 153 244 98
AltUni2: 00f099.ffffffff.0
Width: 405
Flags: HMW
HStem: -911 34 1340 209
VStem: 0 51 155 46
LayerCount: 2
Fore
SplineSet
405 -103.876953125 m 1
 383 -83.4873046875 369.190429688 -68.8203125 350.75 -52.833984375 c 4
 304.330078125 -12.5927734375 266.779296875 17.185546875 219.25 50.4384765625 c 0
 191.635742188 69.7587890625 167.291015625 85.84375 127.25 108.715820312 c 0
 89.0283203125 130.548828125 45.0625 144.157226562 0 155.862304688 c 1
 0 336.998046875 l 1
 49.6748046875 323.8359375 95.263671875 308.490234375 140 287.063476562 c 0
 239.111328125 239.591796875 301.41015625 173.510742188 390 95.31640625 c 0
 397.467773438 88.7255859375 405 86.484375 405 69.9462890625 c 2
 405 -103.876953125 l 1
EndSplineSet
EndChar

StartChar: porrectusObl4thCrushedBlack
Encoding: 154 246 99
AltUni2: 00f09a.ffffffff.0
Width: 538
Flags: W
HStem: 429 20G<0 0>
LayerCount: 2
Fore
SplineSet
538 -75 m 1
 535.224288333 -75.0834800501 532.460772274 -75.1247110302 529.709406372 -75.1247110302 c 0
 400.627315189 -75.1247110302 286.88671875 7.41796875 213 90 c 4
 136.05078125 176.00390625 96.643370375 241.846507777 0 308 c 1
 0 449 l 1
 112.723489713 375.692305357 172.792421479 286.730933225 229 225 c 0
 301.190893857 145.715117686 393.010952072 45.2961760559 493.94031695 45.2961760559 c 0
 508.522889366 45.2961760559 523.229570098 47.6977943941 538 53 c 1
 538 28.3333333333 538.444444444 -9.66666666667 538.444444444 -39.3703703704 c 0
 538.444444444 -54.2222222222 538.333333333 -67 538 -75 c 1
EndSplineSet
Validated: 1
EndChar

StartChar: porrectusObl5thCrushedBlack
Encoding: 155 245 100
AltUni2: 00f09b.ffffffff.0
Width: 550
Flags: MW
HStem: 554 20G<0 0>
LayerCount: 2
Fore
SplineSet
550 -75 m 1
 547.747756944 -75.0462789669 545.501701146 -75.0692367347 543.261920708 -75.0692367347 c 0
 400.309581219 -75.0692367347 279.180776286 15.7795019336 214 111 c 0
 138.600652588 221.148479714 77.4041290283 348.437158564 0 433 c 1
 0 574 l 1
 99.763671875 462.980041467 146.481552492 382.368038435 202 297 c 0
 288.96221571 163.282396097 360.828244734 47.2213587159 501.095492854 47.2213587159 c 0
 516.324134052 47.2213587159 532.567396829 48.4536647054 550 51 c 1
 550 -75 l 1
EndSplineSet
Validated: 1
EndChar

StartChar: porrectusObl6thCrushedBlack
Encoding: 156 250 101
AltUni2: 00f09c.ffffffff.0
Width: 668
Flags: MW
HStem: -75 21G<668 668> 679 20G<0 0>
LayerCount: 2
Fore
SplineSet
668 -75 m 1
 433 -40 368 40 271 163 c 4
 178 281 87 444 0 558 c 1
 0 699 l 1
 118 562 194 443 266 348 c 0
 352 233 494.822021484 41.9413724039 668 65 c 1
 668 -75 l 1
EndSplineSet
Validated: 33
EndChar

StartChar: porrectusObl7thCrushedBlack
Encoding: 157 249 102
AltUni2: 00f09d.ffffffff.0
Width: 764
Flags: MW
HStem: -75 21G<764 764> 804 20G<0 0>
LayerCount: 2
Fore
SplineSet
764 -75 m 1
 552 -38 421 44 313 188 c 0
 211 324 99 540 0 683 c 1
 0 824 l 1
 132 684 221 507 304 387 c 0
 402 246 594.967662811 52.0110877223 764 54 c 5
 764 -75 l 1
EndSplineSet
Validated: 33
EndChar

StartChar: porrectusOblOctCrushedBlack
Encoding: 158 251 103
AltUni2: 00f09e.ffffffff.0
Width: 868
Flags: MW
HStem: 929 20G<0 0>
LayerCount: 2
Fore
SplineSet
868 -75 m 5
 864.174711492 -75.0921756267 860.366887695 -75.1378573592 856.576466972 -75.1378573592 c 0
 613.63654099 -75.1378573592 442.187212675 112.51946713 326 274 c 4
 211 434 126 636 0 808 c 5
 0 949 l 5
 146 771 266 588 345 447 c 4
 443 271 635.008292242 62.3072822227 868 52 c 5
 868 -75 l 5
EndSplineSet
Validated: 1
EndChar

StartChar: obliqueDesc6thBlack
Encoding: 164 167 108
AltUni2: 00f0a4.ffffffff.0
Width: 668
Flags: MW
HStem: 0 13 166 17 211 114
VStem: 2 75 175 63
LayerCount: 2
Fore
SplineSet
0 699 m 1
 143 611 274 510 394 397 c 0
 507 290 599 180 668 66 c 1
 668 -75 l 1
 589 53 497 165 391 261 c 0
 291 352 161 451 0 558 c 1
 0 699 l 1
EndSplineSet
Validated: 1
EndChar

StartChar: obliqueDesc7thBlack
Encoding: 165 8226 109
AltUni2: 00f0a5.ffffffff.0
Width: 764
Flags: MW
HStem: 0 18 310 17
VStem: 0 31 232 32
LayerCount: 2
Fore
SplineSet
0 824 m 1
 65 782 139 727 222 660 c 0
 313 587 389 519 451 456 c 0
 600 304 705 174 764 66 c 1
 764 -75 l 1
 679 52 577 175 458 292 c 0
 321 427 168 557 0 683 c 1
 0 824 l 1
EndSplineSet
Validated: 1
EndChar

StartChar: obliqueDescOctBlack
Encoding: 166 182 110
AltUni2: 00f0a6.ffffffff.0
Width: 868
Flags: MW
HStem: 262 25
LayerCount: 2
Fore
SplineSet
0 949 m 1
 68 908 153 846 255 761 c 0
 352 680 439 600 516 521 c 0
 691 344 808 192 868 66 c 1
 868 -75 l 1
 758 79 643 220 523 347 c 0
 386 493 211 647 0 808 c 1
 0 949 l 1
EndSplineSet
Validated: 1
EndChar

StartChar: obliqueDesc9thBlack
Encoding: 167 223 111
AltUni2: 00f0a7.ffffffff.0
Width: 968
Flags: MW
HStem: -28 31 225 18 244 31 407 24
LayerCount: 2
Fore
SplineSet
0 1074 m 1
 261 879 452 717 574 586 c 0
 684 468 766 373 821 302 c 0
 880 225 929 146 968 66 c 1
 968 -75 l 1
 877 74 747 239 578 421 c 0
 420 591 227 762 0 933 c 1
 0 1074 l 1
EndSplineSet
Validated: 1
EndChar

StartChar: registered
Encoding: 168 174 112
AltUni2: 00f0a8.ffffffff.0
Width: 128
Flags: MW
HStem: -707 150 -454 150 -201 150
VStem: -1386 137
LayerCount: 2
Fore
SplineSet
107.5 -19.4482421875 m 6
 107.5 14.4404296875 l 6
 107.5 25.3447265625 104.557617188 33.900390625 97.58203125 37.1064453125 c 4
 86.7607421875 42.080078125 75.185546875 44.85546875 63.673828125 44.85546875 c 4
 53.0146484375 44.85546875 42.4091796875 42.4765625 32.505859375 37.259765625 c 4
 25.544921875 33.59375 20.5 23.9267578125 20.5 12.177734375 c 6
 20.5 -20.33984375 l 6
 20.5 -34.498046875 31.7099609375 -37.3369140625 41.2119140625 -38.5390625 c 4
 49.09765625 -39.537109375 56.5341796875 -40.0654296875 64.0595703125 -40.0654296875 c 4
 71.5322265625 -40.0654296875 79.091796875 -39.5439453125 87.263671875 -38.44140625 c 4
 97.30859375 -37.0859375 107.5 -32.9794921875 107.5 -19.4482421875 c 6
128 -76 m 1
 108 -63 87 -60 71 -60 c 0
 51 -60 20 -63 0 -76 c 1
 0 59 l 1
 17.3286780215 73.3580475035 39.8050660196 79.6268364722 62.574578485 79.6268364722 c 0
 82.5888924184 79.6268364722 102.829684352 74.7833554564 119.999998806 66.3327517301 c 0
 125.569005949 63.591889142 128 58.3935546875 128 52.0869140625 c 2
 128 -76 l 1
EndSplineSet
Validated: 1
EndChar

StartChar: copyright
Encoding: 169 169 113
AltUni2: 00f0a9.ffffffff.0
Width: 128
Flags: MW
VStem: 130 19
LayerCount: 2
Fore
SplineSet
107.5 -16.9482421875 m 6
 107.5 16.9404296875 l 6
 107.5 27.8447265625 104.557617188 36.400390625 97.58203125 39.6064453125 c 4
 86.7607421875 44.580078125 75.185546875 47.35546875 63.673828125 47.35546875 c 4
 53.0146484375 47.35546875 42.4091796875 44.9765625 32.505859375 39.759765625 c 4
 25.544921875 36.09375 20.5 26.4267578125 20.5 14.677734375 c 6
 20.5 -17.83984375 l 6
 20.5 -31.998046875 31.7099609375 -34.8369140625 41.2119140625 -36.0390625 c 4
 49.09765625 -37.037109375 56.5341796875 -37.5654296875 64.0595703125 -37.5654296875 c 4
 71.5322265625 -37.5654296875 79.091796875 -37.0439453125 87.263671875 -35.94140625 c 4
 97.30859375 -34.5859375 107.5 -30.4794921875 107.5 -16.9482421875 c 6
128 -32 m 1
 128 -70 l 1
 128 -176 l 1
 125.404269126 -179.114877049 122.808538252 -180.882190343 120.352723892 -180.882190343 c 0
 118.078051003 -180.882190343 115.923415301 -179.365976777 114 -176 c 1
 114 -78.3544921875 l 2
 114 -65.091796875 107.689193323 -62.2525303418 98.6666672248 -58.9372464636 c 0
 88.4131593791 -55.1696442547 77.9047931367 -53 70 -53 c 0
 50 -53 20 -57 0 -70 c 1
 0 57 l 1
 33.1052631579 72.2105263158 49.3984375 73.5107421875 68.220703125 73.5107421875 c 0
 93.2880859375 73.5107421875 107.374639524 68.4585335979 128 57 c 1
 128 -32 l 1
EndSplineSet
Validated: 1
EndChar

StartChar: mensuralLongaWhite
Encoding: 170 8482 114
AltUni2: 00f0aa.ffffffff.0 00e95d.ffffffff.0
Width: 192
VWidth: 1567
Flags: HMW
HStem: -509.39 113.05 -113.05 109.06
VStem: 385.7 109.06
LayerCount: 2
Fore
SplineSet
13.15625 -97.375 m 1048
170.689453125 27.734375 m 4
 170.689453125 31.5732421875 170.689453125 35.4111328125 170.689453125 39.25 c 4
 170.689453125 43.7265625 165.814453125 52.919921875 155.735351562 52.919921875 c 4
 135.211914062 52.919921875 111.836914062 52.31640625 89.5185546875 52.31640625 c 4
 66.30078125 52.31640625 48.408203125 54.1455078125 32.9921875 54.1455078125 c 4
 28.98046875 54.1455078125 25.3740234375 54.08984375 22.306640625 53.9482421875 c 4
 18.453125 53.9482421875 16.912109375 52.669921875 16.912109375 48.830078125 c 4
 17.68359375 31.55859375 18.453125 17.4736328125 18.453125 1.4814453125 c 0
 18.453125 -17.068359375 16.912109375 -26.9267578125 16.912109375 -45.478515625 c 0
 16.912109375 -46.2626953125 16.9013671875 -47.03125 16.9013671875 -47.76953125 c 0
 16.9013671875 -51.5703125 17.19140625 -54.5439453125 20.765625 -54.5439453125 c 0
 23.1884765625 -54.5439453125 26.1044921875 -53.8603515625 29.375 -53.6962890625 c 0
 45.208984375 -52.9013671875 69.490234375 -52.5400390625 87.6015625 -52.5400390625 c 0
 106.09375 -52.5400390625 141.41015625 -54.154296875 156.049804688 -54.654296875 c 0
 156.778320312 -54.6787109375 157.482421875 -54.6923828125 158.16015625 -54.6923828125 c 0
 166.079101562 -54.6923828125 170.497070312 -52.919921875 170.497070312 -47.6171875 c 0
 170.497070312 -26.4853515625 170.689453125 5.4150390625 170.689453125 27.734375 c 4
180.737304688 -560.393554688 m 0
 171.237304688 -560.393554688 170.287109375 -554.526367188 170.287109375 -545.723632812 c 0
 170.287109375 -543.767578125 173.137695312 -527.141601562 174.087890625 -511.494140625 c 0
 175.987304688 -474.330078125 176.9375 -429.341796875 176.9375 -368.706054688 c 0
 176.9375 -341.322265625 176.9375 -309.047851562 176.9375 -269.927734375 c 0
 176.9375 -196.578125 174.803126019 -143.899068836 174.387695312 -120.293945312 c 0
 174.059755963 -101.66015456 175.269246819 -96.06404317 163 -93.5 c 0
 152.205901457 -91.2442352368 134.126834939 -89.6375803941 91.8213416843 -89.6375803941 c 0
 91.6148706013 -89.6375803941 91.4078224672 -89.6376186631 91.2001953125 -89.6376953125 c 0
 66.2462850158 -89.6469075079 41.3603995128 -90.3565847151 20.1250023614 -92.5411775105 c 0
 15.0848193208 -93.0596866525 13.8278502307 -99.3058505804 9.37366885291 -99.3058505804 c 0
 8.8058842158 -99.3058505804 8.18614749721 -99.2043555316 7.5 -98.9765638226 c 0
 5.42784639824 -98.288636792 4.02872752778 -97.0217532549 2.5 -95.7822265625 c 0
 0.2392578125 -93.9482421875 -0.9501953125 -91.013671875 -0.9501953125 -86.6083984375 c 0
 -0.9501953125 -58.24609375 1 -29.33984375 1 0 c 0
 1 26.7730291362 -0.9501953125 60.01953125 -0.9501953125 89.564453125 c 0
 -0.9501953125 93.212890625 0.88671875 96.998046875 3.875 98.380859375 c 0
 5.64949278502 99.2027899396 7.82990718281 99.6169368656 10.2726147035 99.6169368656 c 0
 10.3316556833 99.6169368656 10.3908498956 99.6166949195 10.4501953125 99.6162109375 c 0
 12.44921875 99.599609375 14.3357500393 93.371526157 16.125 93.3069565813 c 0
 41.0602707723 92.407104749 48.7978515625 89.09375 98.7998046875 89.09375 c 0
 128.346679688 89.09375 140.793945312 91.8876953125 168.387695312 92.3876953125 c 0
 171.886041334 92.4510855009 177.420787673 97.273212847 181.24211846 97.273212847 c 0
 181.570709423 97.273212847 181.886631319 97.2375578305 182.1875 97.16015625 c 0
 184.334960938 96.607421875 186.014648438 95.5859375 187.323242188 94.25 c 0
 190.643554688 90.859375 191.321289062 84.6943359375 191.4375 79.7841796875 c 0
 191.743415327 66.8614602329 191.797782241 50.3513358477 191.797782241 32.7504799425 c 0
 191.797782241 23.0446581676 191.78125 13.0071597314 191.78125 3.056640625 c 0
 191.78125 -24.939453125 191.662109375 -53.24609375 191.662109375 -84.5419921875 c 0
 191.662109375 -147.133789062 191.662109375 -218.09375 191.662109375 -271.883789062 c 0
 191.662109375 -285.576171875 191.662109375 -298.290039062 191.662109375 -310.026367188 c 0
 191.662109375 -379.463867188 190.237304688 -433.25390625 190.237304688 -473.3515625 c 0
 190.237304688 -475.307617188 190.237304688 -476.286132812 190.237304688 -478.2421875 c 0
 190.237304688 -501.713867188 192.137695312 -519.318359375 192.137695312 -534.965820312 c 0
 192.137695312 -536.830962011 192.168516879 -538.918814386 192.168516879 -541.001601184 c 0
 192.168516879 -544.380130912 192.087416932 -547.745331724 191.662109375 -550.125 c 0
 190.052734375 -559.1328125 190.237304688 -560.393554688 180.737304688 -560.393554688 c 0
EndSplineSet
EndChar

StartChar: acute
Encoding: 171 180 115
AltUni2: 00f0ab.ffffffff.0
Width: 128
Flags: MW
HStem: -121 21G 90 20G
LayerCount: 2
Fore
SplineSet
107.5 -18.9482421875 m 6
 107.5 14.9404296875 l 6
 107.5 25.8447265625 104.557617188 34.400390625 97.58203125 37.6064453125 c 4
 86.7607421875 42.580078125 75.185546875 45.35546875 63.673828125 45.35546875 c 4
 53.0146484375 45.35546875 42.4091796875 42.9765625 32.505859375 37.759765625 c 4
 25.544921875 34.09375 20.5 24.4267578125 20.5 12.677734375 c 6
 20.5 -19.83984375 l 6
 20.5 -33.998046875 31.7099609375 -36.8369140625 41.2119140625 -38.0390625 c 4
 49.09765625 -39.037109375 56.5341796875 -39.5654296875 64.0595703125 -39.5654296875 c 4
 71.5322265625 -39.5654296875 79.091796875 -39.0439453125 87.263671875 -37.94140625 c 4
 97.30859375 -36.5859375 107.5 -32.4794921875 107.5 -18.9482421875 c 6
128 -450 m 1
 126.320550528 -451.679449472 124.01431205 -453.04550444 121.256727977 -453.04550444 c 0
 119.088440591 -453.04550444 116.641101056 -452.200917547 114 -450 c 1
 114 -86 l 2
 114 -71.91015625 108.136276121 -67.7463326273 98 -65.6883909152 c 0
 87.0661859596 -63.4685271587 77.2673565591 -63 67 -63 c 0
 47 -63 21 -69 0 -76 c 1
 0 59 l 1
 19 71 48 75.75 70 75.75 c 0
 92 75.75 105 72 128 62 c 1
 128 -450 l 1
EndSplineSet
Validated: 1
EndChar

StartChar: dieresis
Encoding: 172 168 116
AltUni2: 00f0ac.ffffffff.0
Width: 128
Flags: MW
HStem: 213 85
VStem: 83 85
LayerCount: 2
Fore
SplineSet
107.5 -20.6982421875 m 6
 107.5 13.1904296875 l 6
 107.5 24.0947265625 104.557617188 32.650390625 97.58203125 35.8564453125 c 4
 86.7607421875 40.830078125 75.185546875 43.60546875 63.673828125 43.60546875 c 4
 53.0146484375 43.60546875 42.4091796875 41.2265625 32.505859375 36.009765625 c 4
 25.544921875 32.34375 20.5 22.6767578125 20.5 10.927734375 c 6
 20.5 -21.58984375 l 6
 20.5 -35.748046875 31.7099609375 -38.5869140625 41.2119140625 -39.7890625 c 4
 49.09765625 -40.787109375 56.5341796875 -41.3154296875 64.0595703125 -41.3154296875 c 4
 71.5322265625 -41.3154296875 79.091796875 -40.7939453125 87.263671875 -39.69140625 c 4
 97.30859375 -38.3359375 107.5 -34.2294921875 107.5 -20.6982421875 c 6
128 -75 m 1
 110 -69 82 -63 67 -63 c 0
 47 -63 24 -68 0 -76 c 1
 0 59 l 1
 26 73 48 75 70 75 c 0
 83.6149813768 75 94.0229088109 73.7171784229 105.333333333 70.6378413898 c 0
 106.354120756 70.3599253392 107.258550949 70.2279942653 108.059580004 70.2279942653 c 0
 113.357652443 70.2279942653 114.132329309 75.999462955 114.132329309 83.4760403925 c 0
 114.132329309 86.5661263794 114 89.9474768563 114 93.3330078125 c 2
 114 430 l 1
 116.641101056 432.200917547 119.088440591 433.04550444 121.256727977 433.04550444 c 0
 124.01431205 433.04550444 126.320550528 431.679449472 128 430 c 1
 128 379 128 -32 128 -75 c 1
EndSplineSet
Validated: 1
EndChar

StartChar: AE
Encoding: 174 198 117
AltUni2: 00f0ae.ffffffff.0
Width: 128
Flags: MW
HStem: -8 21G 193 20G
VStem: 0 84
LayerCount: 2
Fore
SplineSet
107.5 -20.6982421875 m 6
 107.5 13.1904296875 l 6
 107.5 24.0947265625 104.557617188 32.650390625 97.58203125 35.8564453125 c 4
 86.7607421875 40.830078125 75.185546875 43.60546875 63.673828125 43.60546875 c 4
 53.0146484375 43.60546875 42.4091796875 41.2265625 32.505859375 36.009765625 c 4
 25.544921875 32.34375 20.5 22.6767578125 20.5 10.927734375 c 6
 20.5 -21.58984375 l 6
 20.5 -35.748046875 31.7099609375 -38.5869140625 41.2119140625 -39.7890625 c 4
 49.09765625 -40.787109375 56.5341796875 -41.3154296875 64.0595703125 -41.3154296875 c 4
 71.5322265625 -41.3154296875 79.091796875 -40.7939453125 87.263671875 -39.69140625 c 4
 97.30859375 -38.3359375 107.5 -34.2294921875 107.5 -20.6982421875 c 6
128 -450 m 1
 125 -453 120 -455 114 -450 c 1
 114 -83.5 l 2
 114 -71.5439453125 106.554960541 -67.443156916 98.25 -65.7394128095 c 0
 87.2154062102 -63.4756905385 77.3455483744 -63 67 -63 c 0
 55.7117773846 -63 43.4280550051 -64.4932496463 30.5000023287 -67.1285794715 c 0
 21.0212651068 -69.0607806724 14 -72.4267578125 14 -85.25 c 2
 14 -191 l 1
 9 -193 4 -194 0 -191 c 1
 0 -76 l 1
 0 -48 l 1
 0 59 l 1
 26 73 48 75 70 75 c 0
 92 75 105 72 128 62 c 1
 128 -450 l 1
EndSplineSet
Validated: 1
EndChar

StartChar: Oslash
Encoding: 175 216 118
AltUni2: 00f0af.ffffffff.0
Width: 128
Flags: MW
HStem: -172 21 -25 51 241 30
VStem: -1792 161 -1454 59 -1102 59 -750 59 -398 59
LayerCount: 2
Fore
SplineSet
107.5 -20.6982421875 m 6
 107.5 13.1904296875 l 6
 107.5 24.0947265625 104.557617188 32.650390625 97.58203125 35.8564453125 c 4
 86.7607421875 40.830078125 75.185546875 43.60546875 63.673828125 43.60546875 c 4
 53.0146484375 43.60546875 42.4091796875 41.2265625 32.505859375 36.009765625 c 4
 25.544921875 32.34375 20.5 22.6767578125 20.5 10.927734375 c 6
 20.5 -21.58984375 l 6
 20.5 -35.748046875 31.7099609375 -38.5869140625 41.2119140625 -39.7890625 c 4
 49.09765625 -40.787109375 56.5341796875 -41.3154296875 64.0595703125 -41.3154296875 c 4
 71.5322265625 -41.3154296875 79.091796875 -40.7939453125 87.263671875 -39.69140625 c 4
 97.30859375 -38.3359375 107.5 -34.2294921875 107.5 -20.6982421875 c 6
0 -75 m 1
 0 430 l 1
 1.67944947177 431.679449472 3.98568794981 433.04550444 6.74327202321 433.04550444 c 0
 8.91155940904 433.04550444 11.3588989435 432.200917547 14 430 c 1
 14 89.6669921875 l 2
 14 76.8452295986 16.6019417827 71.4089874256 23.5908401005 71.4089874256 c 0
 24.9021829859 71.4089874256 26.3679724942 71.6003750626 28 71.9702738771 c 0
 37.3614729802 74.092050468 46.5457995751 75 58 75 c 0
 71.6012623978 75 85.2025247955 74.4290298185 99.6666666667 70.6984510354 c 0
 101.492484238 70.227537769 103.140708212 69.9728640908 104.613141989 69.9728640908 c 0
 110.918247171 69.9728640908 114 74.6426523576 114 87 c 2
 114 175 l 1
 116.194335081 176.097167541 118.689614316 176.893390928 121.320744625 176.893390928 c 0
 123.485837704 176.893390928 125.742918852 176.354248689 128 175 c 1
 128 -76 l 1
 104 -68 81 -63 61 -63 c 0
 46 -63 18 -69 0 -75 c 1
EndSplineSet
Validated: 1
EndChar

StartChar: infinity
Encoding: 176 8734 119
AltUni2: 00f0b0.ffffffff.0
Width: 128
Flags: MW
HStem: -6 126 187 20G 264 52
VStem: 7 34 188 60
LayerCount: 2
Fore
SplineSet
107.5 -20.6982421875 m 6
 107.5 13.1904296875 l 6
 107.5 24.0947265625 104.557617188 32.650390625 97.58203125 35.8564453125 c 4
 86.7607421875 40.830078125 75.185546875 43.60546875 63.673828125 43.60546875 c 4
 53.0146484375 43.60546875 42.4091796875 41.2265625 32.505859375 36.009765625 c 4
 25.544921875 32.34375 20.5 22.6767578125 20.5 10.927734375 c 6
 20.5 -21.58984375 l 6
 20.5 -35.748046875 31.7099609375 -38.5869140625 41.2119140625 -39.7890625 c 4
 49.09765625 -40.787109375 56.5341796875 -41.3154296875 64.0595703125 -41.3154296875 c 4
 71.5322265625 -41.3154296875 79.091796875 -40.7939453125 87.263671875 -39.69140625 c 4
 97.30859375 -38.3359375 107.5 -34.2294921875 107.5 -20.6982421875 c 6
0 -450 m 1
 0 62 l 1
 23 72 36 75 58 75 c 0
 80 75 102 73 128 59 c 1
 128 -48 l 1
 128 -76 l 1
 128 -191 l 1
 126.194335081 -192.354248689 124.18489355 -192.893390928 122.063663477 -192.893390928 c 0
 119.485837704 -192.893390928 116.742918852 -192.097167541 114 -191 c 1
 114 -83 l 2
 114 -72.474609375 105.444001076 -68.755798015 97.7500023303 -67.17966772 c 0
 84.7302985487 -64.5125566064 72.3609637389 -63 61 -63 c 0
 50.5763843693 -63 40.6356654622 -63.4828967236 29.5 -65.7909647939 c 0
 19.3258432793 -67.8997427874 14 -72.1005859375 14 -86.25 c 2
 14 -450 l 1
 11.3588989435 -452.200917547 8.91155940904 -453.04550444 6.74327202321 -453.04550444 c 0
 3.98568794981 -453.04550444 1.67944947177 -451.679449472 0 -450 c 1
EndSplineSet
Validated: 1
EndChar

StartChar: plusminus
Encoding: 177 177 120
AltUni2: 00f0b1.ffffffff.0
Width: 128
Flags: MW
HStem: -130 19
LayerCount: 2
Fore
SplineSet
107.5 -20.6982421875 m 6
 107.5 13.1904296875 l 6
 107.5 24.0947265625 104.557617188 32.650390625 97.58203125 35.8564453125 c 4
 86.7607421875 40.830078125 75.185546875 43.60546875 63.673828125 43.60546875 c 4
 53.0146484375 43.60546875 42.4091796875 41.2265625 32.505859375 36.009765625 c 4
 25.544921875 32.34375 20.5 22.6767578125 20.5 10.927734375 c 6
 20.5 -21.58984375 l 6
 20.5 -35.748046875 31.7099609375 -38.5869140625 41.2119140625 -39.7890625 c 4
 49.09765625 -40.787109375 56.5341796875 -41.3154296875 64.0595703125 -41.3154296875 c 4
 71.5322265625 -41.3154296875 79.091796875 -40.7939453125 87.263671875 -39.69140625 c 4
 97.30859375 -38.3359375 107.5 -34.2294921875 107.5 -20.6982421875 c 6
128 -75 m 1
 110 -69 82 -63 67 -63 c 0
 47 -63 24 -68 0 -76 c 1
 0 425 l 1
 2.25708114823 426.354248689 4.51416229645 426.893390928 6.67925537462 426.893390928 c 0
 9.31038568406 426.893390928 11.8056649186 426.097167541 14 425 c 1
 14 83.3330078125 l 2
 14 72.2934917237 15.9624855889 69.2625042354 20.4602552365 69.2625042354 c 0
 22.7410907725 69.2625042354 25.6738851036 70.0419352203 29.3333333333 70.951706859 c 0
 43.425228475 74.4550783321 56.7126142375 75 70 75 c 0
 79.1424323776 75 86.8387735826 74.4215635309 94.3333333333 73.109151878 c 0
 98.7437637391 72.3368182852 102.613252584 71.3362360755 105.726817772 71.3362360755 c 0
 110.911407893 71.3362360755 114 74.1106145542 114 85.3330078125 c 2
 114 430 l 1
 116.641101056 432.200917547 119.088440591 433.04550444 121.256727977 433.04550444 c 0
 124.01431205 433.04550444 126.320550528 431.679449472 128 430 c 1
 128 -75 l 1
EndSplineSet
Validated: 1
EndChar

StartChar: ascii178
Encoding: 178 8804 121
AltUni2: 00f0b2.ffffffff.0
Width: 128
Flags: MW
HStem: -14 21G 435 20G
LayerCount: 2
Fore
SplineSet
107.5 -20.6982421875 m 6
 107.5 13.1904296875 l 6
 107.5 24.0947265625 104.557617188 32.650390625 97.58203125 35.8564453125 c 4
 86.7607421875 40.830078125 75.185546875 43.60546875 63.673828125 43.60546875 c 4
 53.0146484375 43.60546875 42.4091796875 41.2265625 32.505859375 36.009765625 c 4
 25.544921875 32.34375 20.5 22.6767578125 20.5 10.927734375 c 6
 20.5 -21.58984375 l 6
 20.5 -35.748046875 31.7099609375 -38.5869140625 41.2119140625 -39.7890625 c 4
 49.09765625 -40.787109375 56.5341796875 -41.3154296875 64.0595703125 -41.3154296875 c 4
 71.5322265625 -41.3154296875 79.091796875 -40.7939453125 87.263671875 -39.69140625 c 4
 97.30859375 -38.3359375 107.5 -34.2294921875 107.5 -20.6982421875 c 6
128 -450 m 1
 126.320550528 -451.679449472 124.01431205 -453.04550444 121.256727977 -453.04550444 c 0
 119.088440591 -453.04550444 116.641101056 -452.200917547 114 -450 c 1
 114 -86.6669921875 l 2
 114 -72.6181640625 109.693525417 -68.187167723 99.3333333333 -65.9666324473 c 0
 87.8586398872 -63.5072222965 77.6829310919 -63 67 -63 c 0
 54.0261760475 -63 39.7373512517 -64.972501265 24.6666690325 -68.3843603751 c 0
 14.9715908968 -70.5792338506 14 -75.61328125 14 -88 c 2
 14 -449 l 1
 11.2570811482 -450.097167541 8.51416229645 -450.893390928 5.93633652285 -450.893390928 c 0
 3.81510644955 -450.893390928 1.80566491858 -450.354248689 0 -449 c 1
 0 -76 l 1
 0 -48 l 1
 0 59 l 1
 26 73 48 75 70 75 c 0
 92 75 105 72 128 62 c 1
 128 -450 l 1
EndSplineSet
Validated: 1
EndChar

StartChar: mensuralMaximaWhite
Encoding: 179 8805 122
AltUni2: 00f0b3.ffffffff.0 00e95c.ffffffff.0
Width: 390
Flags: HMW
HStem: -340.109 36.8902 32.3914 188.05 305.918 31.4916
VStem: -6.174 179.046 543.312 100.548
LayerCount: 2
Fore
SplineSet
378.858398438 -551.10546875 m 0
 371.669921875 -551.10546875 368.141601562 -546.606445312 368.141601562 -539.408203125 c 0
 368.141601562 -538.508789062 368.141601562 -537.609375 368.141601562 -536.708984375 c 0
 372.552734375 -495.3203125 376.961914062 -363.055664062 376.961914062 -239.788085938 c 0
 376.961914062 -179.504882812 376.080078125 -147.215820312 373.43359375 -126.520507812 c 0
 371.669921875 -116.624023438 372.91796875 -108.881835938 363.280273438 -104.9765625 c 0
 358.255859375 -102.940429688 348.8203125 -102.596679688 344.75 -102.21875 c 0
 300.35546875 -98.09765625 245.364257812 -96.3515625 196.991210938 -96.3515625 c 4
 178.71875 -96.3515625 161.9765625 -97.0908203125 143.356445312 -97.0908203125 c 0
 105.608398438 -97.0908203125 64.6328125 -99.50390625 21.625 -100.875 c 0
 18.2783203125 -100.981445312 12.78125 -102.20703125 9.82421875 -102.20703125 c 0
 1.849609375 -102.20703125 -1.763671875 -100.566599539 -1.763671875 -90.5302734375 c 0
 -1.763671875 -62.638671875 0 -24.7451171875 0 4.9462890625 c 0
 0 29.2392578125 -0.8828125 65.5322265625 -1.763671875 92.5244140625 c 0
 -1.763671875 93.4248046875 -1.763671875 92.5244140625 -1.763671875 93.4248046875 c 0
 -1.763671875 99.72265625 6.173828125 100.623046875 13.23046875 100.623046875 c 0
 18.5224609375 100.623046875 24.7470703125 96.908203125 42.3359375 95.5732421875 c 0
 91.7275390625 91.8232421875 125.73046875 88.6943359375 173.358398438 88.6943359375 c 0
 236.26171875 88.6943359375 287.765625 91.8583984375 349.75 93.3447265625 c 0
 356.01483323 93.494914057 365.818359375 96.927734375 372.369140625 96.927734375 c 0
 372.803710938 96.927734375 375.98828125 96.9248046875 376.419921875 96.880859375 c 0
 387.401367188 95.765625 387.810546875 90.8818359375 387.810546875 82.783203125 c 16
 390.456054688 -6.29296875 390.456054688 -197.5 390.456054688 -298.2734375 c 0
 390.456054688 -419.740234375 388.69140625 -500.71875 387.810546875 -538.508789062 c 0
 387.810546875 -549.305664062 385.796875 -551.10546875 378.858398438 -551.10546875 c 0
367.94921875 -46.0947265625 m 2
 367.94921875 20.5908203125 l 2
 367.94921875 32.0791015625 364.640625 50.46875 342.4140625 50.46875 c 0
 342.041992188 50.46875 338.6640625 50.4638671875 338.282226562 50.453125 c 0
 299.16796875 49.3857421875 253.392578125 46.2939453125 201.065429688 46.2939453125 c 0
 149.810546875 46.2939453125 87.783203125 48.4814453125 38.400390625 50.2138671875 c 0
 37.8857421875 50.2333984375 37.3828125 50.2431640625 36.8896484375 50.2431640625 c 0
 22.3505859375 50.2431640625 16.7900390625 42.4326171875 16.7900390625 28.5712890625 c 2
 16.7900390625 -31.48828125 l 2
 16.7900390625 -46.9990234375 30.9658203125 -59.6884765625 49.833984375 -61.1689453125 c 0
 65.5664098582 -62.4038557711 81.1358308111 -62.8102834419 97.1916647599 -62.8102834419 c 0
 128.114333062 -62.8102834419 160.841237422 -61.302734375 200.01171875 -61.302734375 c 0
 228.53202241 -61.302734375 260.904347632 -62.2484184314 291.787086692 -62.2484184314 c 0
 308.849336914 -62.2484184314 329.20703125 -61.9599609375 344.458984375 -61.0634765625 c 0
 361.215820312 -60.0791015625 367.94921875 -57.7509765625 367.94921875 -46.0947265625 c 2
EndSplineSet
EndChar

StartChar: yen
Encoding: 180 165 123
AltUni2: 00f0b4.ffffffff.0
Width: 257
Flags: MW
HStem: 103 20G
LayerCount: 2
Fore
SplineSet
257 -73 m 1
 213 -74 175 -77 134 -77 c 0
 106 -77 34 -75 0 -74 c 1
 0 59 l 1
 54 56.75 100 56.5 133 57 c 0
 159.252929688 57.3974609375 189.610119828 58 230 62.4528035362 c 0
 241.933434431 63.7684112777 243.06126991 72.6589573234 243.06126991 84.5256263928 c 0
 243.06126991 87.2914824555 243 90.2190170541 243 93.25 c 2
 243 430 l 1
 244.732050808 430.577350269 247.130768282 431.154700538 250.003702333 431.154700538 c 0
 252.106836025 431.154700538 254.464101615 430.845299462 257 430 c 1
 257 350 257 -58 257 -73 c 1
233.049804688 -32.92578125 m 6
 233.049804688 12.974609375 l 2
 233.049804688 25.7314453125 221.193359375 35.3388671875 210.416992188 34.333984375 c 0
 178.30078125 31.3212890625 141.8359375 30.3388671875 101.265625 30.3388671875 c 0
 82.2763671875 30.3388671875 58.0576171875 30.935546875 39.2626953125 31.6474609375 c 0
 38.9345703125 31.6591796875 38.6103515625 31.666015625 38.2890625 31.666015625 c 0
 29.216796875 31.666015625 22.9501953125 26.6943359375 22.9501953125 15.83203125 c 2
 22.9501953125 -32.0029296875 l 6
 22.9501953125 -44.9775390625 39.4853515625 -50.921875 51 -51.75 c 4
 70.650390625 -53.162109375 89.560546875 -53.02734375 113.133789062 -53.02734375 c 4
 148.06640625 -53.02734375 189.174804688 -51.6025390625 217.172851562 -49.1240234375 c 4
 228.75390625 -48.0986328125 233.049804688 -46.0888671875 233.049804688 -32.92578125 c 6
EndSplineSet
Validated: 33
EndChar

StartChar: partialdiff
Encoding: 182 8706 124
AltUni2: 00f0b6.ffffffff.0
Width: 432
Flags: MW
HStem: -185 21<10 10> -30 27 228 30 405 24
VStem: 40 62 175 59 618 25 785 59 1137 59
LayerCount: 2
Fore
SplineSet
432 -75 m 1
 376 -99 252 -139 178 -159 c 0
 110 -177 64 -186 0 -200 c 1
 0 -59 l 1
 74 -43 107 -40 168 -23 c 0
 241 -3 315 14 432 66 c 1
 432 -75 l 1
401 -49.2666015625 m 2
 401 10.763671875 l 2
 401 24.6044921875 398.693359375 29.6982421875 392.921875 29.6982421875 c 0
 390.66015625 29.6982421875 387.866210938 28.916015625 384.469726562 27.5712890625 c 0
 297.23828125 -6.97265625 234.153143688 -24.0838921602 177.78515625 -38.662109375 c 0
 131.876953125 -50.53515625 98.408203125 -62.548828125 47.2314453125 -73.2470703125 c 0
 37.4375 -75.2939453125 31.28125 -81.822265625 31.28125 -94.986328125 c 2
 31.28125 -150.956054688 l 2
 31.28125 -163.75 42.2177734375 -169.399414062 50.291015625 -169.399414062 c 0
 51.47265625 -169.399414062 52.8125 -169.245117188 54.333984375 -168.932617188 c 0
 94.8037109375 -160.616210938 135.509548735 -147.758843285 182.134765625 -136.102539062 c 0
 220.599609375 -126.486328125 301.681640625 -102.388671875 374 -75.931640625 c 0
 385.424804688 -71.7529296875 401 -65.697265625 401 -49.2666015625 c 2
EndSplineSet
Validated: 1
EndChar

StartChar: summation
Encoding: 183 8721 125
AltUni2: 00f0b7.ffffffff.0
Width: 528
Flags: MW
HStem: 127 123
VStem: 1 296
LayerCount: 2
Fore
SplineSet
528 -75 m 1
 466 -117 305 -197 213 -240 c 0
 125 -281 79 -293 0 -326 c 1
 0 -185 l 1
 91 -150 132 -138 207 -104 c 1
 296 -62 385 -20 528 66 c 1
 528 -75 l 1
214.41015625 -214.926757812 m 5
 283.666992188 -183.021484375 409.212890625 -124.046875 473.666992188 -86.0830078125 c 4
 486.44140625 -78.55859375 499.5 -71.6005859375 499.5 -51.9501953125 c 6
 499.5 -10.6201171875 l 6
 499.5 2.4600998084 490.360905412 6.8667678841 479.778398914 6.8667678841 c 0
 470.834752739 6.8667678841 460.860145139 3.71929156959 454.5 -0 c 4
 351.209960938 -60.40625 288.91015625 -86.6240234375 219.629882812 -119.2265625 c 5
 161.552734375 -145.48046875 116.309570312 -166.030273438 53.6103515625 -189.669921875 c 4
 43.27734375 -193.565429688 31.8408203125 -198.208984375 31.8408203125 -213.994140625 c 6
 31.8408203125 -260.958984375 l 6
 31.8408203125 -274.951184004 41.4954897041 -282.223650735 54.9441735864 -282.223650735 c 0
 61.0330464005 -282.223650735 67.8996212211 -280.732931081 75 -277.700195312 c 4
 125.195316792 -256.260616189 151.169921875 -244.965820312 214.41015625 -214.926757812 c 5
EndSplineSet
Validated: 1
EndChar

StartChar: mensuralSemibrevisWhite
Encoding: 184 8719 126
AltUni2: 00f0b8.ffffffff.0 00e957.ffffffff.0
Width: 168
VWidth: 1622
Flags: HMW
VStem: -12 22
LayerCount: 2
Fore
SplineSet
83 98 m 1
 64 56 58 45 34 13 c 1
 52 -15 87 -73 93 -96 c 0
 94 -98 94 -102 95 -101 c 0
 113 -78 128 -59 142 -20 c 1
 132 8 108 56 83 98 c 1
89 153 m 1
 127 89 154 41 169 -2 c 1
 144 -67 110 -113 77 -151 c 1
 77 -150 77 -148 77 -147 c 0
 77 -109 28 -44 -0 0 c 1
 38 46 62 88 89 153 c 1
EndSplineSet
EndChar

StartChar: ordfeminine
Encoding: 187 170 129
AltUni2: 00f0bb.ffffffff.0
Width: 154
Flags: MW
HStem: 0 10 31 83 142 17 312 13
VStem: 36 63 197 75
LayerCount: 2
Fore
SplineSet
79 430 m 1
 79 92 l 1
 140 0 l 1
 117 -28 100 -50 79 -80 c 1
 79 -426 l 1
 75.3245553203 -429.062870566 73.1500988177 -430.249505911 70.6376974889 -430.249505911 c 0
 69.0487153699 -430.249505911 67.3245553203 -429.774851773 65 -429 c 1
 65 -83 l 1
 48.1787818915 -52.5020139448 27.8894922346 -27.0018720398 0 0 c 1
 28 32 44 60 65 87 c 1
 65 427 l 1
 67.7579868668 430.861181614 70.5159737336 432.288285929 73.1061317699 432.288285929 c 0
 75.2117140713 432.288285929 77.2063894935 431.34520788 79 430 c 1
112.045898438 14.23046875 m 0
 99.0390625 33.119140625 96.39453125 33.0986328125 80.953125 57.1923828125 c 0
 79.3916015625 59.62890625 77.8701171875 60.66015625 76.3740234375 60.66015625 c 0
 74.2119140625 60.66015625 72.1025390625 58.5048828125 70.001953125 55.33203125 c 0
 58.41015625 37.822265625 41.228515625 14.7421875 31.40625 3.572265625 c 0
 29.1162109375 0.9677734375 28.396484375 -1.072265625 28.396484375 -2.64453125 c 0
 28.396484375 -5.6181640625 31.3798828125 -7.4306640625 34.73828125 -10.8427734375 c 0
 52.021484375 -28.4052734375 53.84765625 -33.8896484375 63.8876953125 -47.8291015625 c 0
 66.39453125 -51.3095703125 67.58203125 -53.34375 69.0546875 -53.34375 c 0
 70.3173828125 -53.34375 71.7216796875 -51.8984375 74.1044921875 -48.759765625 c 0
 86.8349609375 -31.9892578125 98.265625 -19.4169921875 108.725585938 -6.9267578125 c 0
 112.875 -1.97265625 115.333007812 1.6845703125 115.333007812 5.6669921875 c 0
 115.333007812 8.240234375 114.306244345 10.947969272 112.045898438 14.23046875 c 0
EndSplineSet
EndChar

StartChar: ordmasculine
Encoding: 188 186 130
AltUni2: 00f0bc.ffffffff.0
Width: 165
Flags: MW
HStem: -5 17 295 17
VStem: -4 63 197 63
LayerCount: 2
Fore
SplineSet
302 232 m 1
 178 49 141 -2 74 -98 c 1
 48 -67 32 -37 0 0 c 1
 0 0 49 63 64 94 c 1
 85.8966877884 60.7170345616 102.423368292 38.9412275898 121.643038513 17.25 c 0
 124.412357857 14.124559476 126.801780343 12.7897563086 129.026162084 12.7897563086 c 0
 133.440968539 12.7897563086 137.205651482 18.0477725536 142 25 c 2
 290 240 l 1
 292.75 240.25 294.6875 240.4375 296.09375 240.4375 c 0
 300.3125 240.4375 299.75 238.75 302 232 c 1
107.745117188 7.7548828125 m 4
 91.7783203125 25.5302734375 91.7158203125 25.646484375 79.75 42.4169921875 c 4
 76.1487151357 47.4643161076 72.1798939925 49.2968527013 68.6338115454 49.2968527013 c 4
 64.5333046387 49.2968527013 60.9980592773 46.8464915771 59.25 44.0830078125 c 4
 49.119140625 28.0693359375 40.0828090651 14.7166751699 31.7900390625 3.9677734375 c 4
 29.714570486 1.2775978061 28.8670310478 -1.27851047209 28.8670310478 -3.73335074599 c 4
 28.8670310478 -8.20295572427 31.6766778006 -12.3368508741 35 -16.3330078125 c 4
 44.3325206341 -27.5549763269 49.0613207798 -34.5665588241 62.2490234375 -52.0830078125 c 4
 64.6691198194 -55.2974793487 67.3739520856 -56.9796424229 70.0350431103 -56.9796424229 c 4
 72.5754837383 -56.9796424229 75.0760595521 -55.4465556587 77.2509765625 -52.25 c 6
 107.633789062 -7.58984375 l 6
 109.6640625 -4.6064453125 110.75 -1.85546875 110.75 0.75 c 4
 110.75 3.1650390625 109.80078125 5.466796875 107.745117188 7.7548828125 c 4
EndSplineSet
Validated: 1
EndChar

StartChar: ascii190
Encoding: 190 230 131
AltUni2: 00f0be.ffffffff.0
Width: 160
Flags: MW
HStem: -1 21G 613 20G
LayerCount: 2
Fore
SplineSet
108.001953125 -2.044921875 m 4
 94.5283203125 13.732421875 88.5498046875 23.5361328125 74.1005859375 46.46875 c 4
 71.2578125 50.98046875 69.6884765625 53.484375 67.9794921875 53.484375 c 4
 66.580078125 53.484375 65.0869140625 51.8056640625 62.7236328125 48.1748046875 c 4
 52.6025390625 32.625 41.5380859375 22.7763671875 32.3828125 11.7451171875 c 4
 29.3505859375 8.08984375 27.9658203125 6.06640625 27.9658203125 4.203125 c 4
 27.9658203125 2.408203125 29.2509765625 0.76171875 31.5859375 -2.05078125 c 4
 48.5234375 -22.4501953125 57.740234375 -36.00390625 69.87109375 -53.6650390625 c 4
 72.2568359375 -57.1396484375 74.0849609375 -58.8466796875 75.896484375 -58.8466796875 c 4
 77.783203125 -58.8466796875 79.65234375 -56.9931640625 82.115234375 -53.3544921875 c 6
 106.651367188 -18.787109375 l 6
 109.389648438 -14.701171875 111.19140625 -11.8203125 111.19140625 -8.9111328125 c 4
 111.19140625 -6.7958984375 110.239257812 -4.6650390625 108.001953125 -2.044921875 c 4
140 -3 m 1
 74 -98 l 1
 48 -67 32 -37 0 0 c 1
 0 0 49 54 65 83 c 1
 65 335 l 1
 54.2522729151 332.133939444 43.5045458303 329.781272832 34.963945946 329.781272832 c 0
 31.5849094967 329.781272832 28.5513637491 330.149545417 26 331 c 0
 16 334 11 343 11 353 c 0
 11 369 15 373 23 383 c 0
 30 392 64 429 79 433 c 1
 79 342 l 1
 92 345 103 348 103 348 c 1
 103 348 93 344 79 339 c 1
 79 80 l 1
 100 50 116 24 140 -3 c 1
65 339 m 1
 65 382 l 2
 65 382.627701913 65.0004519647 383.240462488 65.0004519647 383.837776783 c 0
 65.0004519647 393.059772173 64.8927190218 398.599902253 61.3506536811 398.599902253 c 0
 59.538352083 398.599902253 56.8269874605 397.149569109 52.7709833657 394.000000292 c 0
 40.4293359649 384.416462679 22.9213467226 369.24718252 21 359 c 0
 20.7101020514 356.97071436 20.5042449235 354.94142872 20.5042449235 352.985232865 c 0
 20.5042449235 348.193551182 21.7393876913 343.840408206 26 341 c 0
 29.9445582883 338.182458366 36.7469912869 336.952624903 44.7968627993 336.952624903 c 0
 51.0322664607 336.952624903 58.0161332303 337.690524981 65 339 c 1
EndSplineSet
Validated: 1
EndChar

StartChar: questiondown
Encoding: 192 191 133
AltUni2: 00f0c0.ffffffff.0
Width: 160
Flags: MW
VStem: 5 259
LayerCount: 2
Fore
SplineSet
108.751953125 -0.544921875 m 4
 95.2783203125 15.232421875 89.2998046875 25.0361328125 74.8505859375 47.96875 c 4
 72.0078125 52.48046875 70.4384765625 54.984375 68.7294921875 54.984375 c 4
 67.330078125 54.984375 65.8369140625 53.3056640625 63.4736328125 49.6748046875 c 4
 53.3525390625 34.125 43.7880859375 21.7763671875 34.6328125 10.7451171875 c 4
 31.6005859375 7.08984375 30.2158203125 5.06640625 30.2158203125 3.203125 c 4
 30.2158203125 1.408203125 31.5009765625 -0.23828125 33.8359375 -3.05078125 c 4
 50.7734375 -23.4501953125 58.490234375 -34.50390625 70.62109375 -52.1650390625 c 4
 73.0068359375 -55.6396484375 74.8349609375 -57.3466796875 76.646484375 -57.3466796875 c 4
 78.533203125 -57.3466796875 80.40234375 -55.4931640625 82.865234375 -51.8544921875 c 6
 107.401367188 -17.287109375 l 6
 110.139648438 -13.201171875 111.94140625 -10.3203125 111.94140625 -7.4111328125 c 4
 111.94140625 -5.2958984375 110.989257812 -3.1650390625 108.751953125 -0.544921875 c 4
140 0 m 1
 115 -28 97 -55 79 -80 c 1
 79 -339 l 1
 93 -344 103 -348 103 -348 c 1
 103 -348 92 -345 79 -342 c 1
 79 -433 l 1
 64 -429 30 -392 23 -383 c 0
 15 -373 11 -369 11 -353 c 0
 11 -343 16 -334 26 -331 c 0
 28.5513637491 -330.149545417 31.5849094967 -329.781272832 34.963945946 -329.781272832 c 0
 43.5045458303 -329.781272832 54.2522729151 -332.133939444 65 -335 c 1
 65 -83 l 1
 49 -54 0 0 0 0 c 1
 32 37 50 65 74 98 c 1
 140 0 l 1
65 -373.666992188 m 2
 65 -339 l 1
 58.0161332303 -337.690524981 51.0322664607 -336.952624903 44.7968627993 -336.952624903 c 0
 36.7469912869 -336.952624903 29.9445582883 -338.182458366 26 -341 c 0
 21.7393876913 -343.840408206 20.5042449235 -348.193551182 20.5042449235 -352.985232865 c 0
 20.5042449235 -354.94142872 20.7101020514 -356.97071436 21 -359 c 0
 22.7718625136 -368.449933406 37.7993780436 -382.085862501 49.8063327377 -391.666666348 c 0
 54.3663948672 -395.305312608 57.5584196047 -396.942450375 59.7926596074 -396.942450375 c 0
 64.8597488381 -396.942450375 65.000486877 -388.521857209 65.000486877 -375.93106951 c 0
 65.000486877 -375.190515389 65 -374.435534665 65 -373.666992188 c 2
EndSplineSet
Validated: 1
EndChar

StartChar: exclamdown
Encoding: 193 161 134
AltUni2: 00f0c1.ffffffff.0
Width: 160
Flags: MW
HStem: 0 315
LayerCount: 2
Fore
SplineSet
109.251953125 -0.544921875 m 4
 95.7783203125 15.232421875 88.0498046875 25.0361328125 73.6005859375 47.96875 c 4
 70.7578125 52.48046875 69.1884765625 54.984375 67.4794921875 54.984375 c 4
 66.080078125 54.984375 64.5869140625 53.3056640625 62.2236328125 49.6748046875 c 4
 52.1025390625 34.125 42.5380859375 21.7763671875 33.3828125 10.7451171875 c 4
 30.3505859375 7.08984375 28.9658203125 5.06640625 28.9658203125 3.203125 c 4
 28.9658203125 1.408203125 30.2509765625 -0.23828125 32.5859375 -3.05078125 c 4
 49.5234375 -23.4501953125 57.240234375 -34.50390625 69.37109375 -52.1650390625 c 4
 71.7568359375 -55.6396484375 73.5849609375 -57.3466796875 75.396484375 -57.3466796875 c 4
 77.283203125 -57.3466796875 79.15234375 -55.4931640625 81.615234375 -51.8544921875 c 6
 107.901367188 -17.287109375 l 6
 110.639648438 -13.201171875 112.44140625 -10.3203125 112.44140625 -7.4111328125 c 4
 112.44140625 -5.2958984375 111.489257812 -3.1650390625 109.251953125 -0.544921875 c 4
65 -340 m 1
 49 -337 33 -337 26 -342 c 0
 20 -346 20 -353 21 -360 c 0
 24 -376 65 -404 65 -404 c 1
 65 -340 l 1
23 -384 m 0
 15 -374 11 -370 11 -354 c 0
 11 -344 16 -335 26 -332 c 0
 35 -329 50 -332 65 -336 c 1
 65 -83 l 1
 49 -54 0 0 0 0 c 1
 26 29 46 57 65 87 c 1
 65 427 l 1
 70 434 75 433 79 430 c 1
 79 89 l 1
 94 65 124 21 140 0 c 1
 115 -31 99 -50 79 -80 c 1
 79 -340 l 1
 93 -345 103 -349 103 -349 c 1
 103 -349 92 -346 79 -343 c 1
 79 -435 l 1
 67 -433 28 -391 23 -384 c 0
EndSplineSet
Validated: 33
EndChar

StartChar: logicalnot
Encoding: 194 172 135
AltUni2: 00f0c2.ffffffff.0
Width: 160
Flags: MW
HStem: -120 19 101 19
VStem: -3 19 302 19
LayerCount: 2
Fore
SplineSet
108.001953125 4.455078125 m 4
 94.5283203125 20.232421875 86.7998046875 30.0361328125 72.3505859375 52.96875 c 4
 69.5078125 57.48046875 67.9384765625 59.984375 66.2294921875 59.984375 c 4
 64.830078125 59.984375 63.3369140625 58.3056640625 60.9736328125 54.6748046875 c 4
 50.8525390625 39.125 41.2880859375 26.7763671875 32.1328125 15.7451171875 c 4
 29.1005859375 12.08984375 27.7158203125 10.06640625 27.7158203125 8.203125 c 4
 27.7158203125 6.408203125 29.0009765625 4.76171875 31.3359375 1.94921875 c 4
 48.2734375 -18.4501953125 55.990234375 -29.50390625 68.12109375 -47.1650390625 c 4
 70.5068359375 -50.6396484375 72.3349609375 -52.3466796875 74.146484375 -52.3466796875 c 4
 76.033203125 -52.3466796875 77.90234375 -50.4931640625 80.365234375 -46.8544921875 c 6
 106.651367188 -12.287109375 l 6
 109.389648438 -8.201171875 111.19140625 -5.3203125 111.19140625 -2.4111328125 c 4
 111.19140625 -0.2958984375 110.239257812 1.8349609375 108.001953125 4.455078125 c 4
75 -340 m 1
 75 -381.333007812 l 2
 75 -398.067382812 74.1180803252 -405.220482611 87.6574645356 -394.666666963 c 0
 99.9718826134 -385.06770026 117.100781815 -370.129163654 119 -360 c 0
 119.289897949 -357.97071436 119.495755077 -355.94142872 119.495755077 -353.985232865 c 0
 119.495755077 -349.193551182 118.260612309 -344.840408206 114 -342 c 0
 110.055441712 -339.182458366 103.253008713 -337.952624903 95.2031372007 -337.952624903 c 0
 88.9677335393 -337.952624903 81.9838667697 -338.690524981 75 -340 c 1
117 -384 m 0
 111 -391 73 -433 61 -435 c 1
 61 -343 l 1
 47 -346 37 -349 37 -349 c 1
 37 -349 47 -345 61 -340 c 1
 61 -80 l 1
 44.9124491413 -54.0662814577 25 -24 0 3 c 1
 20.620582282 30.4203695318 41.1110403779 58.858314891 61 92 c 1
 61 430 l 1
 62.7936105065 431.34520788 64.7882859287 432.288285929 66.8938682301 432.288285929 c 0
 69.4840262664 432.288285929 72.2420131332 430.861181614 75 427 c 1
 75 87 l 1
 96 60 112 32 140 0 c 1
 140 0 91 -54 75 -83 c 1
 75 -336 l 1
 85.7477270849 -333.133939444 96.4954541697 -330.781272832 105.036054054 -330.781272832 c 0
 108.415090503 -330.781272832 111.448636251 -331.149545417 114 -332 c 0
 124 -335 129 -344 129 -354 c 0
 129 -370 125 -374 117 -384 c 0
EndSplineSet
Validated: 1
EndChar

StartChar: radical
Encoding: 195 8730 136
AltUni2: 00f0c3.ffffffff.0
Width: 160
Flags: MW
HStem: -153 21G 86 194
LayerCount: 2
Fore
SplineSet
108.251953125 0.955078125 m 4
 94.7783203125 16.732421875 87.0498046875 26.5361328125 72.6005859375 49.46875 c 4
 69.7578125 53.98046875 68.1884765625 56.484375 66.4794921875 56.484375 c 4
 65.080078125 56.484375 63.5869140625 54.8056640625 61.2236328125 51.1748046875 c 4
 51.1025390625 35.625 42.7880859375 25.2763671875 33.6328125 14.2451171875 c 4
 30.6005859375 10.58984375 29.2158203125 8.56640625 29.2158203125 6.703125 c 4
 29.2158203125 4.908203125 30.5009765625 3.26171875 32.8359375 0.44921875 c 4
 49.7734375 -19.9501953125 56.490234375 -31.50390625 68.62109375 -49.1650390625 c 4
 71.0068359375 -52.6396484375 72.8349609375 -54.3466796875 74.646484375 -54.3466796875 c 4
 76.533203125 -54.3466796875 78.40234375 -52.4931640625 80.865234375 -48.8544921875 c 6
 106.901367188 -15.787109375 l 6
 109.639648438 -11.701171875 111.44140625 -8.8203125 111.44140625 -5.9111328125 c 4
 111.44140625 -3.7958984375 110.489257812 -1.6650390625 108.251953125 0.955078125 c 4
140 0 m 1
 140 0 91 -54 75 -83 c 1
 75 -336 l 1
 85.7477270849 -333.133939444 96.4954541697 -330.781272832 105.036054054 -330.781272832 c 0
 108.415090503 -330.781272832 111.448636251 -331.149545417 114 -332 c 0
 124 -335 129 -344 129 -354 c 0
 129 -370 125 -374 117 -384 c 0
 111 -391 73 -433 61 -435 c 1
 61 -343 l 1
 47 -346 37 -349 37 -349 c 1
 37 -349 47 -345 61 -340 c 1
 61 -80 l 1
 43.4659907023 -52.0054550171 25 -24 0 3 c 1
 18.0775546033 19.8492906128 61 83.8661430895 61 86 c 2
 61 340 l 1
 47 345 37 349 37 349 c 1
 37 349 48 346 61 343 c 1
 61 435 l 1
 73 433 112 391 117 384 c 0
 125 374 129 370 129 354 c 0
 129 344 124 335 114 332 c 0
 111.448636251 331.149545417 108.415090503 330.781272832 105.036054054 330.781272832 c 0
 96.4954541697 330.781272832 85.7477270849 333.133939444 75 336 c 1
 75 36 75 96 75 83 c 1
 97 56 117 27 140 0 c 1
119 366 m 0
 117.010379767 376.611307908 98.3067184807 392.500734044 85.933866543 401.999999722 c 0
 83.1914952672 404.105457176 81.1332484133 405.032524731 79.5892584255 405.032524731 c 0
 75.3399865336 405.032524731 74.9858287098 398.010676092 74.9858287098 389.205892265 c 0
 74.9858287098 387.444626175 75 385.612017621 75 383.75 c 2
 75 346 l 1
 81.9838667697 344.690524981 88.9677335393 343.952624903 95.2031372007 343.952624903 c 0
 103.253008713 343.952624903 110.055441712 345.182458366 114 348 c 0
 118.260612309 350.840408206 119.495755077 355.193551182 119.495755077 359.985232865 c 0
 119.495755077 361.94142872 119.289897949 363.97071436 119 366 c 0
119 -360 m 0
 119.289897949 -357.97071436 119.495755077 -355.94142872 119.495755077 -353.985232865 c 0
 119.495755077 -349.193551182 118.260612309 -344.840408206 114 -342 c 0
 110.055441712 -339.182458366 103.253008713 -337.952624903 95.2031372007 -337.952624903 c 0
 88.9677335393 -337.952624903 81.9838667697 -338.690524981 75 -340 c 1
 75 -404 l 1
 75 -404 116 -376 119 -360 c 0
EndSplineSet
Validated: 1
EndChar

StartChar: florin
Encoding: 196 402 137
AltUni2: 00f0c4.ffffffff.0
Width: 160
Flags: MW
HStem: 240 18 321 125
VStem: -785 93 -513 93 -295 25 -23 25
LayerCount: 2
Fore
SplineSet
108.251953125 0.955078125 m 4
 94.7783203125 16.732421875 86.069236515 29.190364386 76.9990234375 43 c 4
 73.6682351433 48.0712119172 70.389295066 50.1723902318 67.1077519712 50.1723902318 c 4
 63.0001814276 50.1723902318 58.8885324735 46.8802619666 54.666015625 42 c 4
 45.494140625 31.3994140625 39.0355291536 27.2784886639 29.8828125 16.2451171875 c 4
 26.8505859375 12.58984375 25.4658203125 10.56640625 25.4658203125 8.703125 c 4
 25.4658203125 6.908203125 26.7508348471 5.26160109066 29.0859375 2.44921875 c 4
 46.0234375 -17.9501953125 53.0122401885 -27.2928760993 66.0009765625 -44.3330078125 c 4
 68.4398842598 -47.5326499641 71.5747707113 -49.4841177828 74.9255342874 -49.4841177828 c 4
 78.0032437317 -49.4841177828 81.2630801566 -47.8377416693 84.3330078125 -44 c 6
 106.901367188 -15.787109375 l 6
 109.961711165 -11.9613483406 111.44140625 -8.8203125 111.44140625 -5.9111328125 c 4
 111.44140625 -3.7958984375 110.489396059 -1.66492100799 108.251953125 0.955078125 c 4
-7.33333333333 -6.59566074951 m 6
 -169 -152 l 5
 -170.454545455 -152 -171.776859504 -152.26446281 -172.822689707 -152.26446281 c 4
 -174.274743372 -152.26446281 -175.193814796 -151.754653711 -175.193814796 -149.31937517 c 4
 -175.193814796 -148.685170918 -175.131482908 -147.920380357 -175 -147 c 5
 -118.20095421 -94.9342080262 -4.94460537518 7.31585332148 55.3333318578 72.3712800994 c 4
 62.7910670372 80.4200980777 65 82.7838102606 65 99 c 6
 65 429 l 5
 67.3245553203 429.774851773 69.0487153699 430.249505911 70.6376974889 430.249505911 c 4
 73.1500988177 430.249505911 75.3245553203 429.062870566 79 426 c 5
 79 80 l 5
 100 50 115 24 140 -3 c 5
 117.652082924 -28.3099326915 94.3918515662 -56.4032640595 69 -91 c 5
 46.6414619416 -61.5193737158 23.7547710434 -30.2151168696 5.17070983468 -6.33333333333 c 4
 3.46944729593 -4.14709517836 1.63855230458 -3.11428296632 -0.342439552467 -3.11428296632 c 0
 -2.48799986566 -3.11428296632 -4.80963112481 -4.32582207675 -7.33333333333 -6.59566074951 c 6
EndSplineSet
Validated: 1
EndChar

StartChar: approxequal
Encoding: 197 8776 138
AltUni2: 00f0c5.ffffffff.0
Width: 118
Flags: MW
HStem: -956 150 -702 150
VStem: -1503 137
LayerCount: 2
Fore
SplineSet
118 -75 m 5
 95.3333333333 -75 88.408203125 -76.1044921875 61.0009765625 -76.1044921875 c 4
 47.296875 -76.1044921875 12 -75.3333333333 0 -75 c 5
 0 44 l 5
 18.7173487454 42.3484692283 42.5867437269 41.6061230866 65.768837859 41.6061230866 c 4
 84.6969384567 41.6061230866 103.166838488 42.1010205144 118 43 c 5
 118 -75 l 5
108 -38.138671875 m 4
 108.073893229 -32.4710286458 108.098524306 -25.8001302083 108.098524306 -19.4245515046 c 0
 108.098524306 -6.67339409722 108 4.896484375 108 4.896484375 c 6
 108 14.1005859375 104.158203125 16.6025390625 96.2314453125 16.6025390625 c 4
 95.8310546875 16.6025390625 95.4208984375 16.5966796875 95 16.583984375 c 4
 83.669921875 16.255859375 71.3349609375 16 59 16 c 4
 45.5673828125 16 35.1337890625 16.552734375 23 17.1455078125 c 4
 22.768575152 17.1568136381 22.5392249216 17.1624255587 22.3120364978 17.1624255587 c 0
 15.052307475 17.1624255587 10 11.4320914797 10 2.646484375 c 6
 10 -39.388671875 l 6
 10 -48.0712890625 13.4443359375 -50.798828125 21.2861328125 -51.353515625 c 4
 38.7841796875 -52.591796875 57.7685546875 -53.421875 75.7265625 -53.421875 c 4
 83.1982421875 -53.421875 87.9931640625 -53.27734375 95.1611328125 -52.9609375 c 4
 104.3515625 -52.9609375 107.887695312 -46.791015625 108 -38.138671875 c 4
EndSplineSet
Validated: 1
EndChar

StartChar: guillemotleft
Encoding: 199 171 139
AltUni2: 00f0c7.ffffffff.0
Width: 194
Flags: MW
HStem: 0 20G 63 114 330 114
VStem: 106 114 625 114
LayerCount: 2
Fore
SplineSet
0 427 m 2
 0 430.867108173 3.27130247909 432.63123618 6.65128729927 432.63123618 c 0
 10.2635761251 432.63123618 14 430.616280349 14 427 c 2
 14 48.5 l 2
 14 38.4110974226 13.1302326549 36.9725572645 22.4999984685 35.8991281134 c 4
 40.5422114283 33.8321567796 62.0104673674 32.9504959243 84.4321907826 32.9504959243 c 0
 122.186182467 32.9504959243 162.64347047 35.4502042041 194 39 c 1
 194 -75 l 1
 162.380086018 -76.3608382663 130.760172034 -76.9999463402 99.1402580506 -76.9999463402 c 0
 66.0935053665 -76.9999463402 33.0467526823 -76.3018577879 0 -75 c 1
 0 427 l 2
176.700195312 -37.607421875 m 2
 176.700195312 -11.3564453125 l 2
 176.700195312 0.1337890625 168.239257812 10.1513671875 159.068359375 10.1513671875 c 0
 157.413085938 10.1513671875 155.735351562 10.1083984375 154.080078125 10.07421875 c 0
 145.543945312 9.900390625 133.869140625 9.8125 126.098632812 9.8125 c 0
 100.967773438 9.8125 73.4560546875 10.724609375 36.1298828125 12.546875 c 0
 34.9677734375 12.603515625 33.8779296875 12.6376953125 32.859375 12.6376953125 c 0
 24.65625 12.6376953125 21.0498046875 11.9150390625 21.0498046875 0.8955078125 c 2
 21.0498046875 -31.5166015625 l 2
 21.0498046875 -46.3857421875 33.5517578125 -51.1689453125 46.2080078125 -51.625 c 0
 60.8271484375 -52.1533203125 76.1376953125 -52.4384765625 90.1591796875 -52.4384765625 c 0
 111.3203125 -52.4384765625 135.965820312 -51.7880859375 157.849609375 -50.3408203125 c 0
 170.456054688 -49.5078125 176.700195312 -52.478515625 176.700195312 -37.607421875 c 2
EndSplineSet
Validated: 1
EndChar

StartChar: oe
Encoding: 207 339 147
AltUni2: 00f0cf.ffffffff.0
Width: 160
Flags: MW
HStem: -105 21G<73.5 74> 74 20G
LayerCount: 2
Fore
SplineSet
64 94 m 1
 95 61 121 29 140 -3 c 1
 128 -32 111 -70 74 -105 c 0
 73.6666666667 -105 73.3333333333 -105.111111111 73.0740740741 -105.111111111 c 0
 72.7833613924 -105.111111111 72.5857864376 -104.971404521 72.5857864376 -104.378679656 c 0
 72.5857864376 -103.914213562 72.7071067812 -103.171572875 73 -102 c 0
 74.5316018776 -95.9914080186 75.244254321 -90.3020675116 75.244254321 -84.9025423892 c 0
 75.244254321 -44.4717328678 35.2873788381 -20.2902428319 0 0 c 1
 16 19 37 49 64 94 c 1
EndSplineSet
Validated: 1
EndChar

StartChar: clivisFinal6thWhite
Encoding: 213 8217 152
AltUni2: 00f0d5.ffffffff.0
Width: 128
Flags: MW
HStem: 0 20G
LayerCount: 2
Fore
SplineSet
107.5 -16.6982421875 m 6
 107.5 17.1904296875 l 6
 107.5 28.0947265625 104.557617188 36.650390625 97.58203125 39.8564453125 c 4
 86.7607421875 44.830078125 75.185546875 47.60546875 63.673828125 47.60546875 c 4
 53.0146484375 47.60546875 42.4091796875 45.2265625 32.505859375 40.009765625 c 4
 25.544921875 36.34375 20.5 26.6767578125 20.5 14.927734375 c 6
 20.5 -17.58984375 l 6
 20.5 -31.748046875 31.7099609375 -34.5869140625 41.2119140625 -35.7890625 c 4
 49.0972173513 -36.7866687571 56.5340979578 -37.3156929789 64.0591344752 -37.3156929789 c 4
 71.5318878234 -37.3156929789 79.091576342 -36.7939944297 87.263671875 -35.69140625 c 4
 97.30859375 -34.3359375 107.5 -31.7294921875 107.5 -16.6982421875 c 6
27.5 72.25 m 4
 42.8036785556 77.1635612941 55.5779368494 79.1460013943 68.7094346975 79.1460013943 c 0
 70.7934459081 79.1460013943 72.8864548103 79.0960702359 75 79 c 4
 97 78 108 74 128 62 c 5
 128 -76 l 5
 108 -63 87 -60 71 -60 c 4
 51 -60 20 -63 0 -76 c 5
 0 687 l 5
 5 687 11 684 14 681 c 5
 14 85.75 l 6
 14 75.5452290638 16.497194795 71.2282960559 22.0149847252 71.2282960559 c 0
 23.5923885908 71.2282960559 25.4166509051 71.5810978509 27.5 72.25 c 4
EndSplineSet
Validated: 1
EndChar

StartChar: clivisFinal7thWhite
Encoding: 214 247 153
AltUni2: 00f0d6.ffffffff.0
Width: 128
Flags: MW
HStem: -444 85 359 85
VStem: 0 42 212 42
LayerCount: 2
Fore
SplineSet
107.5 -16.6982421875 m 6
 107.5 17.1904296875 l 6
 107.5 28.0947265625 104.557617188 36.650390625 97.58203125 39.8564453125 c 4
 86.7607421875 44.830078125 75.185546875 47.60546875 63.673828125 47.60546875 c 4
 53.0146484375 47.60546875 42.4091796875 45.2265625 32.505859375 40.009765625 c 4
 25.544921875 36.34375 20.5 26.6767578125 20.5 14.927734375 c 6
 20.5 -17.58984375 l 6
 20.5 -31.748046875 31.7099609375 -34.5869140625 41.2119140625 -35.7890625 c 4
 49.0972173513 -36.7866687571 56.5340979578 -37.3156929789 64.0591344752 -37.3156929789 c 4
 71.5318878234 -37.3156929789 79.091576342 -36.7939944297 87.263671875 -35.69140625 c 4
 97.30859375 -34.3359375 107.5 -31.7294921875 107.5 -16.6982421875 c 6
23.2499990351 72.0045712878 m 4
 37.766754291 77.3947805683 53.161990743 79.2306562732 66.6861757981 79.2306562732 c 0
 69.5500556794 79.2306562732 72.3300334076 79.1483314774 75 79 c 4
 97 78 108 74 128 62 c 5
 128 -76 l 5
 108 -63 87 -60 71 -60 c 4
 51 -60 20 -63 0 -76 c 5
 0 812 l 5
 5 812 11 809 14 806 c 5
 14 78.25 l 6
 14 73.4818540527 14.6223809913 70.7792794756 18.013717474 70.7792794756 c 0
 19.3126985534 70.7792794756 21.0179169933 71.1757779986 23.2499990351 72.0045712878 c 4
EndSplineSet
Validated: 1
EndChar

StartChar: clivisFinal8veWhite
Encoding: 215 9674 154
AltUni2: 00f0d7.ffffffff.0
Width: 128
Flags: MW
HStem: 78 190 369 20G
LayerCount: 2
Fore
SplineSet
107.5 -16.6982421875 m 6
 107.5 17.1904296875 l 6
 107.5 28.0947265625 104.557617188 36.650390625 97.58203125 39.8564453125 c 4
 86.7607421875 44.830078125 75.185546875 47.60546875 63.673828125 47.60546875 c 4
 53.0146484375 47.60546875 42.4091796875 45.2265625 32.505859375 40.009765625 c 4
 25.544921875 36.34375 20.5 26.6767578125 20.5 14.927734375 c 6
 20.5 -17.58984375 l 6
 20.5 -31.748046875 31.7099609375 -34.5869140625 41.2119140625 -35.7890625 c 4
 49.0972173513 -36.7866687571 56.5340979578 -37.3156929789 64.0591344752 -37.3156929789 c 4
 71.5318878234 -37.3156929789 79.091576342 -36.7939944297 87.263671875 -35.69140625 c 4
 97.30859375 -34.3359375 107.5 -31.7294921875 107.5 -16.6982421875 c 6
26.25 72.625 m 0
 41.0221682395 77.5280922228 54.4422486487 79.1773507162 67.4242710511 79.1773507162 c 0
 69.9639984597 79.1773507162 72.4869601901 79.1142290823 75 79 c 0
 97 78 108 74 128 62 c 1
 128 -76 l 1
 108 -63 87 -60 71 -60 c 0
 51 -60 20 -63 0 -76 c 1
 0 937 l 1
 5 937 11 934 14 931 c 1
 14 81.25 l 2
 14 74.6055744279 15.3927817266 71.3410647686 19.9518245252 71.3410647686 c 0
 21.6060934091 71.3410647686 23.6772427966 71.7708810093 26.25 72.625 c 0
EndSplineSet
Validated: 1
EndChar

StartChar: ydieresis
Encoding: 216 255 155
AltUni2: 00f0d8.ffffffff.0
Width: 12
Flags: MW
HStem: 2 21G 212 20G
LayerCount: 2
Fore
SplineSet
-8.75 -19.4482421875 m 6
 -8.75 14.4404296875 l 6
 -8.75 25.3447265625 -11.6923828125 33.900390625 -18.66796875 37.1064453125 c 4
 -29.4892578125 42.080078125 -41.064453125 44.85546875 -52.576171875 44.85546875 c 4
 -63.2353515625 44.85546875 -73.8408203125 42.4765625 -83.744140625 37.259765625 c 4
 -90.705078125 33.59375 -95.75 23.9267578125 -95.75 12.177734375 c 6
 -95.75 -20.33984375 l 6
 -95.75 -34.498046875 -84.5400390625 -37.3369140625 -75.0380859375 -38.5390625 c 4
 -67.15234375 -39.537109375 -59.7158203125 -40.0654296875 -52.1904296875 -40.0654296875 c 4
 -44.7177734375 -40.0654296875 -37.158203125 -39.5439453125 -28.986328125 -38.44140625 c 4
 -18.94140625 -37.0859375 -8.75 -32.9794921875 -8.75 -19.4482421875 c 6
12.6669921875 -200 m 1
 -1.3330078125 -200 l 1
 -1.3330078125 -86.8505859375 l 2
 -1.3330078125 -75.0185546875 -2.2001953125 -69.375 -11.3330078125 -67.05859375 c 0
 -24.7685546875 -63.6513671875 -36.224609375 -63 -48.3330078125 -63 c 0
 -68.3330078125 -63 -91.3330078125 -68 -115.333007812 -76 c 1
 -115.333007812 59 l 1
 -92.2890625 71.408203125 -72.3876953125 75.17578125 -52.8427734375 75.17578125 c 0
 -50.3359375 75.17578125 -47.8349609375 75.11328125 -45.3330078125 75 c 0
 -22.640625 74.1591796875 -13.369140625 72.6123046875 2.6669921875 66.203125 c 0
 10.9599609375 62.888671875 12.6669921875 57.9443359375 12.6669921875 45.3154296875 c 2
 12.6669921875 -200 l 1
EndSplineSet
Validated: 1
EndChar

StartChar: Ydieresis
Encoding: 217 376 156
AltUni2: 00f0d9.ffffffff.0
Width: 14
Flags: MW
HStem: -138 39 99 37
VStem: -80 49
LayerCount: 2
Fore
SplineSet
-8.75 -19.4482421875 m 6
 -8.75 14.4404296875 l 6
 -8.75 25.3447265625 -11.6923828125 33.900390625 -18.66796875 37.1064453125 c 4
 -29.4892578125 42.080078125 -41.064453125 44.85546875 -52.576171875 44.85546875 c 4
 -63.2353515625 44.85546875 -73.8408203125 42.4765625 -83.744140625 37.259765625 c 4
 -90.705078125 33.59375 -95.75 23.9267578125 -95.75 12.177734375 c 6
 -95.75 -20.33984375 l 6
 -95.75 -34.498046875 -84.5400390625 -37.3369140625 -75.0380859375 -38.5390625 c 4
 -67.15234375 -39.537109375 -59.7158203125 -40.0654296875 -52.1904296875 -40.0654296875 c 4
 -44.7177734375 -40.0654296875 -37.158203125 -39.5439453125 -28.986328125 -38.44140625 c 4
 -18.94140625 -37.0859375 -8.75 -32.9794921875 -8.75 -19.4482421875 c 6
14 -325 m 1
 11 -325.5 9.25 -325.75 7.375 -325.75 c 0
 5.5 -325.75 3.5 -325.5 0 -325 c 1
 0 -90.8427734375 l 2
 0 -75.9833984375 -0.370337557018 -69.3228870236 -12 -66.5682638972 c 0
 -24.5818869725 -63.5880951262 -35.4968959231 -63 -47 -63 c 0
 -67 -63 -90 -68 -114 -76 c 1
 -114 59 l 1
 -90.955945658 71.4083369534 -71.0540714374 75.1756785729 -51.5094323586 75.1756785729 c 0
 -49.0023695751 75.1756785729 -46.5011847876 75.1136902176 -44 75 c 0
 -25.1481113968 74.1803526694 -13.6862620053 72.6888835923 2.5 66.6709944606 c 0
 11.2302458537 63.4251770123 14 58.4365234375 14 45.1572265625 c 2
 14 -325 l 1
EndSplineSet
Validated: 1
EndChar

StartChar: fraction
Encoding: 218 8260 157
AltUni2: 00f0da.ffffffff.0
Width: 14
Flags: MW
HStem: 0 24 483 24
LayerCount: 2
Fore
SplineSet
-8.75 -19.4482421875 m 6
 -8.75 14.4404296875 l 6
 -8.75 25.3447265625 -11.6923828125 33.900390625 -18.66796875 37.1064453125 c 4
 -29.4892578125 42.080078125 -41.064453125 44.85546875 -52.576171875 44.85546875 c 4
 -63.2353515625 44.85546875 -73.8408203125 42.4765625 -83.744140625 37.259765625 c 4
 -90.705078125 33.59375 -95.75 23.9267578125 -95.75 12.177734375 c 6
 -95.75 -20.33984375 l 6
 -95.75 -34.498046875 -84.5400390625 -37.3369140625 -75.0380859375 -38.5390625 c 4
 -67.15234375 -39.537109375 -59.7158203125 -40.0654296875 -52.1904296875 -40.0654296875 c 4
 -44.7177734375 -40.0654296875 -37.158203125 -39.5439453125 -28.986328125 -38.44140625 c 4
 -18.94140625 -37.0859375 -8.75 -32.9794921875 -8.75 -19.4482421875 c 6
14 -450 m 1
 9 -451 7 -451 0 -450 c 1
 0 -70 l 1
 -18 -64 -32 -63 -47 -63 c 0
 -67 -63 -90 -68 -114 -76 c 1
 -114 59 l 1
 -88 73 -66 76 -44 75 c 0
 -19 74 -9 72 14 62 c 1
 14 -450 l 1
EndSplineSet
Validated: 33
EndChar

StartChar: guilsinglleft
Encoding: 220 8249 158
AltUni2: 00f0dc.ffffffff.0
Width: 14
Flags: MW
HStem: -27 56
VStem: -204 54
LayerCount: 2
Fore
SplineSet
-8.75 -19.4482421875 m 6
 -8.75 14.4404296875 l 6
 -8.75 25.3447265625 -11.6923828125 33.900390625 -18.66796875 37.1064453125 c 4
 -29.4892578125 42.080078125 -41.064453125 44.85546875 -52.576171875 44.85546875 c 4
 -63.2353515625 44.85546875 -73.8408203125 42.4765625 -83.744140625 37.259765625 c 4
 -90.705078125 33.59375 -95.75 23.9267578125 -95.75 12.177734375 c 6
 -95.75 -20.33984375 l 6
 -95.75 -34.498046875 -84.5400390625 -37.3369140625 -75.0380859375 -38.5390625 c 4
 -67.15234375 -39.537109375 -59.7158203125 -40.0654296875 -52.1904296875 -40.0654296875 c 4
 -44.7177734375 -40.0654296875 -37.158203125 -39.5439453125 -28.986328125 -38.44140625 c 4
 -18.94140625 -37.0859375 -8.75 -32.9794921875 -8.75 -19.4482421875 c 6
14 -575 m 1
 10 -576 7 -576 0 -575 c 1
 0 -70 l 1
 -18 -64 -32 -63 -47 -63 c 0
 -67 -63 -90 -68 -114 -76 c 1
 -114 59 l 1
 -73 85 -22 82 14 62 c 1
 14 -575 l 1
EndSplineSet
Validated: 33
EndChar

StartChar: guilsinglright
Encoding: 221 8250 159
AltUni2: 00f0dd.ffffffff.0
Width: 14
Flags: MW
HStem: -129 70 59 70
VStem: 0 35 472 35
LayerCount: 2
Fore
SplineSet
-8.75 -19.4482421875 m 6
 -8.75 14.4404296875 l 6
 -8.75 25.3447265625 -11.6923828125 33.900390625 -18.66796875 37.1064453125 c 4
 -29.4892578125 42.080078125 -41.064453125 44.85546875 -52.576171875 44.85546875 c 4
 -63.2353515625 44.85546875 -73.8408203125 42.4765625 -83.744140625 37.259765625 c 4
 -90.705078125 33.59375 -95.75 23.9267578125 -95.75 12.177734375 c 6
 -95.75 -20.33984375 l 6
 -95.75 -34.498046875 -84.5400390625 -37.3369140625 -75.0380859375 -38.5390625 c 4
 -67.15234375 -39.537109375 -59.7158203125 -40.0654296875 -52.1904296875 -40.0654296875 c 4
 -44.7177734375 -40.0654296875 -37.158203125 -39.5439453125 -28.986328125 -38.44140625 c 4
 -18.94140625 -37.0859375 -8.75 -32.9794921875 -8.75 -19.4482421875 c 6
14 -700 m 1
 10 -701 7 -701 0 -700 c 1
 0 -70 l 1
 -18 -64 -32 -63 -47 -63 c 0
 -67 -63 -90 -68 -114 -76 c 1
 -114 59 l 1
 -91 72 -64 76 -44 75 c 0
 -19 74 -9 72 14 62 c 1
 14 -700 l 1
EndSplineSet
Validated: 33
EndChar

StartChar: fi
Encoding: 222 64257 160
AltUni2: 00f0de.ffffffff.0
Width: 14
Flags: MW
HStem: 226 20G
VStem: 47 99 232 20 338 99
LayerCount: 2
Fore
SplineSet
-8.75 -19.4482421875 m 6
 -8.75 14.4404296875 l 6
 -8.75 25.3447265625 -11.6923828125 33.900390625 -18.66796875 37.1064453125 c 4
 -29.4892578125 42.080078125 -41.064453125 44.85546875 -52.576171875 44.85546875 c 4
 -63.2353515625 44.85546875 -73.8408203125 42.4765625 -83.744140625 37.259765625 c 4
 -90.705078125 33.59375 -95.75 23.9267578125 -95.75 12.177734375 c 6
 -95.75 -20.33984375 l 6
 -95.75 -34.498046875 -84.5400390625 -37.3369140625 -75.0380859375 -38.5390625 c 4
 -67.15234375 -39.537109375 -59.7158203125 -40.0654296875 -52.1904296875 -40.0654296875 c 4
 -44.7177734375 -40.0654296875 -37.158203125 -39.5439453125 -28.986328125 -38.44140625 c 4
 -18.94140625 -37.0859375 -8.75 -32.9794921875 -8.75 -19.4482421875 c 6
14 -825 m 1
 10 -826 7 -826 0 -825 c 1
 0 -70 l 1
 -18 -64 -32 -63 -47 -63 c 0
 -67 -63 -90 -68 -114 -76 c 1
 -114 59 l 1
 -91 72 -64 76 -44 75 c 0
 -19 74 -9 72 14 62 c 1
 14 -825 l 1
EndSplineSet
Validated: 33
EndChar

StartChar: mensuralBrevisWhite
Encoding: 223 64258 161
AltUni2: 00f0df.ffffffff.0 00e9ee.ffffffff.0
Width: 171
VWidth: 1330
Flags: HMW
HStem: -509 113 -113 109
VStem: 363 103
LayerCount: 2
Fore
SplineSet
79 88 m 0
 105 88 141 89 163 90 c 0
 166 91 l 0
 169 91 171 90 171 86 c 0
 171 86 171 85 171 82 c 0
 170 67 170 26 170 -6 c 27
 170 -35 171 -69 171 -83 c 0
 171 -86 171 -88 171 -88 c 2
 171 -93 171 -93 168 -93 c 0
 167 -93 165 -92 164 -92 c 0
 138 -91 114 -89 84 -89 c 0
 60 -89 29 -91 8 -92 c 0
 6 -92 5 -94 3 -94 c 0
 -2 -94 -2 -92 -2 -85 c 1
 -2 -68 -1 -50 -1 -32 c 0
 -1 -19 -1 -7 -1 6 c 0
 -1 32 -2 57 -2 85 c 0
 -2 86 l 0
 -2 90 -1 91 2 91 c 0
 3 91 4 90 4 90 c 0
 29 88 54 88 79 88 c 0
79 51 m 0
 61 51 57 51 45 50 c 0
 29 49 16 39 16 27 c 0
 16 15 16 10 16 -1 c 0
 16 -3 16 -5 16 -7 c 0
 16 -20 16 -26 17 -39 c 0
 17 -45 20 -53 29 -54 c 0
 43 -55 64 -56 80 -56 c 0
 81 -56 83 -56 84 -56 c 0
 98 -56 110 -55 127 -53 c 0
 141 -51 153 -40 153 -24 c 2
 153 -24 153 -2 153 10 c 0
 153 20 153 27 153 35 c 0
 153 44 146 49 137 49 c 0
 121 50 98 51 79 51 c 0
EndSplineSet
EndChar

StartChar: daggerdbl
Encoding: 224 8225 162
AltUni2: 00f0e0.ffffffff.0
Width: 432
Flags: MW
HStem: 0 20G
LayerCount: 2
Fore
SplineSet
432 -75 m 1
 381 -71 252 -35 178 -12 c 0
 110 9 64 33 0 58 c 1
 0 199 l 1
 74 169 115.312229424 144.961717362 169 127 c 0
 237 104.25 290 75 432 66 c 1
 432 -75 l 1
187.099609375 6.185546875 m 0
 237.104492188 -9.2568359375 329.880859375 -37.57421875 381.517578125 -47.578125 c 0
 384.993164062 -48.2509765625 387.984375 -48.640625 390.540039062 -48.640625 c 0
 399.813476562 -48.640625 403.333984375 -43.505859375 403.333984375 -28.150390625 c 2
 403.333984375 16.787109375 l 2
 403.333984375 35.0087890625 383.673007015 45.5048019704 369 47.265625 c 0
 294.568699936 56.197696466 251.305232137 77.387651873 172.650390625 102.235351562 c 0
 135.864022287 113.856462426 89.8466796875 137.79296875 46.9755859375 156.365234375 c 0
 44.09375 157.614257812 41.2578125 158.349609375 38.666015625 158.349609375 c 0
 31.943359375 158.349609375 26.859375 153.399414062 26.859375 139.608398438 c 2
 26.859375 92.408203125 l 2
 26.859375 74.7705078125 45.728515625 61.9755859375 57.33203125 57.267578125 c 0
 97.9609375 40.783203125 141.038900918 20.4098996302 187.099609375 6.185546875 c 0
EndSplineSet
Validated: 1
EndChar

StartChar: periodcentered
Encoding: 225 183 163
AltUni2: 00f0e1.ffffffff.0
Width: 448
Flags: MW
HStem: -136 21G 116 20G
LayerCount: 2
Fore
SplineSet
448 -75 m 1
 395 -54 262 16 185 63 c 0
 114 106 67 137 0 183 c 1
 0 324 l 1
 78 270 119 233 176 199 c 0
 246 156 300 121 448 65 c 1
 448 -75 l 1
196.16015625 80.7890625 m 4
 248.676757812 48.822265625 346.705078125 -5.9765625 401.979492188 -32.2060546875 c 0
 406.04085927 -34.1331568683 409.689993563 -35.2802480738 412.787265788 -35.2802480738 c 0
 419.589134545 -35.2802480738 423.729492188 -29.7480758725 423.729492188 -14.7958984375 c 2
 423.729492188 28.0546875 l 2
 423.729492188 45.6748046875 409.90234375 58.64453125 398.5 63.099609375 c 0
 292.270507812 104.602539062 232.048568445 143.723495404 175.280273438 178.229492188 c 0
 136.064453125 202.06640625 87.576171875 238.440429688 41.8154296875 271.602539062 c 0
 37.3938608847 274.806852348 33.0179753267 277.85831889 29.6115945423 277.85831889 c 0
 25.7322695142 277.85831889 23.1103515625 273.900694619 23.1103515625 261.704101562 c 2
 23.1103515625 215.80859375 l 2
 23.1103515625 191.348632812 39.6328125 179.793945312 50.5 172.599609375 c 0
 97.462890625 141.508789062 144.074251236 112.493694866 196.16015625 80.7890625 c 4
EndSplineSet
Validated: 1
EndChar

StartChar: quotesinglbase
Encoding: 226 8218 164
AltUni2: 00f0e2.ffffffff.0
Width: 538
Flags: MW
HStem: -142 21G 122 20G
LayerCount: 2
Fore
SplineSet
538 -75 m 1
 453 -45 306 59 216 126 c 0
 132 189 80 243 0 308 c 1
 0 449 l 1
 93 374 143 326 208 273 c 1
 296 203 342 158 538 68 c 1
 538 31 538 -51 538 -75 c 1
227.150390625 140.01953125 m 0
 299.388671875 87.328125 415.165039062 5.0322265625 493.961914062 -33.35546875 c 4
 498.916992188 -35.7705078125 503.100585938 -37.416015625 506.416992188 -37.416015625 c 4
 512.205078125 -37.416015625 515.3515625 -32.404296875 515.3515625 -17.71875 c 6
 515.3515625 36.841796875 l 6
 515.3515625 53.7275390625 513.072265625 62.9697265625 502.021484375 68.0986328125 c 4
 377.348632812 125.967773438 312.657215445 170.006577904 204.830078125 256.26953125 c 0
 154.021484375 296.916992188 103.221679688 339.369140625 40.8798828125 390.834960938 c 0
 37.1220703125 393.9375 33.2490234375 396.291992188 29.9951171875 396.291992188 c 0
 25.353515625 396.291992188 21.9697265625 391.501953125 21.9697265625 377.259765625 c 2
 21.9697265625 330.44921875 l 2
 21.9697265625 308.901367188 30.5283203125 302.696289062 41.5 293.5 c 0
 103.333984375 241.669921875 157.518603052 190.809732005 227.150390625 140.01953125 c 0
EndSplineSet
Validated: 1
EndChar

StartChar: quotedblbase
Encoding: 227 8222 165
AltUni2: 00f0e3.ffffffff.0
Width: 550
Flags: MW
HStem: -3 252
VStem: 9 186
LayerCount: 2
Fore
SplineSet
550 -75 m 1
 463 -24 313 95 223 185 c 0
 138 270 86 340 0 433 c 1
 0 574 l 1
 95 476 152 418 218 348 c 0
 303 259 361 185 550 68 c 1
 550 -75 l 1
234.580078125 195.48046875 m 0
 304.466796875 126.434570312 424.36101548 36.5568539286 482 -0.0009765625 c 0
 495.791194308 -8.7481144239 523.907226562 -26.6064453125 524.099609375 2.1396484375 c 6
 524.333007812 32 l 2
 524.489469354 55.3690696399 494.689439873 86.0427867768 481.333007812 94.6669921875 c 0
 374.017457758 163.960299203 315.124483295 219.921516498 212.01953125 329.900390625 c 0
 160.107421875 385.2734375 110.583984375 432.68359375 43.658203125 501.450195312 c 0
 33.5986328125 511.78515625 25.900390625 515.500976562 25.900390625 486.41015625 c 2
 25.900390625 447.400390625 l 2
 25.900390625 424.361328125 43.4677734375 404.413085938 53.6669921875 393.334960938 c 0
 125.221679688 315.61328125 160.65232948 268.518778688 234.580078125 195.48046875 c 0
EndSplineSet
Validated: 33
EndChar

StartChar: perthousand
Encoding: 228 8240 166
AltUni2: 00f0e4.ffffffff.0
Width: 668
Flags: MW
HStem: 53 150
VStem: 28 137
LayerCount: 2
Fore
SplineSet
668 -75 m 1
 562 -10 378 136 271 251 c 0
 168 361 99 455 0 558 c 1
 0 699 l 1
 115 580 187 507 266 418 c 0
 366 305 439 213 668 65 c 1
 668 -75 l 1
281 260 m 0
 380 154 551 20 658 -50 c 1
 658 58 l 1
 475 177 391 256 255 409 c 0
 182 491 111 560 10 664 c 1
 10 564 l 1
 107 463 180 369 281 260 c 0
EndSplineSet
Validated: 1
EndChar

StartChar: Acircumflex
Encoding: 229 194 167
AltUni2: 00f0e5.ffffffff.0
Width: 764
Flags: MW
HStem: -207 150 46 150 299 150 553 150 801 150
VStem: -1312 137 -1135 137
LayerCount: 2
Fore
SplineSet
764 -75 m 1
 643 4 439 186 313 321 c 0
 195 448 114 562 0 683 c 1
 0 824 l 1
 132 684 209 590 304 487 c 0
 423 359 509 267 764 65 c 1
 764 -75 l 1
323 330 m 0
 441 203 632 35 754 -49 c 1
 754 58 l 1
 502 258 412 350 294 478 c 0
 205 574 127 662 10 789 c 1
 10 689 l 1
 122 569 206 456 323 330 c 0
EndSplineSet
Validated: 1
EndChar

StartChar: ascii230
Encoding: 230 202 168
AltUni2: 00f0e6.ffffffff.0
Width: 868
Flags: W
HStem: -586 21G -183 108 69 108 221 29 254 20
VStem: 210 28 210 42 357 32 357 44 603 110
LayerCount: 2
Fore
SplineSet
868 -75 m 1xfcc0
 730 18 484 230 354 382 c 0
 224 534 126 650 0 808 c 1
 0 949 l 1xfb40
 150 778 241 676 344 552 c 0
 475 394 613 259 868 66 c 1
 868 -75 l 1xfcc0
365 391 m 0
 487 248 718 50 858 -48 c 1
 858 59 l 1
 606 250 464 385 333 543 c 0
 236 660 145 758 10 912 c 1
 10 813 l 1
 134 657 236 542 365 391 c 0
EndSplineSet
Validated: 1
EndChar

StartChar: Aacute
Encoding: 231 193 169
AltUni2: 00f0e7.ffffffff.0
Width: 968
Flags: MW
HStem: -111 19 105 20G
VStem: -1 19
LayerCount: 2
Fore
SplineSet
968 -75 m 1
 814 35 556 281 393 462 c 1
 239 631 144 761 0 933 c 1
 0 1074 l 1
 170 876 265 763 385 623 c 0
 538 446 662 326 968 66 c 1
 968 -75 l 1
403 471 m 0
 558 299 803 69 958 -47 c 1
 958 60 l 1
 655 317 527 437 375 614 c 0
 260 747 165 856 10 1036 c 1
 10 938 l 1
 152 769 251 639 403 471 c 0
EndSplineSet
Validated: 1
EndChar

StartChar: Edieresis
Encoding: 232 203 170
AltUni2: 00f0e8.ffffffff.0
Width: 432
Flags: MW
HStem: -121 85
VStem: 86 85
LayerCount: 2
Fore
SplineSet
432 -75 m 1
 348 -69 275 -53 201 -26 c 0
 129 0 68 34 0 59 c 1
 0 199 l 1
 75 169 140 124 192 101 c 0
 262 70 339 28 432 57 c 1
 432 -75 l 1
207.299804688 -6.8837890625 m 0
 263.2421875 -26.6279296875 329.036132812 -41.337890625 390.86328125 -47.8994140625 c 0
 401.038085938 -48.9794921875 405.000976562 -45.689453125 405.000976562 -34.400390625 c 2
 405.000976562 17.509765625 l 2
 405.000976562 27.7939453125 401.690429688 35.26171875 393.038085938 34.09765625 c 0
 282.177734375 19.1875 135.679611582 115.298661976 37.916015625 159.969726562 c 0
 31.771484375 162.77734375 28.1279296875 156.376953125 28.1279296875 147.586914062 c 2
 28.1279296875 87.537109375 l 2
 28.1279296875 73.607421875 40.615234375 64.3056640625 47.333984375 61.599609375 c 0
 100.141601562 40.33203125 149.818123014 13.4036271908 207.299804688 -6.8837890625 c 0
EndSplineSet
Validated: 33
EndChar

StartChar: Egrave
Encoding: 233 200 171
AltUni2: 00f0e9.ffffffff.0
Width: 448
Flags: MW
VStem: -117 14 -46 14
LayerCount: 2
Fore
SplineSet
448 -75 m 1
 307 -69 255 -16 184 33 c 0
 116 80 59 131 0 183 c 1
 0 324 l 1
 87 236 124 213 175 169 c 0
 222.151206401 127.53945644 322.834558305 41.7992369711 399.682845238 41.7992369711 c 0
 417.364496823 41.7992369711 433.784339422 46.3382545666 448 57 c 1
 448 -75 l 1
400.333984375 -47.333984375 m 0
 416.225255966 -47.4495910009 426.541015625 -39.154296875 426.541015625 -22.009765625 c 2
 426.541015625 -4.4853515625 l 2
 426.541015625 21.0166015625 413.323612549 23.599609375 394.5 23.599609375 c 0
 318.697265625 23.599609375 217.244060708 108.590276532 170.059570312 149.751953125 c 0
 130.21484375 184.510742188 100.416015625 204.5859375 45.4404296875 256.473632812 c 0
 41.2197265625 260.456054688 37.15625 264.264648438 34.0888671875 264.264648438 c 0
 30.83203125 264.264648438 28.7001953125 259.969726562 28.7001953125 247.029296875 c 2
 28.7001953125 203.669921875 l 2
 28.7001953125 181.795898438 38.818359375 169.68359375 50.08984375 159.971679688 c 0
 111.999023438 106.627929688 175.149481811 57.2065911144 241.669921875 10.251953125 c 0
 286.251752674 -21.2169265768 344.49292403 -46.9277490064 400.333984375 -47.333984375 c 0
EndSplineSet
Validated: 33
EndChar

StartChar: Iacute
Encoding: 234 205 172
AltUni2: 00f0ea.ffffffff.0
Width: 538
Flags: MW
HStem: -223 21 -76 51 190 30 231 18 413 24
VStem: 2 93 275 161 492 25 613 59
LayerCount: 2
Fore
SplineSet
538 -75 m 1
 535.746038646 -75.0834800501 533.484672817 -75.1247110302 531.216447916 -75.1247110302 c 0
 424.801225836 -75.1247110302 303.288658972 15.6278609776 223 92 c 0
 143 168 81 239 0 308 c 1
 0 449 l 1
 92 364 168 282 229 225 c 0
 298.026803741 160.341981306 393.010952072 45.2961760559 493.94031695 45.2961760559 c 0
 508.522889366 45.2961760559 523.229570098 47.6977943941 538 53 c 1
 538 28.3333333333 538.444444444 -9.66666666667 538.444444444 -39.3703703704 c 0
 538.444444444 -54.2222222222 538.333333333 -67 538 -75 c 1
232 102 m 5
 307.414498293 31.2989078502 413.043025148 -47.4000153895 506.999995907 -59.5404290277 c 4
 533.320568533 -62.9413756137 525.385492823 -14.9917215288 524.134765625 0.6669921875 c 4
 521.992794325 27.4838035855 521.368981301 30.9153343479 494.263387293 30.9153343479 c 4
 387.072053547 30.9153343479 290.449617063 148.130486595 219 215 c 4
 167.734558419 263.469144768 104.305798819 329.314458133 30.3333520298 401.198524292 c 4
 26.5910313815 404.835192223 23.4028385477 407.02414814 20.8634726662 407.02414814 c 4
 16.4531908787 407.02414814 14 400.421485121 14 383.333007812 c 6
 14 334.333007812 l 6
 14 313.375 22.7830936518 306.582261773 33.3333333333 297.241170806 c 4
 103.250930542 235.33673494 160.478885061 170.770302826 232 102 c 5
EndSplineSet
Validated: 33
EndChar

StartChar: Icircumflex
Encoding: 235 206 173
AltUni2: 00f0eb.ffffffff.0
Width: 550
Flags: MW
HStem: 240 18 422 24
VStem: -1407 93 -1135 93 -917 25 -863 93 -645 25 -425 77
LayerCount: 2
Fore
SplineSet
550 -75 m 1
 429 -78 284 17 219 111 c 0
 144 218 77 327 0 433 c 1
 0 574 l 1
 87 462 143 380 202 297 c 0
 318 136 372 25 550 51 c 1
 550 -75 l 1
230 119 m 0
 291 31 424 -57 536 -61 c 1
 536 35 l 1
 352 16 281 164 191 289 c 0
 138 364 87 437 14 533 c 1
 14 438 l 1
 90 333 156 225 230 119 c 0
EndSplineSet
Validated: 33
EndChar

StartChar: Idieresis
Encoding: 236 207 174
AltUni2: 00f0ec.ffffffff.0
Width: 668
Flags: MW
HStem: 240 18 422 24
VStem: -930 93 -440 25 -386 93 -168 25 104 25
LayerCount: 2
Fore
SplineSet
668 -75 m 1
 433 -40 368 40 271 163 c 0
 178 281 87 444 0 558 c 1
 0 699 l 1
 118 562 194 443 266 348 c 0
 352 233 494 0 668 65 c 1
 668 -75 l 1
282 172 m 0
 376 53 437 -23 654 -59 c 1
 654 46 l 1
 479 0 342 223 254 340 c 0
 188 428 118 536 14 661 c 1
 14 563 l 1
 100 449 190 288 282 172 c 0
EndSplineSet
Validated: 33
EndChar

StartChar: Igrave
Encoding: 237 204 175
AltUni2: 00f0ed.ffffffff.0
Width: 764
Flags: MW
VStem: 16 19
LayerCount: 2
Fore
SplineSet
764 -75 m 1
 552 -38 421 44 313 188 c 0
 211 324 99 540 0 683 c 1
 0 824 l 1
 132 684 221 507 304 387 c 0
 402 246 593 14 764 54 c 1
 764 -75 l 1
324 196 m 0
 427 59 551 -20 750 -58 c 1
 750 37 l 1
 573 13 385 245 292 379 c 0
 198 515 124 662 14 788 c 1
 14 687 l 1
 112 544 223 331 324 196 c 0
EndSplineSet
Validated: 33
EndChar

StartChar: Oacute
Encoding: 238 211 176
AltUni2: 00f0ee.ffffffff.0
Width: 868
Flags: MW
HStem: 1 108
VStem: -132 281
LayerCount: 2
Fore
SplineSet
868 -75 m 1
 619 -81 454 125 336 289 c 0
 221 449 126 636 0 808 c 1
 0 949 l 1
 146 771 266 588 345 447 c 0
 443 271 665 12 868 52 c 1
 868 -75 l 1
347 297 m 0
 464 135 621 -59 854 -61 c 1
 854 36 l 1
 645 10 428 271 333 440 c 0
 259 572 148 742 14 909 c 1
 14 813 l 1
 139 642 233 456 347 297 c 0
EndSplineSet
Validated: 33
EndChar

StartChar: Ocircumflex
Encoding: 239 212 177
AltUni2: 00f0ef.ffffffff.0
Width: 968
Flags: MW
HStem: -388 21G 147 20G
LayerCount: 2
Fore
SplineSet
968 -75 m 1
 736 -85 527 184 381 375 c 0
 240 559 145 748 0 933 c 1
 0 1074 l 1
 170 876 278 693 385 543 c 0
 573 282 816 0 968 51 c 1
 968 -75 l 1
652 85 m 0
 746 0 848 -61 954 -61 c 1
 954 33 l 1
 718 -8 345 578 204 782 c 0
 149 863 88 948 14 1036 c 1
 14 938 l 1
 157 754 252 566 392 384 c 0
 465 288 553 174 652 85 c 0
EndSplineSet
Validated: 33
EndChar

StartChar: obliqueDesc3rdWhite
Encoding: 241 210 178
AltUni2: 00e987.ffffffff.0 00f0f1.ffffffff.0
Width: 405
Flags: HMW
HStem: -911 34 1340 209
VStem: 0 51 155 46
LayerCount: 2
Fore
SplineSet
386 -38.783203125 m 5
 386 55.158203125 l 2
 386 70.0419921875 379.220703125 72.05859375 372.5 77.9912109375 c 0
 292.76953125 148.365234375 232.950195312 196.98828125 146.25 242.962890625 c 0
 106.809570312 263.876953125 56.9619140625 282.91796875 19.25 288.904296875 c 1
 19.25 201.166992188 l 6
 19.25 192.6796875 20.0107421875 188.234375 30.1669921875 185.493164062 c 4
 66.8828125 175.583984375 103.342773438 162.609375 134.775390625 144.950195312 c 4
 214.455078125 100.184570312 269.26953125 63.5390625 335.924804688 5.755859375 c 4
 352.521484375 -8.6318359375 366.200195312 -20.4326171875 386 -38.783203125 c 5
405 -94.876953125 m 1
 383 -74.4873046875 369.190429688 -63.3203125 350.75 -47.333984375 c 0
 276.781312245 16.7891215347 215.593647081 58.252512223 127.25 108.715820312 c 0
 89.0283203125 130.548828125 45.0625 144.157226562 0 155.862304688 c 1
 0 336.998046875 l 1
 49.6748046875 323.8359375 95.263671875 308.490234375 140 287.063476562 c 0
 239.111328125 239.591796875 301.41015625 182.510742188 390 104.31640625 c 0
 397.467773438 97.7255859375 405 95.484375 405 78.9462890625 c 2
 405 -94.876953125 l 1
EndSplineSet
EndChar

StartChar: obliqueDesc4thWhite
Encoding: 242 218 179
AltUni2: 00e98b.ffffffff.0 00f0f2.ffffffff.0
Width: 538
Flags: HMW
HStem: -45.4289 40.3193
LayerCount: 2
Fore
SplineSet
26.900390625 446.833007812 m 5
 26.900390625 284.239257812 l 5
 158.815429688 237.538085938 209.70703125 207.532226562 292.849609375 144.549804688 c 4
 386.08984375 73.91796875 460.060546875 11.9384765625 511.099609375 -57.8330078125 c 5
 511.099609375 104.760742188 l 5
 470.712890625 169.030273438 413.546875 232.365234375 314.450195312 303.224609375 c 4
 208.122070312 379.255859375 109.6328125 428.68359375 26.900390625 446.833007812 c 5
0 467.370117188 m 1
 91.9248046875 447.204101562 201.357421875 392.284179688 319.5 307.805664062 c 0
 429.607421875 229.072265625 493.125 158.700195312 538 87.2900390625 c 1
 538 -93.3701171875 l 1
 481.290039062 -15.845703125 399.099609375 53.0205078125 295.5 131.5 c 0
 203.119140625 201.48046875 146.572265625 234.8203125 0 286.709960938 c 1
 0 467.370117188 l 1
EndSplineSet
EndChar

StartChar: obliqueDesc5thWhite
Encoding: 243 219 180
AltUni2: 00e98f.ffffffff.0 00f0f3.ffffffff.0
Width: 676
Flags: HMW
HStem: -72.445 22.86 -7.675 100.33 177.745 100.33 319.985 22.86
VStem: 1 31 217 68
LayerCount: 2
Fore
SplineSet
33.8251953125 566.541015625 m 1
 33.8251953125 405.377929688 l 1
 156.721679688 360.166992188 262.48046875 298.69140625 372.56640625 213.715820312 c 0
 479.124023438 131.466796875 563.743164062 48.0859375 642.674804688 -45.216796875 c 1
 642.674804688 115.946289062 l 1
 583.814453125 215.818359375 547.409179688 258.80078125 457.805664062 337.016601562 c 0
 401.411132812 386.244140625 306.959960938 454.60546875 220.908203125 497.215820312 c 0
 130.565429688 541.951171875 91.392578125 556.7265625 33.8251953125 566.541015625 c 1
0 587.77734375 m 1
 63.9638671875 576.873046875 107.489257812 560.455078125 207.870117188 510.75 c 0
 303.483398438 463.405273438 408.428710938 387.447265625 471.08984375 332.75 c 0
 570.649414062 245.84375 611.099609375 198.0859375 676.5 87.1171875 c 1
 676.5 -91.953125 l 1
 588.797851562 11.716796875 494.776367188 104.361328125 376.379882812 195.75 c 0
 254.061523438 290.166992188 136.551757812 358.47265625 0 408.70703125 c 1
 0 587.77734375 l 1
EndSplineSet
EndChar

StartChar: obliqueDesc6thWhite
Encoding: 244 217 181
AltUni2: 00f0f4.ffffffff.0
Width: 668
Flags: MW
HStem: -460 150 -207 150 46 150 300 150
VStem: -1318 137
LayerCount: 2
Fore
SplineSet
0 699 m 1
 118 626 280 505 394 397 c 0
 497 300 598 181 668 66 c 1
 668 -75 l 1
 576 74 480 180 391 261 c 0
 279 363 171 444 0 558 c 1
 0 699 l 1
384 387 m 0
 278 487 129 600 14 674 c 1
 14 565 l 1
 267 396 485 231 654 -27 c 1
 654 62 l 1
 585 175 486 291 384 387 c 0
EndSplineSet
Validated: 1
EndChar

StartChar: obliqueDesc7thWhite
Encoding: 245 305 182
AltUni2: 00f0f5.ffffffff.0
Width: 764
Flags: MW
HStem: -190 24 28 19
VStem: 158 19 251 42
LayerCount: 2
Fore
SplineSet
0 824 m 1
 121 745 322 588 451 456 c 0
 572 333 684 212 764 66 c 1
 764 -75 l 1
 661 80 570 182 458 292 c 0
 333 415 189 541 0 683 c 1
 0 824 l 1
441 446 m 0
 320 569 136 716 14 798 c 1
 14 690 l 1
 281 490 559 248 750 -29 c 1
 750 62 l 1
 671 205 561 324 441 446 c 0
EndSplineSet
Validated: 1
EndChar

StartChar: obliqueDescOctWhite
Encoding: 246 710 183
AltUni2: 00f0f6.ffffffff.0
Width: 868
Flags: MW
HStem: -28 56
VStem: 120 56
LayerCount: 2
Fore
SplineSet
0 949 m 1
 141 865 367 673 516 521 c 0
 657 378 804 200 868 66 c 1
 868 -75 l 1
 727 123 628 236 523 347 c 0
 382 496 196 658 0 808 c 1
 0 949 l 1
506 512 m 0
 365 655 154 835 14 924 c 1
 14 815 l 1
 346 560 609 307 854 -32 c 1
 854 63 l 1
 790 194 646 369 506 512 c 0
EndSplineSet
Validated: 1
EndChar

StartChar: tilde
Encoding: 247 732 184
AltUni2: 00f0f7.ffffffff.0
Width: 968
Flags: MW
HStem: -99 22 77 22
VStem: 0 21<933 1074 1074 1074> 176 22
LayerCount: 2
Fore
SplineSet
0 1074 m 1
 182 938 408 764 574 586 c 0
 788 358 889 230 968 66 c 1
 968 -75 l 1
 847 123 678 313 578 421 c 0
 419 592 207 777 0 933 c 1
 0 1074 l 1
564 576 m 0
 405 746 192 913 14 1046 c 1
 14 940 l 1
 359 679 717 340 954 -26 c 1
 954 63 l 1
 876 223 776 350 564 576 c 0
EndSplineSet
Validated: 1
EndChar

StartChar: breve
Encoding: 249 728 185
AltUni2: 00f0f9.ffffffff.0
Width: 53
Flags: MW
HStem: -34 76
VStem: 146 79
LayerCount: 2
Fore
SplineSet
41 -296 m 5
 41.9462890625 -62.5859375 l 6
 41.9566037252 -59.9897817539 42.0428955842 -57.5512811637 42.0428955842 -55.3695547105 c 0
 42.0428955842 -49.3289080408 41.3813860653 -45.2566803806 36.614192766 -45.2566803806 c 0
 35.6045344249 -45.2566803806 34.4107103416 -45.4393454055 33 -45.824662163 c 4
 21.3643768756 -49.0027777849 10.3643768756 -55.2301426437 0 -64 c 5
 0 33.4140625 l 6
 0 42.544921875 1.6383084328 48.7339754845 6 52.7961735139 c 4
 22.6180367444 68.2731404373 37.8090183722 77.5320642271 53 82 c 5
 53 -292 l 5
 50.5313730334 -294.468626967 47.3856217223 -296.260129589 43.5627460668 -296.260129589 c 0
 42.7398704113 -296.260129589 41.8856217223 -296.177124344 41 -296 c 5
EndSplineSet
Validated: 1
EndChar

StartChar: obliqueDesc2ndEndWhite
Encoding: 252 184 187
AltUni2: 00f0fc.ffffffff.0
Width: 378
Flags: HW
HStem: -911 34 1340 209
VStem: 0 59 178 53
LayerCount: 2
Fore
SplineSet
338.75 -63.5 m 4
 344.342773438 -34.9912109375 350.169921875 -32.814453125 356.966796875 -5.125 c 4
 359.12109375 3.6484375 354.934570312 6.005859375 346.262695312 14.3037109375 c 4
 308.770507812 50.18359375 269.762695312 90.603515625 230.163085938 114.603515625 c 4
 179.008789062 145.606445312 118.19921875 159.874023438 52.2373046875 166.056640625 c 4
 41.931640625 167.0234375 40.5703125 167.314453125 29.7685546875 168.629882812 c 4
 22.5625 169.5078125 18.6455078125 160.731445312 18.6220703125 158.625 c 6
 17.525390625 77.44921875 l 6
 17.529296875 68.6240234375 21.4912109375 64.451171875 27.25 64 c 4
 29.48046875 63.8251953125 35.4091796875 63.6318359375 38.8525390625 63.6318359375 c 4
 95.9169921875 63.6318359375 113.465820312 52.61328125 156.125 35.0498046875 c 4
 218.887695312 9.2099609375 264.219726562 -24.0361328125 328.770507812 -65.9833984375 c 4
 332.001953125 -68.0830078125 337.9375 -67.642578125 338.75 -63.5 c 4
342.25 -115.13671875 m 4
 265.6328125 -59.4130859375 225.907226562 -32.419921875 153.75 1 c 4
 106.350585938 22.953125 84.07421875 30.4775390625 20.669921875 30.4775390625 c 4
 16.84375 30.4775390625 7.4716796875 30.953125 5 31.25 c 4
 3.0751953125 31.4814453125 1.595703125 31.7119140625 0.8369140625 33.25 c 4
 0.2236328125 34.4931640625 -0.2490234375 38.38671875 -0.25 41.5 c 6
 -0.2958984375 212.932617188 l 6
 -0.2958984375 214.252929688 0.7392578125 214.55078125 1.595703125 214.55078125 c 4
 3.078125 214.55078125 6.09765625 214.47265625 9.3125 214.032226562 c 4
 21.314453125 212.387695312 25.6044921875 212.0234375 37.0546875 210.81640625 c 4
 110.346679688 203.086914062 177.912109375 185.252929688 234.75 146.5 c 4
 278.75 116.5 322.091796875 75.349609375 363.75 30.5 c 4
 367.599609375 26.35546875 371.969726562 24.5908203125 375 22.5 c 4
 376.641601562 21.3671875 378.05078125 20.5703125 378.05078125 18.837890625 c 4
 378.05078125 18.650390625 378.034179688 18.205078125 378 18 c 4
 371.44140625 -20.8115234375 348.78515625 -63.001953125 345.75 -106.5 c 4
 345.75 -112.032226562 345.389648438 -115.512695312 343.48828125 -115.512695312 c 4
 343.049804688 -115.512695312 342.606445312 -115.395507812 342.25 -115.13671875 c 4
EndSplineSet
EndChar

StartChar: porrectusObl2ndCrushed2Black
Encoding: 253 733 188
AltUni2: 00f0fd.ffffffff.0
Width: 448
Flags: HW
HStem: -911 34 1340 209
VStem: 0 56 170 51
LayerCount: 2
Fore
SplineSet
221 -26 m 0
 189 -14 118.25 19 84.25 25 c 4
 60.25 29 33 32 5 33 c 0
 -1 33 -2 33 -2 39 c 2
 -2 216 l 2
 -2 217 -0.25 216.999999997 0.75 217 c 0
 31.9731719345 217.000000101 58.0954118475 213.70964809 83 210 c 0
 174.850141545 196.31851689 215 162 284 130 c 0
 338 105 372 98 436 93 c 0
 444 92 448 86 448 79 c 0
 448 78 448 73 448 72 c 0
 448 68 448 64 448 37 c 0
 448 -2 448 -56 448 -78 c 0
 448 -83 448 -85 448 -87 c 0
 448 -88 448 -88 447 -88 c 0
 365 -85 293 -54 221 -26 c 0
EndSplineSet
EndChar

StartChar: obliqueDesc2ndWhite
Encoding: 240 63743 189
AltUni2: 00e983.ffffffff.0 00f0f0.ffffffff.0
Width: 407
Flags: HW
HStem: -911 34 1340 209
VStem: 0 51 155 46
LayerCount: 2
Fore
SplineSet
387.6953125 -38.7685546875 m 4
 387.956054688 -38.91796875 388.14453125 -38.966796875 388.279296875 -38.966796875 c 4
 388.528320312 -38.966796875 388.594726562 -38.80078125 388.594726562 -38.80078125 c 4
 388.748046875 -38.8056640625 388.875976562 -38.810546875 388.981445312 -38.810546875 c 4
 389.495117188 -38.810546875 389.498046875 -38.7060546875 389.51953125 -38.09765625 c 4
 389.5703125 -36.6318359375 389.712890625 -35.16796875 389.75 -31.5 c 4
 389.958007812 -11.193359375 389.90234375 22.3623046875 390.822265625 48.650390625 c 0
 390.854492188 49.5908203125 390.87109375 50.4755859375 390.87109375 51.3095703125 c 0
 390.87109375 64.19921875 386.965820312 64.951171875 378.774414062 69.9169921875 c 0
 305.284179688 114.469726562 195.083984375 144.6796875 102.666015625 164.333007812 c 0
 74.9033203125 170.237304688 40.939453125 173.508789062 17.4892578125 173.508789062 c 0
 16.0380859375 173.508789062 14.9189453125 171.672851562 14.92578125 170.579101562 c 2
 15.6279296875 75.900390625 l 6
 15.6533203125 71.8408203125 17.90234375 65.123046875 25 64.625 c 4
 67.8916015625 61.6142578125 122.700195312 53.7587890625 169.284179688 41.2177734375 c 4
 245.146484375 20.7939453125 326.298828125 -3.498046875 387.6953125 -38.7685546875 c 4
405.25 -87.80859375 m 0
 388.25 -77.017578125 369.25 -67.4873046875 350.25 -59.15234375 c 0
 325.128263108 -48.1318860827 300.25 -37.8310546875 271.25 -27.0732421875 c 0
 236.25 -14.359375 206.75 -6.3408203125 167.25 4.662109375 c 0
 137.126953125 13.052734375 103.25 20.33203125 72.25 25.2001953125 c 0
 50.1754060274 28.6667354761 29.25 29.3564453125 4.25 30.3349609375 c 0
 -0.75 30.3349609375 -1.75 31.3125 -1.75 37.1806640625 c 2
 -1.75 213.46484375 l 2
 -1.75 214.443359375 -0.75 214.443359375 0.25 214.443359375 c 0
 26.25 213.46484375 52.1337890625 212.251953125 75.25 209.552734375 c 0
 114.358398438 204.986328125 149.25 195.372070312 174.25 188.526367188 c 0
 200.25 181.6796875 227.485351562 172.989257812 256.25 161.875976562 c 0
 307.546875 142.055664062 356.397460938 123 393.25 98.783203125 c 0
 399.620117188 94.59765625 407.25 92.2841796875 407.25 85.091796875 c 0
 407.25 84.11328125 407.25 78.978515625 407.25 78.0009765625 c 0
 407.25 74.0888671875 407.25 64.0263671875 407.25 36.6416015625 c 0
 407.25 -2.4775390625 407.25 -56.5126953125 407.25 -78.0283203125 c 0
 407.25 -82.9189453125 407.25 -84.8740234375 407.25 -86.830078125 c 0
 407.25 -87.80859375 407.25 -87.80859375 406.25 -87.80859375 c 0
 406.25 -87.80859375 406.179253472 -88.0455729167 405.882957176 -88.0455729167 c 0
 405.734809028 -88.0455729167 405.530273438 -87.986328125 405.25 -87.80859375 c 0
EndSplineSet
EndChar

StartChar: ascii189
Encoding: 189 937 191
AltUni2: 00f0bd.ffffffff.0
Width: 165
Flags: W
HStem: 272 17
LayerCount: 2
Fore
SplineSet
114.495117188 7.2548828125 m 4
 98.5283203125 25.0302734375 98.4658203125 25.146484375 86.5 41.9169921875 c 4
 82.8984375 46.9638671875 78.9296875 48.796875 75.3837890625 48.796875 c 4
 71.283203125 48.796875 67.748046875 46.3466796875 66 43.5830078125 c 4
 55.869140625 27.5693359375 46.8330078125 14.216796875 38.5400390625 3.4677734375 c 4
 36.46484375 0.77734375 35.6171875 -1.7783203125 35.6171875 -4.2333984375 c 4
 35.6171875 -8.703125 38.4267578125 -12.8369140625 41.75 -16.8330078125 c 4
 51.0830078125 -28.0546875 55.3115234375 -32.06640625 68.4990234375 -49.5830078125 c 4
 70.9189453125 -52.7978515625 73.6240234375 -54.4794921875 76.28515625 -54.4794921875 c 4
 78.8251953125 -54.4794921875 81.326171875 -52.9462890625 83.5009765625 -49.75 c 6
 114.383789062 -8.08984375 l 6
 116.4140625 -5.1064453125 117.5 -2.35546875 117.5 0.25 c 4
 117.5 2.6650390625 116.55078125 4.966796875 114.495117188 7.2548828125 c 4
-172 -227 m 1
 -106.935749405 -134.810615456 4.15635373936 -1.6972144816 68 95 c 1
 92.6126376246 62.4241077787 113.363805051 31.0055702913 148 -3 c 1
 148.016658179 -2.9547502537 148.024902668 -2.92002827374 148.024902668 -2.89564724038 c 0
 148.024902668 -2.86659268447 148.013194526 -2.85222348733 147.99006459 -2.85222348733 c 0
 146.503227189 -2.85222348733 97.8196038581 -62.2281779487 78 -97 c 1
 55.0549790697 -65.7056349608 37.1606034705 -37.2189335216 12 -11 c 1
 -21.4592132568 -55.0577087402 -128 -191 -160 -235 c 1
 -161.788061474 -235.76631206 -163.445626465 -236.141134672 -164.922694459 -236.141134672 c 0
 -169.228132327 -236.141134672 -172 -232.956501172 -172 -227 c 1
EndSplineSet
Validated: 1
EndChar

StartChar: Delta
Encoding: 198 916 192
AltUni2: 00f0c6.ffffffff.0 002206.ffffffff.0
Width: 164
Flags: W
HStem: 100 19
LayerCount: 2
Fore
SplineSet
164 -75 m 1
 148.281352758 -75.5070531369 115.079602559 -76.8601103967 81.7332137467 -76.8601103967 c 0
 80.0597320255 -76.8601103967 78.3858860299 -76.8567027034 76.7138671875 -76.849609375 c 0
 45.99609375 -76.71875 15.8950171664 -75 0 -75 c 1
 0 40 l 1
 18.7173487454 38.3484692283 56.5275747187 37.6061230866 92.2421899243 37.6061230866 c 0
 121.403051129 37.6061230866 149.166838488 38.1010205144 164 39 c 1
 164 -75 l 1
150.705078125 -38.01953125 m 6
 150.705078125 0.919921875 l 2
 150.705078125 8.9736328125 142.75 15.017578125 131.163085938 14.83203125 c 0
 118.586914062 14.630859375 101.986328125 14.3623046875 85.130859375 14.3623046875 c 0
 65.4189453125 14.3623046875 40.359375 14.6396484375 25.9892578125 15.416015625 c 0
 25.4462890625 15.4453125 24.9287109375 15.4599609375 24.4384765625 15.4599609375 c 0
 18.462890625 15.4599609375 16.294921875 13.1767578125 16.294921875 5.919921875 c 2
 16.294921875 -34.6357421875 l 6
 16.294921875 -46.427734375 24.724609375 -50.7373046875 31.48828125 -51.25390625 c 4
 46.255859375 -52.3837890625 64.7529296875 -52.1982421875 83.5 -52.1982421875 c 4
 102.405273438 -52.1982421875 126.310546875 -51.6240234375 141.134765625 -50.4755859375 c 4
 148.951171875 -49.8701171875 150.705078125 -46.6611328125 150.705078125 -38.01953125 c 6
EndSplineSet
Validated: 33
EndChar

StartChar: Euro
Encoding: 219 8364 193
AltUni2: 00f0db.ffffffff.0
Width: 14
Flags: W
VStem: 80 35
LayerCount: 2
Fore
SplineSet
-8.75 -19.4482421875 m 6
 -8.75 14.4404296875 l 6
 -8.75 25.3447265625 -11.6923828125 33.900390625 -18.66796875 37.1064453125 c 4
 -29.4892578125 42.080078125 -41.064453125 44.85546875 -52.576171875 44.85546875 c 4
 -63.2353515625 44.85546875 -73.8408203125 42.4765625 -83.744140625 37.259765625 c 4
 -90.705078125 33.59375 -95.75 23.9267578125 -95.75 12.177734375 c 6
 -95.75 -20.33984375 l 6
 -95.75 -34.498046875 -84.5400390625 -37.3369140625 -75.0380859375 -38.5390625 c 4
 -67.15234375 -39.537109375 -59.7158203125 -40.0654296875 -52.1904296875 -40.0654296875 c 4
 -44.7177734375 -40.0654296875 -37.158203125 -39.5439453125 -28.986328125 -38.44140625 c 4
 -18.94140625 -37.0859375 -8.75 -32.9794921875 -8.75 -19.4482421875 c 6
14 -575 m 1
 9 -576 7 -576 0 -575 c 1
 0 -70 l 1
 -18 -64 -32 -63 -47 -63 c 0
 -67 -63 -90 -68 -114 -76 c 1
 -114 59 l 1
 -88 73 -66 76 -44 75 c 0
 -18 74 -9 72 14 62 c 1
 14 -575 l 1
EndSplineSet
Validated: 33
EndChar

StartChar: notequal
Encoding: 173 8800 194
AltUni2: 00f0ad.ffffffff.0
Width: 128
Flags: W
HStem: -130 19 111 19
VStem: 0 19 241 19
LayerCount: 2
Fore
SplineSet
107.5 -20.6982421875 m 6
 107.5 13.1904296875 l 6
 107.5 24.0947265625 104.557617188 32.650390625 97.58203125 35.8564453125 c 4
 86.7607421875 40.830078125 75.185546875 43.60546875 63.673828125 43.60546875 c 4
 53.0146484375 43.60546875 42.4091796875 41.2265625 32.505859375 36.009765625 c 4
 25.544921875 32.34375 20.5 22.6767578125 20.5 10.927734375 c 6
 20.5 -21.58984375 l 6
 20.5 -35.748046875 31.7099609375 -38.5869140625 41.2119140625 -39.7890625 c 4
 49.09765625 -40.787109375 56.5341796875 -41.3154296875 64.0595703125 -41.3154296875 c 4
 71.5322265625 -41.3154296875 79.091796875 -40.7939453125 87.263671875 -39.69140625 c 4
 97.30859375 -38.3359375 107.5 -34.2294921875 107.5 -20.6982421875 c 6
128 -75 m 1
 110 -69 82 -63 67 -63 c 0
 47 -63 24 -68 0 -76 c 1
 0 175 l 1
 2.25708114823 176.354248689 4.51416229645 176.893390928 6.67925537462 176.893390928 c 0
 9.31038568406 176.893390928 11.8056649186 176.097167541 14 175 c 1
 14 86.6669921875 l 2
 14 74.7749669903 16.6826498398 69.7626655434 22.864888093 69.7626655434 c 0
 24.1907277332 69.7626655434 25.6775234928 69.9931956786 27.3333333333 70.4358364284 c 0
 42.1714455876 74.4024471908 56.0857227938 75 70 75 c 0
 81.7259643736 75 91.073066455 74.0484550831 100.666666667 71.8171951965 c 0
 102.149221492 71.472385632 103.489779812 71.2959530201 104.697156726 71.2959530201 c 0
 111.402329421 71.2959530201 114 76.7373832373 114 89 c 2
 114 430 l 1
 116.641101056 432.200917547 119.088440591 433.04550444 121.256727977 433.04550444 c 0
 124.01431205 433.04550444 126.320550528 431.679449472 128 430 c 1
 128 -75 l 1
EndSplineSet
Validated: 1
EndChar

StartChar: mensuralCombStemUp
Encoding: 248 175 196
AltUni2: 00f0f8.ffffffff.0 00e93e.ffffffff.0
Width: 19
VWidth: 1676
Flags: HW
VStem: -334.6 18.2 -256.2 29.4
LayerCount: 2
Fore
SplineSet
-0.0166015625 1.298828125 m 5
 -0.0107421875 2.8955078125 -0.0048828125 4.640625 0 6.5 c 4
 0.041015625 21.080078125 0.060546875 42.75 0.060546875 56.0849609375 c 4
 0.060546875 239.475585938 -3.1689453125 468.249023438 -3.5 565.75 c 0
 -3.5087890625 568.340820312 -5.404296875 574.909179688 -5.404296875 577.446289062 c 0
 -5.404296875 586.40625 -1.8740234375 587.5 6.5 587.5 c 0
 10.0322265625 587.5 10.4794921875 586.40625 13.6337890625 584.626953125 c 0
 17.494140625 582.44921875 19 581.528320312 19 575 c 0
 19 574.724609375 18.4609375 568.176757812 18.4580078125 567.8828125 c 0
 16.3525390625 379.870117188 15.2822265625 196.385742188 15.0439453125 6.5 c 4
 15.0419921875 4.8330078125 15.0380859375 3.166015625 15.0380859375 1.5 c 4
 15.037109375 -2.1552734375 10.6650390625 -4.501953125 6.6328125 -4.501953125 c 4
 3.1845703125 -4.501953125 -0.015625 -2.78515625 -0.0166015625 1.298828125 c 5
EndSplineSet
EndChar

StartChar: nameMe256
Encoding: 256 -1 197
Width: 136
Flags: HW
HStem: -679 123G -463 123G -298 38G
VStem: 604 223 975 146G 1158 123G
LayerCount: 2
Fore
SplineSet
129.5 -186.821289062 m 4
 116.918945312 -191.834960938 104.197265625 -194.146484375 82 -195 c 4
 75.23828125 -195.140625 68.7548828125 -195.2421875 62.6044921875 -195.2421875 c 4
 25.095703125 -195.2421875 0.455078125 -191.473632812 0 -170 c 4
 -1.376953125 -104.97265625 -3.51171875 -48.26953125 -3.51171875 17.34765625 c 4
 -3.51171875 60.0634765625 -2.6064453125 111.166992188 0 155 c 4
 2.1962890625 191.934570312 34 195 84 195 c 4
 107.333984375 195 115.614257812 193.388671875 130.75 189.444335938 c 4
 136.155273438 188.036132812 136.25 185.778320312 136.25 180.5 c 6
 136.25 63 l 6
 136.25 58.7143796734 135.628032313 57.4705384812 132.065025676 57.4705384812 c 0
 131.338760266 57.4705384812 130.490298507 57.5222184678 129.5 57.6103515625 c 4
 114.53515625 58.94140625 100.671875 59.6572265625 88.15625 59.6572265625 c 4
 44.291015625 59.6572265625 19.46875 50.7275390625 17 29 c 4
 15.5234375 16.0029296875 14.994140625 4.9013671875 14.994140625 -5.1416015625 c 4
 14.994140625 -19.431640625 16.0654296875 -31.580078125 17 -44 c 4
 18.5068359375 -64.0205078125 39.23046875 -70.3125 72.8251953125 -70.3125 c 4
 89.2548828125 -70.3125 108.654296875 -68.818359375 129.25 -66.7275390625 c 4
 129.940480536 -66.6574673967 130.562297604 -66.6225146624 131.122139582 -66.6225146624 c 0
 135.487525525 -66.6225146624 136.084732405 -68.7476937177 136.084732405 -72.9192574533 c 0
 136.084732405 -74.4905651926 136 -76.3522163654 136 -78.5 c 6
 136 -175 l 6
 136 -182.419921875 135.536132812 -184.415039062 129.5 -186.821289062 c 4
EndSplineSet
EndChar

StartChar: chantCclef_smufl
Encoding: 257 59654 198
Width: 136
Flags: W
HStem: -679 123G -463 123G -298 38G
VStem: 604 223 975 146G 1158 123G
LayerCount: 2
Fore
SplineSet
82 -208.799804688 m 4
 37 -208.799804688 0 -192.309570312 0 -131.200195312 c 4
 0 -80.759765625 -1.3330078125 -29.0263671875 -1.3330078125 21.701171875 c 4
 -1.3330078125 47.064453125 -1 72.1767578125 0 96.75 c 4
 4 202.48046875 34 208.299804688 84 208.299804688 c 4
 87.7521228807 208.299804688 91.9470651218 208.393634426 96.2827237648 208.393634426 c 0
 114.85090553 208.393634426 136 206.672681067 136 188.490234375 c 6
 136 75.609375 l 5
 123.42578125 81.9580078125 110.568359375 84.5888671875 98.2373046875 84.5888671875 c 4
 70.3623046875 84.5888671875 47.4228515625 71.142578125 34.25 56.791015625 c 4
 20.443359375 42.029296875 16.876953125 19.11328125 16.876953125 -2.4189453125 c 4
 16.876953125 -37.0517578125 26.4541015625 -57.9619140625 42.25 -68.3486328125 c 4
 55.9248046875 -77.3408203125 75.576171875 -84.1025390625 99.08984375 -84.1025390625 c 4
 111.190429688 -84.1025390625 123.768554688 -82.2333984375 136 -77.7578125 c 5
 136 -182.009765625 l 6
 136 -207.159457902 109.215412707 -208.799804687 82 -208.799804688 c 4
EndSplineSet
EndChar

StartChar: chantFclef_smufl
Encoding: 258 59650 199
Width: 271
Flags: W
HStem: -709 128G -484 128G -313 40G
VStem: 864 244 1271 160G 1471 135G
LayerCount: 2
Fore
SplineSet
114 -222 m 1
 113.732050808 -222.267949192 113.410254038 -222.392304845 113.044228634 -222.392304845 c 0
 110.67820323 -222.392304845 106.464101615 -217.196152423 103 -212 c 1
 103 -84 l 2
 103 -72.375 100.309856769 -67.7832680783 94 -63.8314984679 c 0
 84.3301821332 -57.7754351083 77.5770673101 -55.7797333918 69 -55 c 1
 50 -55 18 -61 0 -73 c 1
 0 44 l 1
 26 59 47 59 67 59 c 0
 79.978092673 59 90.6249619629 55.5031649253 102.5 50.2891908412 c 0
 109.479688773 47.2246182257 114 43.357421875 114 32.25 c 2
 114 -222 l 1
133 -130.684570312 m 0
 133 -80.2451171875 131.666992188 -28.51171875 131.666992188 22.2158203125 c 0
 131.666992188 47.5791015625 132 72.6923828125 133 97.2646484375 c 0
 136.90273128 189.067445342 159.478515625 206.78515625 253.8203125 206.78515625 c 0
 264.172851562 206.78515625 271 198.438476562 271 187 c 2
 271 73.7744140625 l 1
 258.243164062 78.19140625 245.807617188 80.8896484375 234.081054688 80.8896484375 c 0
 204.44140625 80.8896484375 180.344726562 70.5439453125 167 56.34375 c 0
 153.875 42.376953125 150.2421875 26.6005859375 150.2421875 -2.5439453125 c 0
 150.2421875 -27.6279296875 153.8203125 -52.0830078125 175 -66.2158203125 c 0
 187.915039062 -75.1416015625 205.501953125 -80.724609375 229.068359375 -80.724609375 c 0
 241.99609375 -80.724609375 256.12109375 -78.1953125 271 -74.4306640625 c 1
 271 -187.25 l 2
 271 -198.872545984 264.2421875 -205.359375 252.668945312 -205.359375 c 0
 195.650390625 -205.053710938 133 -200.699140055 133 -130.684570312 c 0
EndSplineSet
EndChar

StartChar: mensuralFclef_smufl
Encoding: 259 59651 200
Width: 414
Flags: HW
LayerCount: 2
Fore
SplineSet
413.982421875 117.5078125 m 0
 413.994140625 117.438476562 414 117.36328125 414 117.283203125 c 0
 414 115.970703125 412.221679688 113.40625 412.221679688 113.40625 c 0
 412.221679688 113.40625 394.107421875 87.447265625 394.107421875 87.447265625 c 0
 388.963867188 80.1513671875 380.833984375 68.30859375 378.833007812 65.5615234375 c 0
 378.03515625 64.466796875 376.047851562 62.234375 374.999023438 62.234375 c 0
 374.971679688 62.234375 374.9453125 62.236328125 374.918945312 62.2392578125 c 0
 374.165039062 62.33203125 372.61328125 62.984375 371.30859375 64.626953125 c 0
 361.924804688 76.4375 347.1796875 92.7255859375 327.053710938 113.965820312 c 0
 326.245117188 114.818359375 325.754882812 115.76171875 325.754882812 116.8046875 c 0
 325.754882812 116.823242188 325.754882812 116.841796875 325.754882812 116.860351562 c 0
 325.763671875 117.529296875 327.044921875 119.515625 328.330078125 121.107421875 c 0
 337.462890625 132.416015625 348.072265625 148.010742188 360.594726562 167.91015625 c 0
 361.743164062 169.732421875 363.708007812 171.330078125 364.336914062 171.330078125 c 0
 364.336914062 171.330078125 364.33984375 171.330078125 364.33984375 171.330078125 c 0
 364.529296875 171.326171875 366.122070312 170.857421875 368.948242188 167.848632812 c 0
 379.333007812 156.791015625 403.469760953 129.971478157 411.67578125 120.76953125 c 0
 413.220703125 119.037109375 413.764648438 117.772460938 413.982421875 117.5078125 c 0
364.640625 -54.072265625 m 4
 366.377929688 -54.205078125 368.856445312 -57.208984375 370.955078125 -59.951171875 c 4
 384.619140625 -77.8232421875 398.435546875 -93.876953125 413.390625 -107.62109375 c 4
 413.724609375 -107.927734375 413.959960938 -108.3125 414 -108.57421875 c 4
 414 -108.838867188 413.641601562 -109.514648438 413.641601562 -109.514648438 c 4
 413.641601562 -109.514648438 397.762695312 -130.099609375 397.762695312 -130.099609375 c 4
 389.197265625 -141.221679688 373.032226562 -161.965820312 372.018554688 -163.471679688 c 4
 371.834960938 -163.743164062 371.524414062 -164.077148438 371.1875 -164.077148438 c 4
 371.162109375 -164.077148438 371.13671875 -164.075195312 371.111328125 -164.072265625 c 4
 370.806640625 -164.021484375 370.302734375 -163.6171875 369.892578125 -163.069335938 c 4
 361.150390625 -151.354492188 346.232421875 -133.47265625 325.134765625 -109.407226562 c 4
 324.419921875 -108.590820312 323.360351562 -107.44140625 323.315429688 -106.918945312 c 4
 323.315429688 -106.912109375 323.315429688 -106.905273438 323.315429688 -106.897460938 c 4
 323.315429688 -106.389648438 324.578125 -105.078125 325.384765625 -104.129882812 c 4
 334.942382812 -92.876953125 346.178710938 -77.79296875 359.545898438 -58.8818359375 c 4
 361.182617188 -56.568359375 363.009765625 -54.068359375 364.53515625 -54.068359375 c 4
 364.5703125 -54.068359375 364.60546875 -54.0693359375 364.640625 -54.072265625 c 4
0.5810546875 124.21875 m 0
 0.2705078125 125.182617188 -0.001953125 128.09375 -0.001953125 130.33984375 c 0
 -0.001953125 131.65234375 0.0244140625 132.793945312 0.3232421875 133.075195312 c 0
 19.939453125 151.473632812 50.078125 168.896484375 90.412109375 168.896484375 c 0
 149.622070312 168.896484375 204.048828125 153.606445312 241.74609375 121.659179688 c 0
 274.228515625 94.1318359375 294.291015625 54.2353515625 294.291015625 1.095703125 c 0
 294.291015625 -59.810546875 274.912109375 -90.2470703125 234.970703125 -127.114257812 c 0
 208.248046875 -149.725585938 158.247070312 -163.810546875 108.911132812 -163.810546875 c 0
 65.7431640625 -163.810546875 30.798828125 -153.837890625 6.1298828125 -135.336914062 c 0
 3.12109375 -133.83203125 1.212890625 -131.225585938 1.212890625 -128.323242188 c 0
 1.212890625 -124.489257812 7.248046875 -120.647460938 10.0068359375 -120.647460938 c 0
 10.111328125 -120.647460938 10.2119140625 -120.653320312 10.3056640625 -120.6640625 c 0
 18.58984375 -121.647460938 28.1923828125 -127.951171875 37.9697265625 -130.6640625 c 0
 51.2626953125 -134.352539062 64.740234375 -136.0390625 79.251953125 -136.0390625 c 0
 133.036132812 -136.0390625 178.413085938 -123.4453125 206.637695312 -90.560546875 c 0
 225.946289062 -68.0634765625 236.581054688 -36.3837890625 236.581054688 4.9384765625 c 0
 236.581054688 42.306640625 225.140625 72.8505859375 199.359375 100.615234375 c 0
 169.330078125 132.955078125 138.405273438 146.310546875 84.8291015625 146.310546875 c 0
 56.3310546875 146.310546875 39.7373046875 138.936523438 12.3046875 122.166992188 c 0
 11.294921875 121.548828125 7.615234375 120.66796875 6.1376953125 120.66796875 c 0
 2.9580078125 120.66796875 1.2578125 122.118164062 0.5810546875 124.21875 c 0
EndSplineSet
EndChar

StartChar: mensuralGclef_smufl
Encoding: 260 59648 201
Width: 355
Flags: HW
LayerCount: 2
Fore
SplineSet
348.22265625 116.319335938 m 4
 347.118161366 110.609554047 336.657935003 108.987191921 330.435773328 108.987191921 c 4
 328.807357608 108.987191921 327.469220856 109.098312831 326.665039062 109.276367188 c 4
 322.254882812 110.252929688 317.709960938 114.193359375 312.713867188 121.584960938 c 4
 310.828125 124.374023438 308.333007812 126.256835938 305.296875 127.689453125 c 4
 297.26171875 131.482421875 287.6015625 137.318359375 272.94921875 142.365234375 c 4
 261.088741726 146.449807032 237.202386277 150.504265521 221.531400978 150.504265521 c 4
 220.507060306 150.504265521 219.517820948 150.486942283 218.569335938 150.451171875 c 4
 180.196289062 149.00390625 145.961914062 142.870117188 120.58203125 120.190429688 c 4
 93.7374370923 96.2023494955 77.0789013166 60.4885038414 77.0789013166 20.5456070632 c 4
 77.0789013166 14.6474502271 77.4421385365 8.65707947766 78.189453125 2.5986328125 c 4
 90.150390625 -94.3681640625 136.181640625 -120.76171875 161 -135 c 4
 176.758791659 -144.040569951 222.042168468 -159.96776364 248.570738728 -159.96776364 c 4
 254.839149907 -159.96776364 260.060432894 -159.078508211 263.59765625 -156.999023438 c 4
 281.688896449 -146.36343311 288.420083323 -133.046244126 288.420083323 -114.394270686 c 4
 288.420083323 -66.2696749792 245.737606015 -2.40597009187 244.1796875 -0.4873046875 c 4
 243.05413775 0.898873950271 242.564330773 2.89005535552 242.564330773 5.74484096523 c 4
 242.564330773 5.74484096523 242.564453125 5.8232421875 242.564453125 5.8232421875 c 4
 242.572855088 8.52381855816 244.42008353 12.1575952394 245.994140625 15.6357421875 c 4
 259.557601825 45.6065172743 285.383676674 50.6474586481 302.421758585 50.6474586481 c 4
 310.374810993 50.6474586481 315.523233023 49.3878425931 318.573872359 49.3878425931 c 4
 320.184586811 49.3878425931 321.588030045 50.0191290341 323.361328125 50.0185546875 c 4
 328.664858227 50.0168369477 332.143554688 45.9150390625 334.483398438 39.4736328125 c 6
 334.483398438 39.4736328125 354.612984742 -1.45144785905 354.612984742 -49.5264221485 c 4
 354.612984742 -63.9337974473 353.629254659 -74.1249423352 349.249023438 -90.7197265625 c 4
 342.17578125 -117.514648438 318.0703125 -155.998046875 281.002929688 -180.756835938 c 4
 254.101754273 -198.723865988 213.829103835 -206.26574567 182.232335528 -206.26574567 c 4
 178.82889832 -206.26574567 175.526122706 -206.178241298 172.3515625 -206.006835938 c 4
 140.896484375 -204.30859375 106.2734375 -199.361328125 75.1552734375 -178.419921875 c 4
 19.5226939754 -140.980593799 0.450988885671 -69.8508350234 0.450988885671 -0.00652434421197 c 4
 0.450988885671 61.1247420993 37.5806711163 139.40681929 92.990234375 168.52734375 c 4
 137.095698928 191.849137047 167.959391592 203.985269222 205.120021643 203.985269222 c 4
 213.369350137 203.985269222 221.928991961 203.387200134 231.012695312 202.180664062 c 4
 277.919921875 195.94921875 319.553710938 166.860351562 334.674804688 150.790039062 c 4
 343.010260024 141.929865374 348.86119543 131.773791532 348.86119543 122.724280527 c 4
 348.86119543 120.685679743 348.655733284 118.55746572 348.22265625 116.319335938 c 4
EndSplineSet
EndChar

StartChar: mensuralGclefPetrucci_smufl
Encoding: 261 59649 202
Width: 536
Flags: HW
LayerCount: 2
Fore
SplineSet
139 1183 m 0
 131 1166 127.272460938 1147.953125 127.272460938 1130.03613281 c 0
 127.272460938 1061.90722656 180.149414062 992.865234375 222.091796875 937.677734375 c 0
 234.51171875 921.3359375 244.350585938 908.708007812 256.271484375 893.787109375 c 0
 257.372070312 892.409179688 260 890 261 890 c 0
 261 890 261.737304688 890.098632812 261.737304688 890.098632812 c 0
 262.694737398 890.519934283 263 891 264 893 c 0
 270.35072891 905.701457819 271.67281224 920.608658911 271.67281224 936.386988169 c 0
 271.67281224 947.642844516 271 959.342020643 271 971 c 0
 271 980 270 989 270 999 c 0
 266 1065 256 1117 221 1163 c 0
 208 1181 182 1197 162 1197 c 0
 153 1197 144 1193 139 1183 c 0
443.75 39 m 0
 446.034179688 37.1416015625 448.880859375 36.322265625 451.129882812 36.322265625 c 0
 452.16015625 36.322265625 453.064453125 36.494140625 453.733398438 36.81640625 c 0
 463.619140625 41.5849609375 477.107421875 42.666015625 486.995117188 42.666015625 c 0
 492.762695312 42.666015625 497.3046875 42.2978515625 499.192382812 42.080078125 c 0
 499.415039062 42.0546875 499.6328125 42.04296875 499.84765625 42.04296875 c 0
 501.458007812 42.04296875 502.861328125 42.681640625 504.3515625 42.681640625 c 0
 504.4453125 42.681640625 504.540039062 42.6796875 504.634765625 42.673828125 c 0
 510.026367188 42.369140625 513.416992188 38.5703125 515.756835938 32.12890625 c 2
 515.756835938 32.12890625 535.88671875 -8.7958984375 535.88671875 -56.87109375 c 0
 535.88671875 -57.3310546875 535.884765625 -57.7919921875 535.880859375 -58.2529296875 c 0
 535.771484375 -71.7529296875 534.7578125 -82.0185546875 530.522460938 -98.064453125 c 0
 523.44921875 -124.859375 499.34375 -163.342773438 462.276367188 -188.1015625 c 0
 435.375 -206.068359375 395.102539062 -213.610351562 363.505859375 -213.610351562 c 0
 360.102539062 -213.610351562 356.799804688 -213.5234375 353.625 -213.3515625 c 0
 322.169921875 -211.653320312 287.546875 -206.706054688 256.428710938 -185.764648438 c 0
 200.852539062 -148.36328125 182.240234375 -77.7568359375 181.728515625 -8.4599609375 c 0
 181.725585938 -8.0908203125 181.724609375 -7.7216796875 181.724609375 -7.3515625 c 0
 181.724609375 53.7802734375 218.854492188 132.0625 274.263671875 161.182617188 c 0
 318.369140625 184.504882812 349.232421875 196.640625 386.393554688 196.640625 c 0
 394.642578125 196.640625 403.202148438 196.041992188 412.286132812 194.8359375 c 0
 416.127929688 194.325195312 419.93359375 193.662109375 423.693359375 192.864257812 c 0
 439.2421875 242.823242188 448.104492188 295.548828125 448.104492188 351.1875 c 0
 448.104492188 397.059570312 442.080078125 444.912109375 428.811523438 494.828125 c 0
 397.240234375 610.314453125 321.846679688 716.8671875 255.721679688 804.961914062 c 0
 254.21875 806.96484375 253.705078125 808.478515625 251.271484375 808.478515625 c 0
 251.235351562 808.478515625 251.19921875 808.478515625 251.162109375 808.477539062 c 0
 248.756835938 808.43359375 248.52734375 806.86328125 247.198242188 804.807617188 c 0
 236.114257812 787.657226562 224.515625 771.717773438 212.401367188 755.778320312 c 0
 185.26953125 720.078125 156.19921875 686.078125 129.713867188 649.528320312 c 0
 78.6962890625 577.999023438 44.8768461253 471.93782153 34.1767578125 374.38671875 c 0
 33.6368923256 369.464845952 33.376777376 364.242097732 33.376777376 358.78109185 c 0
 33.376777376 299.343365966 64.1905159781 211.681159662 100.500976562 176.530273438 c 0
 112.960086088 164.469045506 125.425597225 154.204753911 141.912756361 151.049492999 c 0
 145.335878579 150.394386583 148.902191739 150.068877824 152.417164035 150.068877824 c 0
 166.276459237 150.068877824 179.337572958 155.129467864 179.67578125 165 c 0
 179.870487914 170.682469733 174.254882813 180.283203125 179.8984375 181.716796875 c 0
 180.749881696 181.933083444 181.57421875 182.036132812 182.369140625 182.036132812 c 0
 189.942676932 182.036132812 194.611588246 171.797757382 194.611588246 160.519089359 c 0
 194.611588246 147.161839196 184.296659346 139.030273385 177.900390625 134.80078125 c 0
 172.386948489 131.155052596 157.193348997 125.237486895 148.853515625 125.041015625 c 0
 148.434800984 125.031151471 148.016652903 125.026280177 147.599065668 125.026280177 c 0
 132.6639678 125.026280177 118.446275656 131.257400446 104.684570312 138.158203125 c 0
 82.5497492576 149.257701961 63.0457998091 166.898430526 49.609375 184.578125 c 0
 14.3594889832 230.960047564 0.1787109375 285.659179688 0.1787109375 341.89453125 c 0
 0.1787109375 447.458984375 50.1494140625 558.4375 104.51953125 629.977539062 c 0
 132.944335938 667.377929688 162.659179688 702.227539062 190.4375 739.627929688 c 0
 208.265625 763.868164062 224.454101562 789.546875 237.493164062 817.325195312 c 0
 237.963867188 818.328125 238.477539062 820.477539062 238.477539062 822.81640625 c 0
 238.477539062 823.413085938 238.444335938 824.022460938 238.368164062 824.627929688 c 0
 238.021484375 827.372070312 236.697265625 830.04296875 235.833007812 831.16015625 c 0
 222.20703125 848.780273438 205.8671875 868.076171875 187.853515625 891.778320312 c 0
 140.96875 953.467773438 96.185546875 1019.57910156 96.185546875 1094.5703125 c 0
 96.185546875 1112.57421875 98.7666015625 1131.08886719 104.51953125 1150.17773438 c 0
 112.271484375 1174.828125 129.713867188 1209.67773438 147.801757812 1225.828125 c 0
 158.756835938 1235.19726562 174.0078125 1240.59472656 190.305664062 1240.59472656 c 0
 212.451171875 1240.59472656 236.529296875 1230.63085938 254.391601562 1207.12792969 c 0
 293.151367188 1156.12792969 304.779296875 1105.97753906 309.301757812 1037.97753906 c 0
 309.928710938 1028.4296875 310.233398438 1019.12597656 310.233398438 1010.05273438 c 0
 310.233398438 956.856445312 299.78125 911.54296875 282.697265625 870.9140625 c 0
 281.861328125 868.924804688 281.525390625 867.083007812 281.525390625 865.075195312 c 0
 281.525390625 864.650390625 281.541015625 864.217773438 281.569335938 863.774414062 c 0
 281.69140625 861.8828125 282.280273438 860.182617188 283.635742188 858.396484375 c 0
 352.028320312 768.3125 435.278320312 655.615234375 468.217773438 533.927734375 c 0
 480.991210938 485.872070312 486.750976562 439.333007812 486.750976562 394.45703125 c 1
 486.750976562 326.719726562 468.748046875 249.606445312 445.59375 186.634765625 c 1
 478.052734375 175.094726562 504.54296875 155.56640625 515.948242188 143.4453125 c 0
 524.284179688 134.584960938 530.134765625 126.258789062 530.134765625 115.379882812 c 0
 530.134765625 113.340820312 529.928710938 111.212890625 529.49609375 108.974609375 c 0
 528.391601562 103.264648438 517.931640625 101.642578125 511.708984375 101.642578125 c 0
 510.081054688 101.642578125 508.7421875 101.75390625 507.938476562 101.931640625 c 0
 503.528320312 102.908203125 498.983398438 106.848632812 493.987304688 114.240234375 c 0
 492.1015625 117.029296875 489.606445312 118.912109375 486.5703125 120.344726562 c 0
 478.53515625 124.137695312 468.875 129.973632812 454.22265625 135.020507812 c 0
 447.646484375 137.28515625 437.374023438 139.540039062 426.854492188 141.100585938 c 1
 421.223632812 128.892578125 415.499023438 117.712890625 409.828125 107.833007812 c 0
 409.326171875 106.958007812 409.092773438 105.703125 409.092773438 104.145507812 c 0
 409.092773438 95.646484375 416.034179688 78.115234375 424.05859375 63.8134765625 c 0
 429.16015625 54.7216796875 438.807617188 43.021484375 443.75 39 c 0
423.155273438 2.0439453125 m 0
 413.528320312 17.34765625 389.337890625 72.583984375 389.337890625 100.06640625 c 0
 389.337890625 104.276367188 389.905273438 107.8359375 391.180664062 110.5 c 0
 396.31640625 121.231445312 401.166992188 132.102539062 405.706054688 143.1171875 c 1
 404.397460938 143.1171875 403.133789062 143.139648438 401.922851562 143.139648438 c 0
 401.209960938 143.139648438 400.516601562 143.131835938 399.842773438 143.106445312 c 0
 361.469726562 141.659179688 327.235351562 135.525390625 301.85546875 112.845703125 c 0
 275.010742188 88.857421875 258.352539062 53.1435546875 258.352539062 13.2001953125 c 0
 258.352539062 7.3017578125 258.715820312 1.3125 259.462890625 -4.74609375 c 0
 271.423828125 -101.712890625 321.17578125 -121.55859375 345.995117188 -135.795898438 c 0
 361.518554688 -144.702148438 398.650390625 -159.150390625 422.461914062 -159.150390625 c 0
 428.533203125 -159.150390625 433.739257812 -158.209960938 437.5 -156 c 0
 454.284179688 -146.1328125 461.336914062 -133.009765625 462.202148438 -117.735351562 c 0
 462.29296875 -116.12890625 462.336914062 -114.499023438 462.336914062 -112.849609375 c 0
 462.336914062 -93.171875 456.069335938 -70.69921875 448.54296875 -50.875 c 0
 437.651367188 -22.18359375 424.125 0.9580078125 423.155273438 2.0439453125 c 0
EndSplineSet
EndChar

StartChar: NameMe262
Encoding: 262 -1 203
Width: 198
Flags: HW
LayerCount: 2
Fore
SplineSet
198 397 m 1048
198 397 m 0
 198.052734375 396.682617188 198.022460938 396.370117188 198 396 c 0
 198 396 198 28 198 28 c 0
 198 28 198 24 196 24 c 16
 190.0625 24 186.283203125 26.1591796875 181 26.8134765625 c 0
 180.0546875 26.9306640625 180 27 179 28 c 0
 178 29 178 30 178 30 c 0
 178 30 178 49 178 49 c 0
 178 49 178 51 177 52 c 24
 175 54 173.493164062 54.62890625 171 55.35546875 c 0
 146.961914062 62.3583984375 124.30859375 64 108 64 c 0
 86.080078125 64 59.4619140625 62.33203125 29 55.185546875 c 0
 26.109375 54.5078125 25 55 23 53 c 24
 21 51 21 47 21 47 c 0
 21 47 21 -44 21 -44 c 0
 21 -44 21 -50 24 -52 c 0
 27.720703125 -54.48046875 28.91015625 -53.9619140625 37 -53.068359375 c 0
 85.0009765625 -47.763671875 79.0546875 -45.37109375 103.510742188 -45.37109375 c 0
 131.329101562 -45.37109375 134.68359375 -45.466796875 172.63671875 -50.8955078125 c 0
 175.140625 -51.2529296875 175.940429688 -51.4794921875 177.000976562 -50.7275390625 c 0
 177.903320312 -50.087890625 178 -47.9091796875 178 -47.9091796875 c 0
 178 -47.9091796875 178 -26.703125 178 -26.703125 c 0
 178 -26.703125 178.131835938 -25.8349609375 178.567382812 -25.5419921875 c 0
 179 -25.2509765625 179.948242188 -25.4990234375 180.919921875 -25.6845703125 c 0
 186.297851562 -26.716796875 191.59375 -26.7119140625 196.348632812 -29.7841796875 c 0
 196.907226562 -30.14453125 197.424804688 -30.6142578125 197.689453125 -31.0009765625 c 0
 197.966796875 -31.40625 197.98828125 -31.6259765625 198.00390625 -32.5400390625 c 0
 198.198110287 -44.3853880967 198.357797727 -112.053934891 198.357797727 -196.144563753 c 0
 198.357797727 -261.743888256 198.260618309 -337.33703803 198.006835938 -404.21875 c 4
 198.004882812 -404.813476562 197.9375 -405.067382812 197.625 -405.28125 c 4
 197.328125 -405.484375 196.993164062 -405.217773438 196.450195312 -404.829101562 c 4
 191.888671875 -401.564453125 185.564453125 -398.498046875 179.700195312 -397.296875 c 4
 179.127929688 -397.1796875 178.622070312 -397.044921875 178.1875 -396.53125 c 4
 177.84375 -396.125 178 -394.599609375 178 -394.599609375 c 4
 178 -394.599609375 178 -215 178 -215 c 5
 155 -207 134 -207 116 -207 c 4
 94.625 -207 79.9970703125 -208.5859375 33 -215.997070312 c 4
 27.2275390625 -216.908203125 25 -218 23 -221 c 4
 20.2265625 -225.16015625 21 -231 21 -231 c 4
 21 -231 21 -581 21 -581 c 4
 21 -581 21 -585 20 -586 c 4
 19 -587 17.7080078125 -586.956054688 16 -586.118164062 c 4
 12.4521484375 -584.377929688 8.6376953125 -583.109375 4 -581.942382812 c 4
 2.732421875 -581.623046875 2 -581 1 -580 c 28
 0 -577 0 -572 0 -572 c 4
 0 -572 0 578 0 578 c 0
 0 578 0 579 1 579 c 16
 4.93359375 577.688476562 6.974609375 576.381835938 10 575.2578125 c 0
 11.58984375 574.66796875 13.4501953125 574.127929688 16 573.665039062 c 0
 17.4970703125 573.392578125 19 573 20 572 c 24
 21 571 21 569 21 569 c 0
 21 569 21 217 21 217 c 0
 21 217 21 213 22 212 c 0
 23 211 24.037109375 211.194335938 26 211.749023438 c 0
 46.501953125 217.54296875 70.578125 218.25 97.5 218.25 c 0
 124.342773438 218.25 153.572265625 217.559570312 173 212.553710938 c 0
 174.923828125 212.05859375 176.418945312 212.418945312 177 213 c 0
 178 214 178 217 178 217 c 0
 178 217 178 403 178 403 c 0
 178 403 178 404 179 404 c 0
 180 404 180.365234375 402.924804688 181 402.44921875 c 0
 183.827148438 400.33203125 185.049804688 400.014648438 187 399.163085938 c 0
 190.2421875 397.747070312 192.732421875 397.619140625 196 397.251953125 c 0
 196.633789062 397.180664062 197.956054688 397.265625 198 397 c 0
EndSplineSet
EndChar

StartChar: mensuralGclef2_orig
Encoding: 263 62983 204
Width: 571
Flags: HW
LayerCount: 2
Fore
SplineSet
496.296875 269.770507812 m 0
 498.615234375 304.924804688 501.400390625 375.556640625 501.400390625 421.625 c 0
 501.400390625 453.862304688 500.037109375 501.19140625 496.1953125 530 c 0
 486.693359375 601.22265625 452.43359375 645.915039062 392.9453125 645.915039062 c 0
 368.25390625 645.915039062 332.697265625 643.45703125 319.54296875 624.333007812 c 0
 305.27734375 603.596679688 305.091796875 574.034179688 305.091796875 564.974609375 c 0
 305.091796875 541.000976562 341.892578125 547.55078125 352.220703125 524 c 0
 354.42578125 518.974609375 355.42578125 513.6796875 355.42578125 508.369140625 c 0
 355.42578125 483.6796875 333.806640625 458.637695312 310.990234375 458.637695312 c 0
 283.294921875 458.637695312 260.8046875 476.211914062 260.8046875 553.849609375 c 0
 260.8046875 627.90234375 315.0625 662.380859375 389.74609375 662.380859375 c 0
 541.06640625 662.380859375 543.599609375 518.287109375 543.599609375 378.409179688 c 0
 543.599609375 373.561523438 543.59765625 368.71875 543.59765625 363.887695312 c 0
 543.59765625 304.526367188 541.763671875 234.221679688 535.62109375 193.37109375 c 0
 534.421875 185.396484375 527.775390625 183.045898438 521.95703125 183.045898438 c 0
 501.755859375 183.045898438 482.455078125 197.303710938 460.53125 205.37109375 c 0
 389.291015625 231.5859375 356.46484375 237.991210938 302.353515625 237.991210938 c 0
 174.521484375 237.991210938 70.328125 123.416992188 70.328125 24.810546875 c 0
 70.328125 2.107421875 73.765625 -21.4931640625 81.07421875 -45.4794921875 c 0
 118.96875 -169.658203125 215.6875 -210.483398438 317.92578125 -210.483398438 c 0
 386.361328125 -210.483398438 458.28515625 -178.921875 497.26171875 -132.778320312 c 0
 516.455078125 -110.053710938 525.541015625 -86.5830078125 525.541015625 -55.6953125 c 0
 525.541015625 -15.703125 510.3125 24.9873046875 482.08203125 50.4716796875 c 0
 444.806640625 84.1220703125 402.6328125 107.86328125 353.548828125 107.86328125 c 0
 257.1015625 107.86328125 192.564453125 69.3662109375 192.564453125 -12.2412109375 c 0
 192.564453125 -32.458984375 203.732421875 -45.19140625 211.7109375 -59 c 0
 212.38671875 -60.1669921875 212.69140625 -61.2412109375 212.69140625 -62.20703125 c 0
 212.69140625 -65.6767578125 208.740234375 -67.75 203.76171875 -67.75 c 0
 182.775390625 -67.75 168.3828125 -30.5478515625 164.875 -9.6787109375 c 0
 163.234375 0.07421875 162.423828125 9.490234375 162.423828125 18.5732421875 c 0
 162.423828125 45.3408203125 169.466796875 69.2197265625 183.09375 90.3212890625 c 0
 215.701171875 140.811523438 269.236328125 189.763671875 356.78125 189.763671875 c 0
 480.181640625 189.763671875 570.68359375 84.9931640625 570.68359375 -23.2734375 c 0
 570.68359375 -71.072265625 553.04296875 -112.552734375 512.8046875 -153 c 0
 477.95703125 -188.030273438 431.822265625 -213.314453125 386.375 -223.87890625 c 0
 360.47265625 -229.111328125 334.11328125 -231.712890625 307.90625 -231.712890625 c 0
 181.849609375 -231.712890625 74.384765625 -178.508789062 23.833984375 -61.279296875 c 0
 7.275390625 -23.0068359375 0 13.248046875 0 47.7666015625 c 0
 0 171.970703125 139.3984375 274.729492188 314.306640625 274.729492188 c 0
 386.421875 274.729492188 429.998046875 262.649414062 462.67578125 257.90234375 c 0
 471.521484375 256.6171875 478.62109375 254.982421875 483.982421875 254.982421875 c 0
 491.431640625 254.982421875 495.529296875 258.137695312 496.296875 269.770507812 c 0
EndSplineSet
EndChar

StartChar: mensuralNoteheadMaxBlack_smufl
Encoding: 264 59696 205
Width: 392
VWidth: 1365
Flags: HW
HStem: -340.109 36.8902 32.3914 188.05 305.918 31.4916
VStem: -6.03817 175.107 531.359 98.3358
LayerCount: 2
Fore
SplineSet
394.20703125 -91.484375 m 0
 394.20703125 -88.78515625 394.20703125 -86.0859375 394.20703125 -80.6875 c 0
 394.20703125 -61.79296875 392.481445312 -25.7021484375 392.481445312 -11.3056640625 c 0
 392.481445312 16.5869140625 393.34375 31.8828125 393.34375 49.8779296875 c 0
 393.34375 57.076171875 392.481445312 72.3193359375 392.481445312 81.3173828125 c 4
 392.481445312 89.4150390625 389.900390625 93.09375 375.228515625 93.9130859375 c 4
 321.307617188 96.923828125 253.603515625 95.521484375 203.573242188 96.4208984375 c 4
 193.221679688 96.4208984375 183.733398438 96.4208984375 173.381835938 96.4208984375 c 4
 111.274414062 96.4208984375 50.03125 96.267578125 11.2138671875 94.4677734375 c 4
 5.17578125 94.4677734375 -1.7255859375 92.66796875 -1.7255859375 88.1689453125 c 4
 -1.7255859375 87.26953125 -1.7255859375 87.26953125 -1.7255859375 86.3701171875 c 4
 -0.86328125 59.3759765625 0 29.18359375 0 4.8896484375 c 0
 0 -24.802734375 -1.7255859375 -56.9228515625 -1.7255859375 -84.8154296875 c 0
 -1.7255859375 -93.8125 2.587890625 -96.5126953125 10.3505859375 -96.5126953125 c 0
 65.9697265625 -96.5126953125 101.274414062 -96.1298828125 147.450195312 -96.1298828125 c 0
 154.3515625 -96.1298828125 184.594726562 -96.2958984375 190.633789062 -96.2958984375 c 0
 238.939453125 -97.1953125 307.947265625 -95.833984375 351.076171875 -98.533203125 c 0
 358.83984375 -99.4326171875 369.19140625 -99.58203125 377.817382812 -99.58203125 c 0
 386.442382812 -99.58203125 393.34375 -97.783203125 394.20703125 -91.484375 c 0
EndSplineSet
EndChar

StartChar: medRenFlatSoftB_smufl
Encoding: 265 59872 206
Width: 100
VWidth: 1100
Flags: HW
LayerCount: 2
Fore
SplineSet
36.5576171875 44.8779296875 m 0
 34.9111328125 45.427734375 32.5537109375 45.8916015625 32.09375 46.66015625 c 0
 31.7080078125 47.3037109375 31.6826171875 51.0751953125 31.6826171875 52.07421875 c 0
 31.6826171875 52.31640625 31.6826171875 85.7001953125 31.6826171875 85.7001953125 c 0
 31.6826171875 85.7001953125 31.583984375 87.263671875 31.583984375 88.5673828125 c 0
 31.583984375 89.21875 31.6083984375 89.8056640625 31.6826171875 90.099609375 c 0
 32.0756036372 91.6501039482 32.6992890162 93.5127206024 34.2743908829 93.5127206024 c 0
 34.4919434994 93.5127206024 34.7276463406 93.4771873622 34.9833984375 93.400390625 c 0
 52.109375 88.26171875 67.4443359375 79.6513671875 88.0009765625 58.8984375 c 0
 93.8505859375 52.9921875 97.548828125 47.064453125 97.79296875 41.458984375 c 0
 99.005859375 26.5 99.4755859375 11.689453125 99.4755859375 -2.9169921875 c 0
 99.4755859375 -24.0498046875 98.4921875 -44.7578125 97.3525390625 -64.8740234375 c 0
 97.1357421875 -68.6845703125 96.97265625 -73.73828125 96.0908203125 -75.37890625 c 0
 93.173828125 -80.80859375 80.7138671875 -88.2666015625 74.5830078125 -89.5 c 0
 73.6982421875 -89.6787109375 71.9912109375 -89.759765625 71.3427734375 -89.759765625 c 0
 69.7255859375 -89.759765625 69.4736328125 -89.2578125 66.734375 -88.5146484375 c 0
 44.5771484375 -82.5087890625 23.5498046875 -70.990234375 6.224609375 -65.1552734375 c 0
 4.3369140625 -64.51953125 3.646484375 -64.330078125 3.046875 -63.421875 c 0
 2.166015625 -62.0859375 2.1142578125 -59.912109375 2.0771484375 -59.0927734375 c 0
 1.205078125 -40.0244140625 0.5224609375 -20.28125 -0 0 c 0
 -1.080078125 41.8896484375 -1.4814453125 86.0703125 -1.4814453125 131.319335938 c 0
 -1.4814453125 186.827148438 -1.91804298182 190.455292639 -2.4169921875 248.9375 c 0
 -2.47994780711 256.316574981 -4.4853515625 259.529296875 -5.0419921875 266.125 c 0
 -5.11201025949 266.95592644 -5.17385779713 267.677878643 -5.17385779713 268.317182354 c 0
 -5.17385779713 270.433094314 -4.49636738968 271.643658007 -1.1953125 272.903320312 c 0
 -0.814722166672 273.04855125 -0.396727267873 273.111028736 0.0437212782215 273.111028736 c 0
 1.53449403183 273.111028736 3.28249548867 272.39528744 4.7080078125 271.75 c 0
 8.2890625 270.127929688 12.3681640625 265.97265625 12.3681640625 262.432617188 c 0
 12.3681640625 260.893957843 12.9867884641 253.300332335 12.9833984375 251.43359375 c 0
 11.3642578125 216.508789062 10.8193359375 180.063476562 10.8193359375 144.512695312 c 0
 10.8193359375 82.251953125 12.48828125 27.984375 12.9716796875 -15.8173828125 c 0
 12.994140625 -17.8720703125 13.0283203125 -21.45703125 13.3955078125 -23.1748046875 c 0
 15.00390625 -30.7021484375 20.458984375 -35.0517578125 26.291015625 -37.40625 c 0
 35.3251953125 -41.0537109375 57.2392578125 -49.3984375 72.6796875 -49.3984375 c 0
 81.7265625 -49.3984375 86.8200015168 -46.2006265491 89.2587890625 -38.1787109375 c 0
 91.0849609375 -32.171875 91.1611328125 -26.6640625 91.1611328125 -15.9384765625 c 0
 91.1611328125 -5.0634765625 91.0107421875 0.798828125 87.466796875 12.6591796875 c 0
 82.83203125 28.1630859375 61.4736328125 36.55859375 36.5576171875 44.8779296875 c 0
EndSplineSet
EndChar

StartChar: medRenNatural_smufl
Encoding: 266 59874 207
Width: 159
VWidth: 1050
Flags: HW
LayerCount: 2
Fore
SplineSet
21.2998046875 196.30078125 m 0
 24.5966796875 196.30078125 23.4091796875 193.625976562 24.3974609375 192.18359375 c 2
 24.3974609375 192.18359375 24.3974609375 74.6201171875 24.3974609375 74.6201171875 c 1
 24.3974609375 74.6201171875 24.318359375 74.3623046875 24.318359375 73.9658203125 c 0
 24.318359375 72.6513671875 25.8173828125 70.73828125 27.205078125 70.73828125 c 0
 45.4599609375 70.73828125 67.4375 76.599609375 87.3349609375 81.0908203125 c 0
 108.231445312 85.8076171875 129.662109375 91.498046875 147.165039062 97.3828125 c 0
 148.70703125 97.9013671875 150.4140625 98.185546875 152.049804688 98.185546875 c 0
 155.923828125 98.185546875 159.40625 96.595703125 159.40625 92.771484375 c 2
 159.40625 92.771484375 159.40625 -166.661132812 159.40625 -166.661132812 c 1
 159.40625 -166.661132812 159.5 -167.639648438 159.5 -168.594726562 c 0
 159.5 -173.952148438 146.163085938 -176.017578125 141.453125 -176.017578125 c 4
 139.69921875 -176.017578125 137.635742188 -173.793945312 137.635742188 -169.931640625 c 6
 137.635742188 -169.931640625 137.635742188 -55.2294921875 137.635742188 -55.2294921875 c 2
 137.59375 -54.90625 136.413085938 -53.751953125 135.12890625 -53.751953125 c 0
 134.588867188 -53.751953125 134.0390625 -53.92578125 133.130859375 -54.2724609375 c 0
 99.10546875 -67.3037109375 47.576171875 -79.38671875 9.59765625 -84.9267578125 c 0
 9.0419921875 -85.0078125 8.505859375 -85.048828125 7.9951171875 -85.048828125 c 0
 6.2705078125 -85.048828125 4.818359375 -84.591796875 3.705078125 -83.7138671875 c 0
 2.1328125 -82.474609375 1.2373046875 -80.396484375 1.2119140625 -77.583984375 c 2
 1.2119140625 -77.583984375 -0.001953125 52.849609375 -0.001953125 52.849609375 c 1
 -0.001953125 52.849609375 1.2490234375 187.495117188 1.2490234375 187.495117188 c 2
 1.8427734375 195.53515625 13.07421875 196.30078125 21.2998046875 196.30078125 c 0
131.670898438 6.173828125 m 0
 131.670898438 24.0986328125 131.923828125 35.177734375 131.923828125 45.1826171875 c 0
 131.923828125 53.9267578125 124.505859375 59.04296875 115.60546875 59.04296875 c 0
 113.137695312 59.04296875 110.555664062 58.6494140625 107.986328125 57.8310546875 c 0
 77.029296875 47.9658203125 65.0673828125 48.4072265625 37.8740234375 45.5439453125 c 0
 31.5068359375 44.873046875 28.01953125 39.96484375 28.01953125 34.283203125 c 2
 28.01953125 34.283203125 28.01953125 -34.220703125 28.01953125 -34.220703125 c 2
 28.01953125 -43.0341796875 34.3623046875 -47.3046875 40.9892578125 -47.6005859375 c 0
 44.2802734375 -47.7470703125 47.3203125 -47.8193359375 50.185546875 -47.8193359375 c 0
 61.62890625 -47.8193359375 70.279296875 -46.671875 80.95703125 -44.5625 c 0
 94.701171875 -41.84765625 107.811523438 -37.3173828125 122.3515625 -30.916015625 c 0
 128.271484375 -28.310546875 131.930664062 -22.5810546875 131.930664062 -16.4697265625 c 0
 131.930664062 -7.548828125 131.670898438 -2.8740234375 131.670898438 6.173828125 c 0
EndSplineSet
EndChar

StartChar: mensuralBlackMaxima_smufl
Encoding: 267 59728 208
Width: 390
VWidth: 1365
Flags: HW
HStem: -340.109 36.8902 32.3914 188.05 305.918 31.4916
VStem: -6.174 179.046 543.312 100.548
LayerCount: 2
Fore
SplineSet
380.858398438 -591.60546875 m 0
 373.669921875 -591.60546875 370.141601562 -587.106445312 370.141601562 -579.908203125 c 0
 370.141601562 -579.008789062 370.141601562 -578.109375 370.141601562 -577.208984375 c 0
 374.552734375 -535.8203125 376.961914062 -363.055664062 376.961914062 -239.788085938 c 0
 376.961914062 -179.504882812 376.080078125 -147.215820312 373.43359375 -126.520507812 c 0
 371.669921875 -116.624023438 368.877929688 -107.776367188 356.530273438 -105.9765625 c 0
 312.4296875 -100.578125 246.564453125 -101.256835938 197.171875 -100.356445312 c 0
 190.998046875 -100.356445312 184.82421875 -100.356445312 177.767578125 -100.356445312 c 0
 131.022460938 -100.356445312 68.796875 -100.427734375 12.34765625 -102.227539062 c 0
 10.583984375 -102.227539062 l 0
 2.646484375 -102.227539062 -1.763671875 -99.5283203125 -1.763671875 -90.5302734375 c 0
 -1.763671875 -62.638671875 0 -24.7451171875 0 4.9462890625 c 0
 0 29.2392578125 -0.8828125 65.5322265625 -1.763671875 92.5244140625 c 0
 -1.763671875 93.4248046875 -1.763671875 92.5244140625 -1.763671875 93.4248046875 c 0
 -1.763671875 99.72265625 6.173828125 100.623046875 13.23046875 100.623046875 c 0
 18.5224609375 100.623046875 24.6962890625 98.8232421875 42.3359375 98.8232421875 c 0
 91.7275390625 98.8232421875 125.73046875 100.944335938 173.358398438 100.944335938 c 0
 243.036132812 100.944335938 298.727539062 100.701171875 370.169921875 95.380859375 c 0
 385.151367188 94.265625 387.810546875 90.8818359375 387.810546875 82.783203125 c 16
 390.456054688 -6.29296875 389.634262829 -197.503350849 390.456054688 -298.2734375 c 0
 390.70867277 -329.250071889 390.817815878 -366.921614107 390.817815878 -404.707802738 c 0
 390.817815878 -479.105355275 390.394711576 -553.947346225 389.810546875 -579.008789062 c 0
 389.810546875 -589.805664062 387.796875 -591.60546875 380.858398438 -591.60546875 c 0
EndSplineSet
EndChar

StartChar: mensuralCclefSloped_orig
Encoding: 268 63232 209
Width: 136
Flags: HW
HStem: -679 123G -463 123G -298 38G
VStem: 604 223 975 146G 1158 123G
LayerCount: 2
Fore
SplineSet
137.001953125 -182.975585938 m 4
 137.001953125 -193.053612116 128.841811403 -193.644198758 119.56940493 -193.644198758 c 4
 118.338372009 -193.644198758 117.087734281 -193.633789062 115.833984375 -193.633789062 c 4
 103.087890625 -193.633789062 79.03125 -188.935546875 65.7216796875 -185.862304688 c 4
 29.173828125 -177.428710938 4.22774799668 -167.982076655 2.9140625 -145.809570312 c 4
 0.00165167288486 -96.6536287281 -1.517578125 5.162109375 -1.517578125 86.763671875 c 4
 -1.517578125 120.763671875 -0.9755859375 156.724609375 0.462890625 188.64453125 c 4
 1.478515625 211.186523438 13.05859375 218.740234375 32.7109375 218.740234375 c 4
 60.7890625 218.740234375 110.103515625 204.826171875 128.9453125 194.690429688 c 4
 133.899414062 192.025390625 134.349609375 184.38671875 134.413085938 178.999023438 c 4
 134.920898438 140.26171875 135.844726562 104.234375 135.844726562 65.3447265625 c 4
 135.844726562 62.1435546875 135.165039062 55.8447265625 132.2890625 55.8447265625 c 4
 130.784179688 55.8447265625 126.278320312 56.8330078125 124.830078125 57.302734375 c 4
 100.997070312 65.0322265625 75.9189453125 73.41015625 50.064453125 73.41015625 c 4
 30.76953125 73.41015625 19.9609375 57.4345703125 18.55859375 43.1572265625 c 4
 17.7456888495 34.8759770714 17.4218320781 28.9814804068 17.4218320781 23.8028192781 c 0
 17.4218320781 14.9184185489 18.375010656 8.14087232588 19.447265625 -4.966796875 c 4
 22.3271484375 -40.2197265625 85.712890625 -48.228515625 129.098632812 -53.595703125 c 4
 134.728515625 -54.291015625 135.836914062 -56.638671875 135.836914062 -62.216796875 c 4
 135.836914062 -63.177734375 135.5078125 -71.017578125 135.5078125 -88.5859375 c 4
 135.5078125 -91.888671875 135.519209183 -110.535900544 135.546875 -114.545898438 c 4
 135.705078125 -137.36328125 136.119140625 -154.27734375 136.727539062 -169.544921875 c 4
 136.748046875 -170.049804688 137.001953125 -182.51953125 137.001953125 -182.975585938 c 4
EndSplineSet
EndChar

StartChar: mensuralBlackLonga_smufl
Encoding: 269 -1 210
Width: 179
VWidth: 1409
Flags: HW
HStem: -351 38 34 195 316 32
VStem: -162 181 395 102
LayerCount: 2
Fore
SplineSet
170 -590.25 m 4
 161 -590.25 160 -585.25 160 -576.25 c 4
 160 -574.25 163 -557.25 164 -541.25 c 4
 166 -504.25 166 -430 166 -369 c 0
 166 -342 166 -309 166 -270 c 0
 166 -197 166 -143 163 -120 c 0
 162 -110 163 -99 152 -96 c 0
 142 -93 126 -91 86 -91 c 0
 58 -91 40 -92 13 -93 c 0
 12 -93 l 0
 4 -93 -1 -91 -1 -82 c 0
 -1 -54 0 -29 0 0 c 0
 0 1 0 2 0 3 c 0
 0 28 -1 57 -1 85 c 0
 -1 91 4 93 10 93 c 0
 41 94 43 94 93 94 c 0
 121 94 132 93 158 92 c 0
 162 92 167 92 171 91 c 0
 178 89 180 82 180 75 c 0
 180 55 180 31 180 3 c 0
 180 -25 180 -54 180 -85 c 0
 180 -148 180 -218 180 -272 c 0
 180 -286 180 -298 180 -310 c 0
 180 -379 179 -463.25 179 -503.25 c 4
 179 -505.25 179 -506.25 179 -508.25 c 4
 179 -531.25 181 -549.25 181 -565.25 c 4
 181 -570.25 181 -576.25 180 -580.25 c 4
 178 -589.25 179 -590.25 170 -590.25 c 4
EndSplineSet
EndChar

StartChar: mensuralCombStemDown_smufl
Encoding: 270 59711 211
Width: 19
VWidth: 1676
Flags: HW
VStem: 316.4 18.2 226.8 29.4
LayerCount: 2
Fore
SplineSet
15.0166015625 2.201171875 m 5
 15.0107421875 0.6044921875 15.0048828125 -1.140625 15 -3 c 4
 14.958984375 -17.580078125 14.939453125 -39.25 14.939453125 -52.5849609375 c 4
 14.939453125 -235.975585938 18.1689453125 -468.249023438 18.5 -565.75 c 4
 18.5087890625 -568.340820312 20.404296875 -574.909179688 20.404296875 -577.446289062 c 4
 20.404296875 -586.40625 16.8740234375 -587.5 8.5 -587.5 c 4
 4.9677734375 -587.5 4.5205078125 -586.40625 1.3662109375 -584.626953125 c 4
 -2.494140625 -582.44921875 -4 -581.528320312 -4 -575 c 4
 -4 -574.724609375 -3.4609375 -568.176757812 -3.4580078125 -567.8828125 c 4
 -1.3525390625 -379.870117188 -0.2822265625 -192.885742188 -0.0439453125 -3 c 4
 -0.0419921875 -1.3330078125 -0.0380859375 0.333984375 -0.0380859375 2 c 4
 -0.037109375 5.6552734375 4.3349609375 8.001953125 8.3671875 8.001953125 c 4
 11.8154296875 8.001953125 15.015625 6.28515625 15.0166015625 2.201171875 c 5
EndSplineSet
EndChar

StartChar: mensuralBlackBrevis_smufl
Encoding: 271 59730 212
Width: 170
VWidth: 1409
Flags: HW
HStem: -351 38 34 195 316 32
VStem: -5 145 441 81
LayerCount: 2
Fore
SplineSet
170 -19 m 4
 170 -40 171 -72 171 -83 c 4
 171 -92 165 -94 154 -94 c 4
 137 -94 109 -91 88 -91 c 4
 78 -91 71 -90 61 -90 c 4
 58 -90 57 -90 53 -90 c 4
 35 -90 15 -90 7 -93 c 4
 4 -94 4 -95 4 -95 c 4
 3 -95 l 4
 -1 -95 -2 -91 -2 -84 c 4
 -2 -84 -2 -83 -2 -82 c 4
 -2 -54 0 -27 0 1 c 4
 0 25 -1 57 -2 83 c 4
 -2 89 0 91 4 91 c 4
 20 92 44 93 73 93 c 4
 77 93 81 93 85 93 c 4
 99 93 114 92 128 91 c 4
 140 90 151 89 162 89 c 4
 171 89 171 81 171 74 c 4
 171 68 171 63 171 57 c 4
 171 33 170 7 170 -19 c 4
EndSplineSet
EndChar

StartChar: mensNoteheadSemiminimaW_smufl
Encoding: 272 59709 213
Width: 169
VWidth: 1703
Flags: HW
VStem: -12 22
LayerCount: 2
Fore
SplineSet
92 161 m 5
 131 94 154 42 170 -3 c 5
 146 -72 109 -122 80 -159 c 5
 80 -158 80 -156 80 -155 c 4
 80 -115 29 -48 -0 -1 c 5
 38 51 60 93 92 161 c 5
EndSplineSet
EndChar

StartChar: mensProlationCombiningDot_smufl
Encoding: 273 59680 214
Width: 72
VWidth: 600
Flags: HW
LayerCount: 2
Fore
SplineSet
62.7001953125 -24.2001953125 m 0
 56.099609375 -31.900390625 47.2998046875 -35.2001953125 36.2998046875 -35.2001953125 c 0
 27.5 -35.2001953125 19.7998046875 -31.900390625 13.2001953125 -27.5 c 0
 4.400390625 -20.900390625 0 -13.2001953125 0 0 c 0
 0 11 3.2998046875 18.69921875 9.900390625 26.3994140625 c 0
 16.5 33 24.2001953125 37.3994140625 35.2001953125 37.3994140625 c 0
 44 37.3994140625 52.7998046875 34.099609375 59.400390625 28.599609375 c 0
 67.099609375 22 71.5 12.099609375 71.5 0 c 0
 71.5 -9.900390625 68.2001953125 -18.7001953125 62.7001953125 -24.2001953125 c 0
EndSplineSet
EndChar

